<svg width="1309" height="1017" viewBox="0 0 1309 1017" fill="none" xmlns="http://www.w3.org/2000/svg">
<g clip-path="url(#clip0_447_18563)">
<ellipse cx="260.975" cy="190.125" rx="260.975" ry="190.125" transform="matrix(-1 0 0 1 1102.27 401.25)" fill="#4ED0FF"/>
<ellipse cx="260.975" cy="190.125" rx="260.975" ry="190.125" transform="matrix(-1 0 0 1 759.664 510.814)" fill="#4ED0FF"/>
<ellipse cx="260.975" cy="190.125" rx="260.975" ry="190.125" transform="matrix(-1 0 0 1 498.691 21)" fill="#4ED0FF"/>
<ellipse cx="260.975" cy="190.125" rx="260.975" ry="190.125" transform="matrix(-1 0 0 1 373.371 621.301)" fill="#4ED0FF"/>
<ellipse cx="260.975" cy="190.125" rx="260.975" ry="190.125" transform="matrix(-1 0 0 1 941.309 21.9199)" fill="#4ED0FF"/>
<ellipse cx="260.975" cy="190.125" rx="260.975" ry="190.125" transform="matrix(-1 0 0 1 1281.61 183.043)" fill="#4ED0FF"/>
<ellipse cx="221.311" cy="164.806" rx="221.311" ry="164.806" transform="matrix(-1 0 0 1 395.223 562.369)" fill="#4ED0FF"/>
<ellipse cx="221.311" cy="164.806" rx="221.311" ry="164.806" transform="matrix(-1 0 0 1 775.762 462.016)" fill="#4ED0FF"/>
<ellipse cx="221.311" cy="164.806" rx="221.311" ry="164.806" transform="matrix(-1 0 0 1 633.199 462.016)" fill="#4ED0FF"/>
<ellipse cx="221.311" cy="164.806" rx="221.311" ry="164.806" transform="matrix(-1 0 0 1 287.156 511.734)" fill="#4ED0FF"/>
<ellipse cx="221.311" cy="164.806" rx="221.311" ry="164.806" transform="matrix(-1 0 0 1 1068.93 319.305)" fill="#4ED0FF"/>
<ellipse cx="221.311" cy="164.806" rx="221.311" ry="164.806" transform="matrix(-1 0 0 1 941.309 181.199)" fill="#4ED0FF"/>
<ellipse cx="221.311" cy="164.806" rx="221.311" ry="164.806" transform="matrix(-1 0 0 1 658.492 206.979)" fill="#4ED0FF"/>
<ellipse cx="221.311" cy="164.806" rx="221.311" ry="164.806" transform="matrix(-1 0 0 1 458.453 214.346)" fill="#4ED0FF"/>
<ellipse cx="221.311" cy="164.806" rx="221.311" ry="164.806" transform="matrix(-1 0 0 1 215.875 207.896)" fill="#4ED0FF"/>
<ellipse cx="221.311" cy="164.806" rx="221.311" ry="164.806" transform="matrix(-1 0 0 1 340.035 192.25)" fill="#4ED0FF"/>
<ellipse cx="221.311" cy="164.806" rx="221.311" ry="164.806" transform="matrix(-1 0 0 1 333.137 357.055)" fill="#4ED0FF"/>
<path d="M232.121 40.1533C163.832 40.1533 102.11 57.3109 57.5293 84.9385C12.9157 112.586 -14.2451 150.504 -14.2451 192.02C-14.2451 233.535 12.9157 271.453 57.5293 299.101C102.11 326.728 163.832 343.886 232.121 343.886C300.41 343.886 362.132 326.728 406.713 299.101C451.326 271.453 478.487 233.535 478.487 192.02C478.487 150.504 451.326 112.586 406.713 84.9385C362.132 57.3109 300.41 40.1533 232.121 40.1533Z" stroke="white" stroke-width="4.26746"/>
<path d="M681.121 40.1533C613.666 40.1533 552.697 57.3087 508.66 84.9326C464.594 112.575 437.755 150.491 437.755 192.02C437.755 233.548 464.594 271.464 508.66 299.106C552.697 326.73 613.666 343.886 681.121 343.886C748.577 343.886 809.545 326.73 853.582 299.106C897.648 271.464 924.487 233.548 924.487 192.02C924.487 150.491 897.648 112.575 853.582 84.9326C809.545 57.3087 748.577 40.1533 681.121 40.1533Z" stroke="white" stroke-width="4.26746"/>
<path d="M1015.12 200.153C947.715 200.153 886.782 219.41 842.756 250.435C798.724 281.463 771.755 324.128 771.755 371.02C771.755 417.911 798.724 460.576 842.756 491.604C886.782 522.629 947.715 541.886 1015.12 541.886C1082.53 541.886 1143.46 522.629 1187.49 491.604C1231.52 460.576 1258.49 417.911 1258.49 371.02C1258.49 324.128 1231.52 281.463 1187.49 250.435C1143.46 219.41 1082.53 200.153 1015.12 200.153Z" stroke="white" stroke-width="4.26746"/>
<path d="M842.121 420.153C774.715 420.153 713.782 439.41 669.756 470.435C625.724 501.463 598.755 544.128 598.755 591.02C598.755 637.911 625.724 680.576 669.756 711.604C713.782 742.629 774.715 761.886 842.121 761.886C909.527 761.886 970.46 742.629 1014.49 711.604C1058.52 680.576 1085.49 637.911 1085.49 591.02C1085.49 544.128 1058.52 501.463 1014.49 470.435C970.46 439.41 909.527 420.153 842.121 420.153Z" stroke="white" stroke-width="4.26746"/>
<path d="M499.121 530.153C431.715 530.153 370.782 549.41 326.756 580.435C282.724 611.463 255.755 654.128 255.755 701.02C255.755 747.911 282.724 790.576 326.756 821.604C370.782 852.629 431.715 871.886 499.121 871.886C566.527 871.886 627.46 852.629 671.486 821.604C715.518 790.576 742.487 747.911 742.487 701.02C742.487 654.128 715.518 611.463 671.486 580.435C627.46 549.41 566.527 530.153 499.121 530.153Z" stroke="white" stroke-width="4.26746"/>
<path d="M113.121 648.153C45.7154 648.153 -15.2181 667.41 -59.2441 698.435C-103.276 729.463 -130.245 772.128 -130.245 819.02C-130.245 865.911 -103.276 908.576 -59.2441 939.604C-15.2181 970.629 45.7154 989.886 113.121 989.886C180.527 989.886 241.46 970.629 285.486 939.604C329.518 908.576 356.487 865.911 356.487 819.02C356.487 772.128 329.518 729.463 285.486 698.435C241.46 667.41 180.527 648.153 113.121 648.153Z" stroke="white" stroke-width="4.26746"/>
<ellipse cx="221.311" cy="164.806" rx="221.311" ry="164.806" transform="matrix(-1 0 0 1 333.242 132.02)" fill="#4ED0FF"/>
<ellipse cx="221.311" cy="164.806" rx="221.311" ry="164.806" transform="matrix(-1 0 0 1 688.242 132.02)" fill="#4ED0FF"/>
<ellipse cx="221.311" cy="164.806" rx="221.311" ry="164.806" transform="matrix(-1 0 0 1 1006.24 183.02)" fill="#4ED0FF"/>
<ellipse cx="221.311" cy="164.806" rx="221.311" ry="164.806" transform="matrix(-1 0 0 1 1097.24 297.02)" fill="#4ED0FF"/>
<ellipse cx="221.311" cy="164.806" rx="221.311" ry="164.806" transform="matrix(-1 0 0 1 855.242 434.02)" fill="#4ED0FF"/>
<ellipse cx="221.311" cy="180.88" rx="221.311" ry="180.88" transform="matrix(-0.996253 0.0864831 0.0864831 0.996253 490.805 468.992)" fill="#4ED0FF"/>
<ellipse cx="221.311" cy="180.88" rx="221.311" ry="180.88" transform="matrix(-0.985041 0.172318 0.172318 0.985041 118.004 514.936)" fill="#4ED0FF"/>
<ellipse cx="260.975" cy="190.125" rx="260.975" ry="190.125" transform="matrix(-1 0 0 1 1102.27 401.25)" fill="#4ED0FF"/>
<ellipse cx="260.975" cy="190.125" rx="260.975" ry="190.125" transform="matrix(-1 0 0 1 759.668 510.814)" fill="#4ED0FF"/>
<ellipse cx="260.975" cy="190.125" rx="260.975" ry="190.125" transform="matrix(-1 0 0 1 498.695 21)" fill="#4ED0FF"/>
<ellipse cx="260.975" cy="190.125" rx="260.975" ry="190.125" transform="matrix(-1 0 0 1 373.375 621.301)" fill="#4ED0FF"/>
<ellipse cx="260.975" cy="190.125" rx="260.975" ry="190.125" transform="matrix(-1 0 0 1 941.312 21.9199)" fill="#4ED0FF"/>
<ellipse cx="260.975" cy="190.125" rx="260.975" ry="190.125" transform="matrix(-1 0 0 1 1281.62 183.043)" fill="#4ED0FF"/>
<ellipse cx="221.311" cy="164.806" rx="221.311" ry="164.806" transform="matrix(-1 0 0 1 395.227 562.369)" fill="#4ED0FF"/>
<ellipse cx="221.311" cy="164.806" rx="221.311" ry="164.806" transform="matrix(-1 0 0 1 775.766 462.016)" fill="#4ED0FF"/>
<ellipse cx="221.311" cy="164.806" rx="221.311" ry="164.806" transform="matrix(-1 0 0 1 633.203 462.016)" fill="#4ED0FF"/>
<ellipse cx="221.311" cy="164.806" rx="221.311" ry="164.806" transform="matrix(-1 0 0 1 287.16 511.734)" fill="#4ED0FF"/>
<ellipse cx="221.311" cy="164.806" rx="221.311" ry="164.806" transform="matrix(-1 0 0 1 1068.93 319.305)" fill="#4ED0FF"/>
<ellipse cx="221.311" cy="164.806" rx="221.311" ry="164.806" transform="matrix(-1 0 0 1 941.312 181.199)" fill="#4ED0FF"/>
<ellipse cx="221.311" cy="164.806" rx="221.311" ry="164.806" transform="matrix(-1 0 0 1 658.496 206.979)" fill="#4ED0FF"/>
<ellipse cx="221.311" cy="164.806" rx="221.311" ry="164.806" transform="matrix(-1 0 0 1 458.457 214.346)" fill="#4ED0FF"/>
<ellipse cx="221.311" cy="164.806" rx="221.311" ry="164.806" transform="matrix(-1 0 0 1 215.879 207.896)" fill="#4ED0FF"/>
<ellipse cx="221.311" cy="164.806" rx="221.311" ry="164.806" transform="matrix(-1 0 0 1 340.039 192.25)" fill="#4ED0FF"/>
<ellipse cx="221.311" cy="164.806" rx="221.311" ry="164.806" transform="matrix(-1 0 0 1 333.141 357.055)" fill="#4ED0FF"/>
<path d="M232.125 40.1533C163.836 40.1533 102.114 57.3109 57.5332 84.9385C12.9196 112.586 -14.2412 150.504 -14.2412 192.02C-14.2412 233.535 12.9196 271.453 57.5332 299.101C102.114 326.728 163.836 343.886 232.125 343.886C300.414 343.886 362.136 326.728 406.717 299.101C451.33 271.453 478.491 233.535 478.491 192.02C478.491 150.504 451.33 112.586 406.717 84.9385C362.136 57.3109 300.414 40.1533 232.125 40.1533Z" stroke="white" stroke-width="4.26746"/>
<path d="M681.125 40.1533C613.669 40.1533 552.701 57.3087 508.664 84.9326C464.598 112.575 437.759 150.491 437.759 192.02C437.759 233.548 464.598 271.464 508.664 299.106C552.701 326.73 613.669 343.886 681.125 343.886C748.581 343.886 809.549 326.73 853.586 299.106C897.652 271.464 924.491 233.548 924.491 192.02C924.491 150.491 897.652 112.575 853.586 84.9326C809.549 57.3087 748.581 40.1533 681.125 40.1533Z" stroke="white" stroke-width="4.26746"/>
<path d="M1015.12 200.153C947.719 200.153 886.786 219.41 842.76 250.435C798.728 281.463 771.759 324.128 771.759 371.02C771.759 417.911 798.728 460.576 842.76 491.604C886.786 522.629 947.719 541.886 1015.12 541.886C1082.53 541.886 1143.46 522.629 1187.49 491.604C1231.52 460.576 1258.49 417.911 1258.49 371.02C1258.49 324.128 1231.52 281.463 1187.49 250.435C1143.46 219.41 1082.53 200.153 1015.12 200.153Z" stroke="white" stroke-width="4.26746"/>
<path d="M842.125 420.153C774.719 420.153 713.786 439.41 669.76 470.435C625.728 501.463 598.759 544.128 598.759 591.02C598.759 637.911 625.728 680.576 669.76 711.604C713.786 742.629 774.719 761.886 842.125 761.886C909.531 761.886 970.464 742.629 1014.49 711.604C1058.52 680.576 1085.49 637.911 1085.49 591.02C1085.49 544.128 1058.52 501.463 1014.49 470.435C970.464 439.41 909.531 420.153 842.125 420.153Z" stroke="white" stroke-width="4.26746"/>
<path d="M499.125 530.153C431.719 530.153 370.786 549.41 326.76 580.435C282.728 611.463 255.759 654.128 255.759 701.02C255.759 747.911 282.728 790.576 326.76 821.604C370.786 852.629 431.719 871.886 499.125 871.886C566.531 871.886 627.464 852.629 671.49 821.604C715.522 790.576 742.491 747.911 742.491 701.02C742.491 654.128 715.522 611.463 671.49 580.435C627.464 549.41 566.531 530.153 499.125 530.153Z" stroke="white" stroke-width="4.26746"/>
<path d="M113.125 648.153C45.7193 648.153 -15.2142 667.41 -59.2402 698.435C-103.272 729.463 -130.241 772.128 -130.241 819.02C-130.241 865.911 -103.272 908.576 -59.2402 939.604C-15.2142 970.629 45.7193 989.886 113.125 989.886C180.531 989.886 241.464 970.629 285.49 939.604C329.522 908.576 356.491 865.911 356.491 819.02C356.491 772.128 329.522 729.463 285.49 698.435C241.464 667.41 180.531 648.153 113.125 648.153Z" stroke="white" stroke-width="4.26746"/>
<ellipse cx="221.311" cy="164.806" rx="221.311" ry="164.806" transform="matrix(-1 0 0 1 333.246 132.02)" fill="#4ED0FF"/>
<ellipse cx="221.311" cy="164.806" rx="221.311" ry="164.806" transform="matrix(-1 0 0 1 688.246 132.02)" fill="#4ED0FF"/>
<ellipse cx="221.311" cy="164.806" rx="221.311" ry="164.806" transform="matrix(-1 0 0 1 1006.25 183.02)" fill="#4ED0FF"/>
<ellipse cx="221.311" cy="164.806" rx="221.311" ry="164.806" transform="matrix(-1 0 0 1 1097.25 297.02)" fill="#4ED0FF"/>
<ellipse cx="221.311" cy="164.806" rx="221.311" ry="164.806" transform="matrix(-1 0 0 1 855.246 434.02)" fill="#4ED0FF"/>
<ellipse cx="221.311" cy="180.88" rx="221.311" ry="180.88" transform="matrix(-0.996253 0.0864831 0.0864831 0.996253 490.809 468.992)" fill="#4ED0FF"/>
<ellipse cx="221.311" cy="180.88" rx="221.311" ry="180.88" transform="matrix(-0.985041 0.172318 0.172318 0.985041 118.008 514.936)" fill="#4ED0FF"/>
</g>
<defs>
<clipPath id="clip0_447_18563">
<rect width="1309" height="1017" fill="white"/>
</clipPath>
</defs>
</svg>
