<svg width="1440" height="849" viewBox="0 0 1440 849" fill="none" xmlns="http://www.w3.org/2000/svg">
<g clip-path="url(#clip0_513_18958)">
<mask id="mask0_513_18958" style="mask-type:luminance" maskUnits="userSpaceOnUse" x="0" y="0" width="1440" height="849">
<path d="M1440 0H0V849H1440V0Z" fill="white"/>
</mask>
<g mask="url(#mask0_513_18958)">
<path d="M676.576 269.128C792.162 269.128 885.863 210.001 885.863 137.064C885.863 64.1271 792.162 5 676.576 5C560.99 5 467.289 64.1271 467.289 137.064C467.289 210.001 560.99 269.128 676.576 269.128Z" fill="#4ED0FF"/>
<path d="M1018.33 334.671C1133.92 334.671 1227.62 275.544 1227.62 202.607C1227.62 129.67 1133.92 70.543 1018.33 70.543C902.748 70.543 809.047 129.67 809.047 202.607C809.047 275.544 902.748 334.671 1018.33 334.671Z" fill="#4ED0FF"/>
<path d="M1278.34 455.976C1393.93 455.976 1487.63 396.849 1487.63 323.912C1487.63 250.975 1393.93 191.848 1278.34 191.848C1162.76 191.848 1069.05 250.975 1069.05 323.912C1069.05 396.849 1162.76 455.976 1278.34 455.976Z" fill="#4ED0FF"/>
<path d="M361.42 334.671C477.006 334.671 570.707 275.544 570.707 202.607C570.707 129.67 477.006 70.543 361.42 70.543C245.834 70.543 152.133 129.67 152.133 202.607C152.133 275.544 245.834 334.671 361.42 334.671Z" fill="#4ED0FF"/>
<path d="M109.287 466.735C224.873 466.735 318.574 407.608 318.574 334.671C318.574 261.734 224.873 202.607 109.287 202.607C-6.29902 202.607 -100 261.734 -100 334.671C-100 407.608 -6.29902 466.735 109.287 466.735Z" fill="#4ED0FF"/>
<path d="M1212.84 838.474C1343.93 838.474 1450.2 770.149 1450.2 685.866C1450.2 601.583 1343.93 533.258 1212.84 533.258C1081.75 533.258 975.484 601.583 975.484 685.866C975.484 770.149 1081.75 838.474 1212.84 838.474Z" fill="#4ED0FF"/>
<path d="M871.09 838.474C1002.18 838.474 1108.45 770.149 1108.45 685.866C1108.45 601.583 1002.18 533.258 871.09 533.258C740.002 533.258 633.734 601.583 633.734 685.866C633.734 770.149 740.002 838.474 871.09 838.474Z" fill="#4ED0FF"/>
<path d="M529.333 838.474C660.421 838.474 766.689 770.149 766.689 685.866C766.689 601.583 660.421 533.258 529.333 533.258C398.244 533.258 291.977 601.583 291.977 685.866C291.977 770.149 398.244 838.474 529.333 838.474Z" fill="#4ED0FF"/>
<path d="M529.333 838.474C660.421 838.474 766.689 770.149 766.689 685.866C766.689 601.583 660.421 533.258 529.333 533.258C398.244 533.258 291.977 601.583 291.977 685.866C291.977 770.149 398.244 838.474 529.333 838.474Z" fill="#4ED0FF"/>
<path d="M187.583 838.474C318.671 838.474 424.939 770.149 424.939 685.866C424.939 601.583 318.671 533.258 187.583 533.258C56.4945 533.258 -49.7734 601.583 -49.7734 685.866C-49.7734 770.149 56.4945 838.474 187.583 838.474Z" fill="#4ED0FF"/>
<path d="M1420.65 280.867H-19.2422V685.864H1420.65V280.867Z" fill="#4ED0FF"/>
<path d="M681.999 318.041C781.539 318.041 862.232 292.201 862.232 260.324C862.232 228.448 781.539 202.607 681.999 202.607C582.459 202.607 501.766 228.448 501.766 260.324C501.766 292.201 582.459 318.041 681.999 318.041Z" fill="#4ED0FF"/>
<path d="M181.182 687.865C232.547 687.865 278.962 695.508 312.463 707.8C329.222 713.949 342.644 721.223 351.839 729.199C361.039 737.18 365.816 745.683 365.816 754.343C365.816 763.003 361.039 771.506 351.839 779.487C342.644 787.464 329.221 794.738 312.463 800.887C278.962 813.179 232.547 820.821 181.182 820.821C129.816 820.821 83.4008 813.179 49.8994 800.887C33.1411 794.738 19.7195 787.464 10.5244 779.487C1.32401 771.506 -3.45312 763.003 -3.45312 754.343C-3.45303 745.683 1.32411 737.18 10.5244 729.199C19.7195 721.223 33.141 713.949 49.8994 707.8C83.4008 695.508 129.816 687.865 181.182 687.865Z" stroke="white" stroke-width="4"/>
<path d="M527.861 687.865C579.227 687.865 625.641 695.508 659.143 707.8C675.901 713.949 689.323 721.223 698.519 729.199C707.719 737.18 712.496 745.683 712.496 754.343C712.496 763.003 707.719 771.506 698.519 779.487C689.323 787.464 675.901 794.738 659.143 800.887C625.641 813.179 579.227 820.821 527.861 820.821C476.496 820.821 430.08 813.179 396.579 800.887C379.821 794.738 366.399 787.464 357.204 779.487C348.004 771.506 343.227 763.003 343.227 754.343C343.227 745.683 348.004 737.18 357.204 729.199C366.399 721.223 379.821 713.949 396.579 707.8C430.08 695.508 476.496 687.865 527.861 687.865Z" stroke="white" stroke-width="4"/>
<path d="M874.533 687.865C925.899 687.865 972.313 695.508 1005.82 707.8C1022.58 713.949 1036 721.223 1045.19 729.199C1054.39 737.18 1059.17 745.683 1059.17 754.343C1059.17 763.003 1054.39 771.506 1045.19 779.487C1036 787.464 1022.58 794.738 1005.82 800.887C972.313 813.179 925.898 820.821 874.533 820.821C823.168 820.821 776.752 813.179 743.251 800.887C726.493 794.738 713.071 787.464 703.876 779.487C694.675 771.506 689.898 763.003 689.898 754.343C689.898 745.683 694.676 737.18 703.876 729.199C713.071 721.223 726.493 713.949 743.251 707.8C776.752 695.508 823.168 687.865 874.533 687.865Z" stroke="white" stroke-width="4"/>
<path d="M1228.11 656.561C1283.54 656.561 1333.64 665.403 1369.8 679.63C1387.88 686.745 1402.38 695.169 1412.33 704.42C1422.27 713.668 1427.52 723.598 1427.52 733.799C1427.52 744 1422.27 753.929 1412.33 763.178C1402.38 772.429 1387.88 780.852 1369.8 787.968C1333.64 802.194 1283.54 811.038 1228.11 811.038C1172.68 811.038 1122.59 802.194 1086.43 787.968C1068.34 780.852 1053.84 772.429 1043.89 763.178C1033.95 753.929 1028.7 744 1028.7 733.799C1028.7 723.598 1033.95 713.668 1043.89 704.42C1053.84 695.169 1068.34 686.746 1086.43 679.63C1122.59 665.403 1172.68 656.561 1228.11 656.561Z" stroke="white" stroke-width="4"/>
<path d="M226 790.538C378.302 790.538 501.766 739.076 501.766 675.593C501.766 612.111 378.302 560.648 226 560.648C73.699 560.648 -49.7656 612.111 -49.7656 675.593C-49.7656 739.076 73.699 790.538 226 790.538Z" fill="#4ED0FF"/>
<path d="M676.086 778.798C828.388 778.798 951.852 727.336 951.852 663.853C951.852 600.371 828.388 548.908 676.086 548.908C523.785 548.908 400.32 600.371 400.32 663.853C400.32 727.336 523.785 778.798 676.086 778.798Z" fill="#4ED0FF"/>
<path d="M1108.45 772.929C1260.75 772.929 1384.22 721.466 1384.22 657.984C1384.22 594.502 1260.75 543.039 1108.45 543.039C956.152 543.039 832.688 594.502 832.688 657.984C832.688 721.466 956.152 772.929 1108.45 772.929Z" fill="#4ED0FF"/>
<path d="M1578.23 769.017C1730.53 769.017 1853.99 717.554 1853.99 654.072C1853.99 590.59 1730.53 539.127 1578.23 539.127C1425.93 539.127 1302.46 590.59 1302.46 654.072C1302.46 717.554 1425.93 769.017 1578.23 769.017Z" fill="#4ED0FF"/>
<path d="M95.9922 213.412C125.42 213.412 151.966 218.796 171.079 227.418C190.379 236.123 201.345 247.739 201.345 259.836C201.345 271.933 190.378 283.547 171.079 292.253C151.966 300.875 125.42 306.26 95.9922 306.26C66.5643 306.26 40.0187 300.874 20.9053 292.253C1.60615 283.548 -9.35922 271.933 -9.35938 259.836C-9.35938 247.739 1.60591 236.123 20.9053 227.418C40.0187 218.796 66.5643 213.412 95.9922 213.412Z" stroke="white" stroke-width="4"/>
<path d="M356.988 86.2383C409.752 86.2383 457.421 97.9535 491.828 116.794C526.309 135.675 547.039 161.432 547.039 189.4C547.039 217.369 526.309 243.127 491.828 262.008C457.421 280.848 409.752 292.562 356.988 292.562C304.225 292.562 256.556 280.848 222.148 262.008C187.667 243.127 166.938 217.369 166.938 189.4C166.938 161.432 187.667 135.675 222.148 116.794C256.556 97.9535 304.225 86.2383 356.988 86.2383Z" stroke="white" stroke-width="4"/>
<path d="M676.083 20.6953C728.846 20.6954 776.516 32.4106 810.923 51.251C845.404 70.1319 866.134 95.8887 866.134 123.857C866.134 151.826 845.404 177.584 810.923 196.465C776.516 215.305 728.846 227.019 676.083 227.02C623.319 227.02 575.649 215.305 541.242 196.465C506.761 177.584 486.031 151.826 486.031 123.857C486.031 95.8888 506.761 70.1319 541.242 51.251C575.649 32.4105 623.319 20.6953 676.083 20.6953Z" stroke="white" stroke-width="4"/>
<path d="M1023.75 92.1094C1076.51 92.1095 1124.18 103.825 1158.59 122.665C1193.07 141.546 1213.8 167.303 1213.8 195.272C1213.8 223.24 1193.07 248.998 1158.59 267.879C1124.18 286.719 1076.51 298.434 1023.75 298.434C970.983 298.434 923.313 286.719 888.906 267.879C854.425 248.998 833.695 223.24 833.695 195.272C833.695 167.303 854.425 141.546 888.906 122.665C923.313 103.825 970.983 92.1094 1023.75 92.1094Z" stroke="white" stroke-width="4"/>
<path d="M1283.75 209.498C1336.52 209.498 1384.19 221.213 1418.59 240.054C1453.08 258.935 1473.81 284.691 1473.81 312.66C1473.81 340.629 1453.08 366.387 1418.59 385.268C1384.19 404.108 1336.52 415.822 1283.75 415.822C1230.99 415.822 1183.32 404.108 1148.91 385.268C1114.43 366.387 1093.7 340.629 1093.7 312.66C1093.7 284.691 1114.43 258.935 1148.91 240.054C1183.32 221.213 1230.99 209.498 1283.75 209.498Z" stroke="white" stroke-width="4"/>
<path d="M212.618 463.33C357.153 431.937 462.923 354.716 448.864 290.852C434.804 226.989 306.238 200.666 161.703 232.059C17.1684 263.451 -88.6023 340.672 -74.5426 404.536C-60.4828 468.4 68.0833 494.723 212.618 463.33Z" fill="#4ED0FF"/>
<path d="M509.063 351.809C653.598 320.416 759.369 243.195 745.309 179.331C731.249 115.467 602.683 89.1441 458.148 120.537C313.614 151.93 207.843 229.151 221.903 293.015C235.962 356.879 364.529 383.202 509.063 351.809Z" fill="#4ED0FF"/>
<path d="M840.714 381.979C976.784 439.676 1108.04 437.708 1133.88 377.583C1159.72 317.459 1070.36 221.947 934.291 164.25C798.221 106.554 666.966 108.522 641.126 168.646C615.286 228.77 704.644 324.283 840.714 381.979Z" fill="#4ED0FF"/>
<path d="M1067.9 422.994C1145.05 548.386 1253.12 622.401 1309.28 588.311C1365.44 554.22 1348.42 424.935 1271.27 299.543C1194.12 174.15 1086.05 100.135 1029.89 134.226C973.735 168.316 990.752 297.601 1067.9 422.994Z" fill="#4ED0FF"/>
<path d="M1271.07 453.645C1264.48 546.778 1302.19 625.284 1355.31 628.994C1408.43 632.703 1456.84 560.211 1463.43 467.078C1470.02 373.945 1432.3 295.438 1379.18 291.729C1326.06 288.02 1277.66 360.512 1271.07 453.645Z" fill="#4ED0FF"/>
<path d="M15.2286 302.389C34.2663 302.389 49.6994 292.973 49.6994 281.357C49.6994 269.741 34.2663 260.324 15.2286 260.324C-3.80908 260.324 -19.2422 269.741 -19.2422 281.357C-19.2422 292.973 -3.80908 302.389 15.2286 302.389Z" fill="#4ED0FF"/>
</g>
</g>
<defs>
<clipPath id="clip0_513_18958">
<rect width="1440" height="849" fill="white"/>
</clipPath>
</defs>
</svg>
