<svg width="410" height="366" viewBox="0 0 410 366" fill="none" xmlns="http://www.w3.org/2000/svg">
<ellipse cx="188.577" cy="57.9928" rx="66.9913" ry="57.9928" fill="#4ED0FF"/>
<ellipse cx="297.976" cy="86.774" rx="66.9913" ry="57.9928" fill="#4ED0FF"/>
<ellipse cx="381.194" cy="140.038" rx="66.9913" ry="57.9928" fill="#4ED0FF"/>
<ellipse cx="87.6944" cy="86.774" rx="66.9913" ry="57.9928" fill="#4ED0FF"/>
<ellipse cx="6.99131" cy="144.762" rx="66.9913" ry="57.9928" fill="#4ED0FF"/>
<ellipse cx="360.234" cy="298.987" rx="75.976" ry="67.0139" fill="#4ED0FF"/>
<ellipse cx="250.835" cy="298.987" rx="75.976" ry="67.0139" fill="#4ED0FF"/>
<ellipse cx="141.445" cy="298.987" rx="75.976" ry="67.0139" fill="#4ED0FF"/>
<ellipse cx="141.445" cy="298.987" rx="75.976" ry="67.0139" fill="#4ED0FF"/>
<ellipse cx="32.0542" cy="298.987" rx="75.976" ry="67.0139" fill="#4ED0FF"/>
<rect x="-34.1562" y="121.141" width="460.9" height="177.845" fill="#4ED0FF"/>
<ellipse cx="190.316" cy="112.115" rx="57.6913" ry="25.345" fill="#4ED0FF"/>
<path d="M30.0059 299.625C46.4241 299.625 61.2568 302.975 71.9609 308.363C82.7022 313.77 89.1064 321.122 89.1064 329.055C89.1064 336.988 82.7022 344.339 71.9609 349.746C61.2568 355.134 46.4242 358.485 30.0059 358.485C13.5875 358.485 -1.24509 355.134 -11.9492 349.746C-22.6904 344.339 -29.0938 336.987 -29.0938 329.055C-29.0937 321.122 -22.6904 313.77 -11.9492 308.363C-1.24509 302.975 13.5875 299.625 30.0059 299.625Z" stroke="white" stroke-width="1.28037"/>
<path d="M140.975 299.625C157.393 299.625 172.226 302.975 182.93 308.363C193.671 313.77 200.075 321.122 200.075 329.055C200.075 336.988 193.671 344.339 182.93 349.746C172.226 355.134 157.393 358.485 140.975 358.485C124.556 358.485 109.724 355.134 99.0195 349.746C88.2783 344.339 81.875 336.987 81.875 329.055C81.875 321.122 88.2783 313.77 99.0195 308.363C109.724 302.975 124.556 299.625 140.975 299.625Z" stroke="white" stroke-width="1.28037"/>
<path d="M251.943 299.625C268.362 299.625 283.194 302.975 293.898 308.363C304.64 313.77 311.044 321.122 311.044 329.055C311.044 336.988 304.64 344.339 293.898 349.746C283.194 355.134 268.362 358.485 251.943 358.485C235.525 358.485 220.692 355.134 209.988 349.746C199.247 344.339 192.844 336.987 192.844 329.055C192.844 321.122 199.247 313.77 209.988 308.363C220.692 302.975 235.525 299.625 251.943 299.625Z" stroke="white" stroke-width="1.28037"/>
<path d="M365.118 285.877C382.836 285.877 398.844 289.754 410.4 295.991C421.982 302.242 428.947 310.771 428.947 320.032C428.947 329.293 421.982 337.822 410.4 344.073C398.844 350.31 382.836 354.187 365.118 354.188C347.4 354.188 331.391 350.31 319.835 344.073C308.253 337.822 301.289 329.293 301.289 320.032C301.289 310.771 308.253 302.242 319.835 295.991C331.391 289.754 347.4 285.877 365.118 285.877Z" stroke="white" stroke-width="1.28037"/>
<ellipse cx="44.3491" cy="294.467" rx="88.2709" ry="50.4752" fill="#4ED0FF"/>
<ellipse cx="188.419" cy="289.315" rx="88.2709" ry="50.4752" fill="#4ED0FF"/>
<ellipse cx="326.818" cy="286.741" rx="88.2709" ry="50.4752" fill="#4ED0FF"/>
<ellipse cx="477.193" cy="285.022" rx="88.2709" ry="50.4752" fill="#4ED0FF"/>
<path d="M2.7373 91.2734C12.1267 91.2734 20.5973 93.6293 26.6992 97.4053C32.8107 101.187 36.4598 106.328 36.46 111.896C36.46 117.465 32.8109 122.607 26.6992 126.389C20.5973 130.165 12.1267 132.521 2.7373 132.521C-6.65189 132.52 -15.1218 130.165 -21.2236 126.389C-27.3354 122.607 -30.9844 117.465 -30.9844 111.896C-30.9842 106.328 -27.3352 101.187 -21.2236 97.4053C-15.1218 93.6294 -6.65193 91.2735 2.7373 91.2734Z" stroke="white" stroke-width="1.28037"/>
<path d="M86.2715 35.4297C103.122 35.4297 118.352 40.5605 129.355 48.8262C140.359 57.0919 147.105 68.4629 147.105 80.9688C147.105 93.4745 140.359 104.845 129.355 113.11C118.352 121.376 103.122 126.508 86.2715 126.508C69.4212 126.508 54.1901 121.376 43.1865 113.11C32.1834 104.845 25.4376 93.4744 25.4375 80.9688C25.4375 68.4629 32.1832 57.0919 43.1865 48.8262C54.1901 40.5603 69.4212 35.4297 86.2715 35.4297Z" stroke="white" stroke-width="1.28037"/>
<path d="M188.428 6.65234C205.278 6.65239 220.508 11.7831 231.512 20.0488C242.515 28.3145 249.262 39.6855 249.262 52.1914C249.262 64.6972 242.515 76.0674 231.512 84.333C220.508 92.5988 205.278 97.7304 188.428 97.7305C171.577 97.7305 156.346 92.5989 145.343 84.333C134.34 76.0674 127.594 64.6971 127.594 52.1914C127.594 39.6855 134.339 28.3145 145.343 20.0488C156.346 11.783 171.577 6.65234 188.428 6.65234Z" stroke="white" stroke-width="1.28037"/>
<path d="M299.709 38.0117C316.559 38.0118 331.789 43.1425 342.793 51.4082C353.796 59.6739 360.543 71.0449 360.543 83.5508C360.543 96.0565 353.796 107.427 342.793 115.692C331.789 123.958 316.559 129.09 299.709 129.09C282.859 129.09 267.628 123.958 256.624 115.692C245.621 107.427 238.875 96.0565 238.875 83.5508C238.875 71.0449 245.621 59.6739 256.624 51.4082C267.628 43.1423 282.859 38.0117 299.709 38.0117Z" stroke="white" stroke-width="1.28037"/>
<path d="M382.928 89.5586C399.778 89.5586 415.008 94.6894 426.012 102.955C437.015 111.221 443.762 122.592 443.762 135.098C443.762 147.603 437.015 158.974 426.012 167.239C415.008 175.505 399.778 180.637 382.928 180.637C366.077 180.637 350.846 175.505 339.843 167.239C328.84 158.974 322.094 147.603 322.094 135.098C322.094 122.592 328.839 111.221 339.843 102.955C350.846 94.6892 366.077 89.5586 382.928 89.5586Z" stroke="white" stroke-width="1.28037"/>
<ellipse cx="87.4092" cy="51.4285" rx="87.4092" ry="51.4285" transform="matrix(0.95836 -0.285562 0.158449 0.987367 -60 124.664)" fill="#4ED0FF"/>
<ellipse cx="87.4092" cy="51.4285" rx="87.4092" ry="51.4285" transform="matrix(0.95836 -0.285562 0.158449 0.987367 34.8906 75.6895)" fill="#4ED0FF"/>
<ellipse cx="91.2358" cy="50.0961" rx="91.2358" ry="50.0961" transform="matrix(0.864393 0.502817 -0.298956 0.954267 192.203 24.0586)" fill="#4ED0FF"/>
<ellipse cx="109.268" cy="42.3568" rx="109.268" ry="42.3568" transform="matrix(0.409224 0.912434 -0.768437 0.639925 334.219 29.6445)" fill="#4ED0FF"/>
<ellipse cx="74.1493" cy="30.9282" rx="74.1493" ry="30.9282" transform="matrix(-0.0515224 0.998672 -0.995443 -0.0953567 444.266 128.859)" fill="#4ED0FF"/>
</svg>
