<svg width="352" height="352" viewBox="0 0 352 352" fill="none" xmlns="http://www.w3.org/2000/svg">
<path d="M173.582 0C173.8 97.0011 253.558 175.591 351.999 175.807V175.812C253.558 176.027 173.8 254.619 173.582 351.62H173.576C173.362 256.214 96.202 178.618 0 175.887V175.732C96.202 173.001 173.362 95.406 173.576 0H173.582Z" fill="#4ED0FF"/>
<mask id="path-2-inside-1_454_21412" fill="white">
<path d="M174.035 35.166C173.983 36.7169 173.955 38.2745 173.955 39.8379C173.955 115.91 236.273 177.588 313.178 177.668C236.273 177.748 173.955 239.426 173.955 315.498C173.955 315.553 173.956 315.609 173.956 315.664C173.954 315.664 173.951 315.664 173.949 315.664C173.949 315.609 173.951 315.553 173.951 315.498C173.951 239.426 111.633 177.748 34.7285 177.668C111.633 177.588 173.951 115.91 173.951 39.8379C173.951 38.2745 173.922 36.7169 173.87 35.166H174.035Z"/>
</mask>
<path d="M174.035 35.166L179.032 35.3343L179.206 30.166H174.035V35.166ZM173.955 39.8379H168.955V39.8379L173.955 39.8379ZM313.178 177.668L313.183 182.668V172.668L313.178 177.668ZM173.955 315.498H168.955V315.498H173.955ZM173.956 315.664L174.191 320.659L178.962 320.434L178.956 315.658L173.956 315.664ZM173.949 315.664L168.949 315.658L168.943 320.906L174.185 320.659L173.949 315.664ZM173.951 315.498H178.951V315.498H173.951ZM34.7285 177.668L34.7233 172.668L34.7233 182.668L34.7285 177.668ZM173.951 39.8379L178.951 39.8379V39.8379H173.951ZM173.87 35.166V30.166H168.699L168.873 35.3343L173.87 35.166ZM174.035 35.166L169.038 34.9977C168.984 36.6013 168.955 38.2151 168.955 39.8379H173.955H178.955C178.955 38.3338 178.982 36.8324 179.032 35.3343L174.035 35.166ZM173.955 39.8379L168.955 39.8379C168.955 118.722 233.561 182.585 313.173 182.668L313.178 177.668L313.183 172.668C238.985 172.591 178.955 113.098 178.955 39.8379L173.955 39.8379ZM313.178 177.668L313.173 172.668C233.562 172.751 168.955 236.614 168.955 315.498H173.955H178.955C178.955 242.238 238.985 182.745 313.183 182.668L313.178 177.668ZM173.955 315.498H168.955C168.955 315.55 168.956 315.598 168.956 315.624C168.956 315.656 168.956 315.664 168.956 315.67L173.956 315.664L178.956 315.658C178.956 315.2 178.955 315.85 178.955 315.498H173.955ZM173.956 315.664L173.721 310.67C173.779 310.667 173.831 310.665 173.874 310.665C173.918 310.664 173.955 310.664 173.984 310.664C174.012 310.664 174.035 310.665 174.049 310.665C174.056 310.665 174.062 310.665 174.065 310.665C174.068 310.665 174.071 310.665 174.07 310.665C174.07 310.665 174.07 310.665 174.07 310.665C174.069 310.665 174.069 310.665 174.068 310.665C174.067 310.665 174.066 310.665 174.064 310.665C174.06 310.665 174.054 310.665 174.047 310.665C174.033 310.665 174.009 310.664 173.98 310.664C173.951 310.664 173.913 310.664 173.869 310.665C173.825 310.665 173.773 310.667 173.714 310.67L173.949 315.664L174.185 320.659C174.126 320.661 174.075 320.663 174.031 320.663C173.988 320.664 173.95 320.664 173.922 320.664C173.893 320.664 173.87 320.663 173.856 320.663C173.849 320.663 173.844 320.663 173.84 320.663C173.837 320.663 173.835 320.663 173.835 320.663C173.835 320.663 173.835 320.663 173.836 320.663C173.836 320.663 173.836 320.663 173.837 320.663C173.838 320.663 173.839 320.663 173.841 320.663C173.845 320.663 173.851 320.663 173.858 320.663C173.872 320.663 173.896 320.664 173.925 320.664C173.954 320.664 173.992 320.664 174.036 320.663C174.08 320.663 174.132 320.661 174.191 320.659L173.956 315.664ZM173.949 315.664L178.949 315.67C178.949 315.683 178.949 315.691 178.949 315.69C178.949 315.688 178.949 315.684 178.949 315.668C178.95 315.655 178.95 315.63 178.95 315.604C178.951 315.576 178.951 315.54 178.951 315.498H173.951H168.951C168.951 315.491 168.951 315.485 168.951 315.481C168.951 315.478 168.951 315.475 168.951 315.475C168.951 315.475 168.951 315.476 168.951 315.48C168.951 315.483 168.951 315.487 168.951 315.494C168.951 315.506 168.95 315.53 168.95 315.555C168.95 315.582 168.949 315.617 168.949 315.658L173.949 315.664ZM173.951 315.498H178.951C178.951 236.614 114.345 172.751 34.7337 172.668L34.7285 177.668L34.7233 182.668C108.921 182.745 168.951 242.238 168.951 315.498H173.951ZM34.7285 177.668L34.7337 182.668C114.345 182.585 178.951 118.722 178.951 39.8379L173.951 39.8379L168.951 39.8379C168.951 113.098 108.921 172.591 34.7233 172.668L34.7285 177.668ZM173.951 39.8379H178.951C178.951 38.2131 178.921 36.5992 178.867 34.9977L173.87 35.166L168.873 35.3343C168.923 36.8346 168.951 38.3358 168.951 39.8379H173.951ZM173.87 35.166V40.166H174.035V35.166V30.166H173.87V35.166Z" fill="white" mask="url(#path-2-inside-1_454_21412)"/>
</svg>
