<svg width="120" height="116" viewBox="0 0 120 116" fill="none" xmlns="http://www.w3.org/2000/svg">
<g clip-path="url(#clip0_449_21411)">
<path d="M65.1729 133.953H53.1777L53.1787 133.951H65.1719L65.1729 133.953ZM59.1748 5C59.3017 34.1832 86.4732 57.813 120.001 57.877V57.8789C86.4736 57.9429 59.3023 81.5731 59.1748 110.756C59.0494 82.0534 32.7644 58.7223 0 57.9014V57.8545C32.7648 57.0335 59.05 33.703 59.1748 5Z" fill="white"/>
<mask id="path-2-inside-1_449_21411" fill="white">
<path d="M59.3008 16.9805C59.3416 39.8563 80.5513 58.3941 106.727 58.4355C80.5517 58.477 59.3423 77.0143 59.3008 99.8896C59.2592 77.0144 38.0516 58.4772 11.877 58.4355C38.0521 58.3939 59.2599 39.8562 59.3008 16.9805ZM59.3281 15.5078C59.3112 15.9524 59.3016 16.3987 59.3008 16.8467C59.3 16.3987 59.2913 15.9524 59.2744 15.5078C59.2835 15.5078 59.2927 15.5088 59.3018 15.5088C59.3105 15.5088 59.3193 15.5078 59.3281 15.5078Z"/>
</mask>
<path d="M59.3008 16.9805L64.3008 16.9715L54.3008 16.9715L59.3008 16.9805ZM106.727 58.4355L106.734 63.4355V53.4356L106.727 58.4355ZM59.3008 99.8896L54.3008 99.8987H64.3008L59.3008 99.8896ZM11.877 58.4355L11.869 53.4356L11.869 63.4355L11.877 58.4355ZM59.3281 15.5078L64.3245 15.6981L64.5223 10.5053L59.3257 10.5078L59.3281 15.5078ZM59.3008 16.8467L54.3008 16.8558L64.3008 16.8558L59.3008 16.8467ZM59.2744 15.5078L59.2769 10.5078L54.0803 10.5053L54.278 15.6981L59.2744 15.5078ZM59.3018 15.5088V20.5088H59.3018L59.3018 15.5088ZM59.3008 16.9805L54.3008 16.9894C54.3476 43.229 78.4398 63.3907 106.719 63.4355L106.727 58.4355L106.734 53.4356C82.6628 53.3974 64.3356 36.4837 64.3008 16.9715L59.3008 16.9805ZM106.727 58.4355L106.719 53.4356C78.4402 53.4804 54.3484 73.6416 54.3008 99.8806L59.3008 99.8896L64.3008 99.8987C64.3362 80.387 82.6633 63.4737 106.734 63.4355L106.727 58.4355ZM59.3008 99.8896L64.3008 99.8806C64.2531 73.6419 40.1634 53.4805 11.8849 53.4356L11.877 58.4355L11.869 63.4355C35.9398 63.4738 54.2654 80.3868 54.3008 99.8987L59.3008 99.8896ZM11.877 58.4355L11.8849 63.4355C40.1639 63.3905 64.2539 43.2287 64.3008 16.9894L59.3008 16.9805L54.3008 16.9715C54.2659 36.4838 35.9403 53.3973 11.869 53.4356L11.877 58.4355ZM59.3281 15.5078L54.3317 15.3175C54.3127 15.8174 54.3017 16.3243 54.3008 16.8376L59.3008 16.8467L64.3008 16.8558C64.3015 16.4731 64.3097 16.0874 64.3245 15.6981L59.3281 15.5078ZM59.3008 16.8467L64.3008 16.8376C64.2999 16.3315 64.2901 15.8248 64.2708 15.3175L59.2744 15.5078L54.278 15.6981C54.2926 16.08 54.3001 16.4658 54.3008 16.8558L59.3008 16.8467ZM59.2744 15.5078L59.272 20.5078C59.2288 20.5078 59.1908 20.5072 59.1591 20.5064C59.1275 20.5057 59.1006 20.5047 59.0802 20.5039C59.06 20.5031 59.0438 20.5023 59.0346 20.5019C59.0299 20.5016 59.0262 20.5014 59.0242 20.5013C59.0225 20.5012 59.021 20.5012 59.022 20.5012C59.0223 20.5012 59.0249 20.5014 59.028 20.5015C59.0312 20.5017 59.0361 20.502 59.0421 20.5023C59.0538 20.5028 59.0724 20.5037 59.0951 20.5046C59.118 20.5056 59.1474 20.5066 59.1815 20.5074C59.2156 20.5082 59.2562 20.5088 59.3018 20.5088V15.5088V10.5088C59.3451 10.5088 59.3833 10.5094 59.4152 10.5101C59.4471 10.5109 59.4741 10.5118 59.4948 10.5126C59.5152 10.5134 59.5315 10.5142 59.5409 10.5147C59.5458 10.5149 59.5496 10.5151 59.5516 10.5153C59.5535 10.5154 59.555 10.5154 59.5542 10.5154C59.554 10.5154 59.5514 10.5152 59.5485 10.5151C59.5454 10.5149 59.5405 10.5147 59.5347 10.5144C59.5232 10.5138 59.5048 10.5129 59.4823 10.512C59.4596 10.5111 59.4304 10.5101 59.3965 10.5093C59.3626 10.5085 59.3223 10.5078 59.2769 10.5078L59.2744 15.5078ZM59.3018 15.5088L59.3018 20.5088C59.3488 20.5088 59.3906 20.5081 59.4261 20.5073C59.4614 20.5064 59.4919 20.5053 59.5158 20.5043C59.5394 20.5034 59.5588 20.5024 59.5709 20.5018C59.5771 20.5014 59.5823 20.5012 59.5856 20.501C59.5887 20.5008 59.5914 20.5007 59.5917 20.5006C59.5927 20.5006 59.5911 20.5007 59.5892 20.5008C59.5871 20.5009 59.5831 20.5011 59.5781 20.5014C59.5683 20.5019 59.5514 20.5027 59.5301 20.5036C59.5087 20.5045 59.4806 20.5055 59.4476 20.5063C59.4146 20.5072 59.3751 20.5078 59.3305 20.5078L59.3281 15.5078L59.3257 10.5078C59.2789 10.5078 59.2373 10.5085 59.202 10.5094C59.1669 10.5102 59.1366 10.5113 59.1129 10.5123C59.0895 10.5133 59.0703 10.5143 59.0584 10.5149C59.0522 10.5152 59.0472 10.5155 59.044 10.5156C59.041 10.5158 59.0383 10.516 59.0382 10.516C59.0373 10.516 59.039 10.5159 59.041 10.5158C59.0432 10.5157 59.0473 10.5155 59.0524 10.5152C59.0623 10.5147 59.0795 10.5138 59.1009 10.5129C59.1226 10.512 59.1509 10.511 59.184 10.5102C59.2173 10.5094 59.257 10.5088 59.3017 10.5088L59.3018 15.5088Z" fill="#C92525" mask="url(#path-2-inside-1_449_21411)"/>
</g>
<defs>
<clipPath id="clip0_449_21411">
<rect width="120" height="116" fill="white"/>
</clipPath>
</defs>
</svg>
