<svg width="300" height="300" viewBox="0 0 300 300" fill="none" xmlns="http://www.w3.org/2000/svg">
<rect x="2" width="148" height="150" rx="35" fill="#C92525" fill-opacity="0.75"/>
<rect x="148" width="148" height="150" rx="35" fill="#EECB1D" fill-opacity="0.75"/>
<rect y="150" width="148" height="150" rx="35" fill="#5FCE4E" fill-opacity="0.75"/>
<rect x="148" y="150" width="148" height="150" rx="35" fill="#BF46D7" fill-opacity="0.75"/>
<path d="M147.938 0C147.939 0 147.939 0.000885026 147.939 0.00196441C148.126 82.7614 216.101 149.813 299.999 149.998C299.999 149.998 300 149.999 300 150C300 150 299.999 150.001 299.999 150.001C216.101 150.186 148.126 217.239 147.939 299.999C147.939 300 147.939 300.001 147.938 300.001C147.936 300.001 147.936 300 147.936 299.999C147.752 218.621 82.0257 152.43 0.0657519 150.066C0.0293344 150.065 0 150.035 0 149.999C0 149.963 0.029337 149.933 0.0657544 149.932C82.0252 147.568 147.752 81.3795 147.936 0.00196499C147.936 0.000885599 147.936 0 147.938 0Z" fill="#A5CAFE"/>
<mask id="path-6-inside-1_484_13141" fill="white">
<path d="M148.251 30.002C148.289 30.002 148.32 30.0338 148.319 30.0722C148.276 31.3714 148.253 32.6759 148.253 33.9854C148.253 98.9298 201.431 151.577 267.03 151.581C267.03 151.581 267.03 151.581 267.03 151.582C267.03 151.582 267.03 151.582 267.03 151.582C201.431 151.586 148.253 204.234 148.253 269.179C148.253 269.225 148.253 269.271 148.253 269.316C148.253 269.318 148.252 269.318 148.251 269.318C148.25 269.318 148.249 269.317 148.249 269.316C148.249 269.271 148.25 269.224 148.25 269.179C148.25 204.272 95.1337 151.646 29.5864 151.582C29.5862 151.582 29.5859 151.582 29.5859 151.582C29.5859 151.581 29.5862 151.581 29.5864 151.581C95.1339 151.517 148.25 98.8927 148.25 33.9854C148.25 32.6758 148.226 31.3714 148.183 30.0722C148.182 30.0338 148.213 30.002 148.251 30.002Z"/>
</mask>
<path d="M148.253 33.9854L143.253 33.9853V33.9854H148.253ZM148.253 269.179L143.253 269.179V269.179H148.253ZM148.25 269.179H153.25V269.179L148.25 269.179ZM148.25 33.9854H153.25V33.9853L148.25 33.9854ZM29.5864 151.581L29.5913 156.581L29.5864 151.581ZM29.5864 151.582L29.5913 146.582L29.5864 151.582ZM148.251 269.318L148.368 264.32L148.251 269.318ZM148.249 269.316L143.249 269.308L148.249 269.316ZM267.03 151.582L267.029 146.582L267.03 151.582ZM267.03 151.581L267.03 146.581L267.03 151.581ZM148.253 269.316L153.253 269.311L148.253 269.316ZM148.183 30.0722L143.186 30.2376L148.183 30.0722ZM148.319 30.0722L153.316 30.2375L148.319 30.0722ZM148.319 30.0722L143.322 29.907C143.277 31.2575 143.253 32.6172 143.253 33.9853L148.253 33.9854L153.253 33.9854C153.253 32.7345 153.275 31.4852 153.316 30.2375L148.319 30.0722ZM148.253 33.9854H143.253C143.253 101.738 198.717 156.577 267.029 156.581L267.03 151.581L267.03 146.581C204.145 146.577 153.253 96.1212 153.253 33.9854H148.253ZM267.03 151.582L267.029 146.582C198.717 146.586 143.253 201.426 143.253 269.179L148.253 269.179L153.253 269.179C153.253 207.043 204.145 156.586 267.03 156.582L267.03 151.582ZM148.253 269.179H143.253C143.253 269.216 143.253 269.273 143.253 269.322L148.253 269.316L153.253 269.311C153.253 269.268 153.253 269.233 153.253 269.179H148.253ZM148.249 269.316L153.249 269.325C153.249 269.327 153.249 269.327 153.249 269.298C153.249 269.278 153.25 269.231 153.25 269.179H148.25H143.25C143.25 269.173 143.25 269.171 143.25 269.197C143.25 269.214 143.249 269.26 143.249 269.308L148.249 269.316ZM148.25 269.179L153.25 269.179C153.25 201.465 97.8505 146.649 29.5913 146.582L29.5864 151.582L29.5815 156.582C92.4169 156.643 143.25 207.078 143.25 269.179L148.25 269.179ZM29.5864 151.581L29.5913 156.581C97.8506 156.514 153.25 101.7 153.25 33.9854H148.25H143.25C143.25 96.0857 92.4172 146.52 29.5815 146.581L29.5864 151.581ZM148.25 33.9854L153.25 33.9853C153.25 32.6149 153.225 31.255 153.18 29.9068L148.183 30.0722L143.186 30.2376C143.227 31.4878 143.25 32.7368 143.25 33.9854L148.25 33.9854ZM29.5859 151.582H34.5859C34.5859 154.378 32.3127 156.578 29.5913 156.581L29.5864 151.581L29.5815 146.581C26.8596 146.584 24.5859 148.784 24.5859 151.582H29.5859ZM29.5864 151.582L29.5913 146.582C32.2975 146.585 34.5859 148.77 34.5859 151.582H29.5859H24.5859C24.5859 154.394 26.8748 156.579 29.5815 156.582L29.5864 151.582ZM148.251 269.318L148.368 264.32C150.939 264.38 153.254 266.463 153.249 269.325L148.249 269.316L143.249 269.308C143.244 272.172 145.561 274.257 148.134 274.317L148.251 269.318ZM267.03 151.582H262.03C262.03 148.783 264.306 146.582 267.029 146.582L267.03 151.582L267.03 156.582C269.754 156.582 272.03 154.381 272.03 151.582H267.03ZM267.03 151.581L267.029 156.581C264.327 156.581 262.03 154.4 262.03 151.582H267.03H272.03C272.03 148.762 269.733 146.581 267.03 146.581L267.03 151.581ZM148.253 269.316L143.253 269.322C143.25 266.678 145.399 264.25 148.368 264.32L148.251 269.318L148.134 274.317C151.105 274.386 153.256 271.957 153.253 269.311L148.253 269.316ZM148.183 30.0722L153.18 29.9068C153.272 32.6917 151.04 35.002 148.251 35.002V30.002V25.002C145.385 25.002 143.091 27.3759 143.186 30.2376L148.183 30.0722ZM148.319 30.0722L153.316 30.2375C153.411 27.3759 151.117 25.002 148.251 25.002V30.002V35.002C145.462 35.002 143.23 32.6917 143.322 29.907L148.319 30.0722Z" fill="white" mask="url(#path-6-inside-1_484_13141)"/>
</svg>
