<svg width="376" height="300" viewBox="0 0 376 300" fill="none" xmlns="http://www.w3.org/2000/svg">
<g clip-path="url(#clip0_461_22565)">
<path d="M204.213 358.96H166.616L166.617 358.958H204.212L204.213 358.96ZM185.415 0C185.648 81.2901 270.846 147.152 375.999 147.332V147.335C270.846 147.515 185.648 213.377 185.415 294.667H185.413C185.184 214.714 102.761 149.686 0 147.397V147.27C102.761 144.981 185.184 79.9534 185.413 0H185.415Z" fill="#5FCE4E"/>
<mask id="path-2-inside-1_461_22565" fill="white">
<path d="M185.895 29.4727C185.839 30.7724 185.808 32.0774 185.808 33.3877C185.808 97.1278 252.352 148.809 334.48 148.894C252.352 148.979 185.808 200.659 185.808 264.399C185.808 264.446 185.809 264.492 185.809 264.538C185.807 264.538 185.805 264.538 185.803 264.538C185.803 264.492 185.805 264.446 185.805 264.399C185.805 200.659 119.26 148.978 37.1309 148.894C119.26 148.809 185.805 97.1279 185.805 33.3877C185.805 32.0774 185.773 30.7724 185.717 29.4727C185.745 29.4727 185.773 29.4736 185.801 29.4736C185.832 29.4736 185.863 29.4727 185.895 29.4727Z"/>
</mask>
<path d="M185.895 29.4727L190.89 29.6871L191.114 24.4702L185.892 24.4727L185.895 29.4727ZM185.808 33.3877L180.808 33.3877V33.3877H185.808ZM334.48 148.894L334.486 153.894V143.894L334.48 148.894ZM185.808 264.399H180.808V264.399H185.808ZM185.809 264.538L185.993 269.535L190.816 269.357L190.809 264.531L185.809 264.538ZM185.803 264.538L180.803 264.531L180.795 269.727L185.987 269.535L185.803 264.538ZM185.805 264.399H190.805V264.399H185.805ZM37.1309 148.894L37.1257 143.894L37.1257 153.894L37.1309 148.894ZM185.805 33.3877H190.805V33.3877L185.805 33.3877ZM185.717 29.4727L185.719 24.4727L180.497 24.4704L180.721 29.6871L185.717 29.4727ZM185.801 29.4736V34.4736V34.4736V29.4736ZM185.895 29.4727L180.899 29.2582C180.841 30.6215 180.808 31.9984 180.808 33.3877L185.808 33.3877L190.808 33.3877C190.808 32.1564 190.837 30.9233 190.89 29.6871L185.895 29.4727ZM185.808 33.3877H180.808C180.808 100.992 250.841 153.807 334.475 153.894L334.48 148.894L334.486 143.894C253.863 143.81 190.808 93.2633 190.808 33.3877H185.808ZM334.48 148.894L334.475 143.894C250.841 143.98 180.808 196.795 180.808 264.399H185.808H190.808C190.808 204.524 253.863 153.977 334.486 153.894L334.48 148.894ZM185.808 264.399H180.808C180.808 264.452 180.808 264.499 180.808 264.52C180.809 264.548 180.809 264.548 180.809 264.546L185.809 264.538L190.809 264.531C190.809 264.482 190.808 264.435 190.808 264.418C190.808 264.392 190.808 264.393 190.808 264.399H185.808ZM185.809 264.538L185.624 259.541C185.67 259.54 185.71 259.539 185.744 259.539C185.779 259.538 185.808 259.538 185.83 259.538C185.853 259.538 185.871 259.538 185.881 259.539C185.887 259.539 185.891 259.539 185.894 259.539C185.896 259.539 185.898 259.539 185.898 259.539C185.898 259.539 185.898 259.539 185.898 259.539C185.897 259.539 185.897 259.539 185.897 259.539C185.896 259.539 185.895 259.539 185.893 259.539C185.89 259.539 185.886 259.539 185.88 259.539C185.869 259.538 185.85 259.538 185.827 259.538C185.804 259.538 185.775 259.538 185.74 259.538C185.705 259.539 185.664 259.54 185.618 259.542L185.803 264.538L185.987 269.535C185.942 269.536 185.901 269.537 185.867 269.538C185.833 269.538 185.804 269.538 185.781 269.538C185.759 269.538 185.741 269.538 185.73 269.538C185.724 269.537 185.72 269.537 185.717 269.537C185.715 269.537 185.713 269.537 185.713 269.537C185.713 269.537 185.714 269.537 185.714 269.537C185.714 269.537 185.714 269.537 185.715 269.537C185.715 269.537 185.717 269.537 185.718 269.537C185.721 269.537 185.726 269.537 185.731 269.538C185.743 269.538 185.761 269.538 185.784 269.538C185.807 269.538 185.837 269.538 185.871 269.538C185.906 269.537 185.947 269.536 185.993 269.535L185.809 264.538ZM185.803 264.538L190.803 264.546C190.803 264.566 190.802 264.58 190.802 264.584C190.802 264.586 190.802 264.587 190.803 264.572C190.803 264.562 190.803 264.538 190.804 264.511C190.804 264.483 190.805 264.444 190.805 264.399H185.805H180.805C180.805 264.378 180.805 264.362 180.805 264.357C180.805 264.353 180.805 264.352 180.805 264.365C180.805 264.374 180.804 264.397 180.804 264.423C180.803 264.45 180.803 264.487 180.803 264.531L185.803 264.538ZM185.805 264.399H190.805C190.805 196.795 120.771 143.98 37.136 143.894L37.1309 148.894L37.1257 153.894C117.748 153.977 180.805 204.524 180.805 264.399H185.805ZM37.1309 148.894L37.136 153.894C120.771 153.807 190.805 100.992 190.805 33.3877H185.805H180.805C180.805 93.2634 117.748 143.81 37.1257 143.894L37.1309 148.894ZM185.805 33.3877L190.805 33.3877C190.805 31.9961 190.771 30.6189 190.712 29.2582L185.717 29.4727L180.721 29.6871C180.775 30.9259 180.805 32.1587 180.805 33.3877L185.805 33.3877ZM185.717 29.4727L185.715 34.4727C185.694 34.4726 185.678 34.4725 185.672 34.4724C185.667 34.4723 185.663 34.4722 185.672 34.4724C185.678 34.4725 185.695 34.4728 185.715 34.4731C185.736 34.4733 185.766 34.4736 185.801 34.4736V29.4736V24.4736C185.822 24.4736 185.838 24.4738 185.845 24.4739C185.85 24.474 185.854 24.474 185.845 24.4739C185.84 24.4738 185.823 24.4735 185.804 24.4732C185.783 24.473 185.754 24.4727 185.719 24.4727L185.717 29.4727ZM185.801 29.4736V34.4736C185.834 34.4736 185.862 34.4734 185.882 34.4731C185.901 34.4729 185.919 34.4727 185.925 34.4725C185.935 34.4724 185.933 34.4724 185.93 34.4725C185.926 34.4725 185.914 34.4726 185.897 34.4727L185.895 29.4727L185.892 24.4727C185.86 24.4727 185.832 24.4729 185.812 24.4732C185.793 24.4734 185.776 24.4737 185.77 24.4738C185.761 24.4739 185.763 24.4739 185.766 24.4738C185.771 24.4738 185.783 24.4736 185.801 24.4736V29.4736Z" fill="white" mask="url(#path-2-inside-1_461_22565)"/>
</g>
<defs>
<clipPath id="clip0_461_22565">
<rect width="376" height="300" fill="white"/>
</clipPath>
</defs>
</svg>
