<svg width="1379" height="1124" viewBox="0 0 1379 1124" fill="none" xmlns="http://www.w3.org/2000/svg">
<g clip-path="url(#clip0_447_18518)">
<ellipse cx="479.072" cy="657.26" rx="259.643" ry="205.087" fill="#5FCE4E"/>
<ellipse cx="819.924" cy="775.446" rx="259.643" ry="205.087" fill="#5FCE4E"/>
<ellipse cx="1079.56" cy="247.087" rx="259.643" ry="205.087" fill="#5FCE4E"/>
<ellipse cx="1204.24" cy="894.628" rx="259.643" ry="205.087" fill="#5FCE4E"/>
<ellipse cx="639.213" cy="248.083" rx="259.643" ry="205.087" fill="#5FCE4E"/>
<ellipse cx="300.643" cy="421.884" rx="259.643" ry="205.087" fill="#5FCE4E"/>
<ellipse cx="1143.05" cy="803.75" rx="220.182" ry="177.775" fill="#5FCE4E"/>
<ellipse cx="764.451" cy="695.498" rx="220.182" ry="177.775" fill="#5FCE4E"/>
<ellipse cx="906.287" cy="695.498" rx="220.182" ry="177.775" fill="#5FCE4E"/>
<ellipse cx="1250.57" cy="749.126" rx="220.182" ry="177.775" fill="#5FCE4E"/>
<ellipse cx="472.783" cy="541.558" rx="220.182" ry="177.775" fill="#5FCE4E"/>
<ellipse cx="599.748" cy="392.585" rx="220.182" ry="177.775" fill="#5FCE4E"/>
<ellipse cx="881.115" cy="420.396" rx="220.182" ry="177.775" fill="#5FCE4E"/>
<ellipse cx="1080.14" cy="428.339" rx="220.182" ry="177.775" fill="#5FCE4E"/>
<ellipse cx="1321.48" cy="421.382" rx="220.182" ry="177.775" fill="#5FCE4E"/>
<ellipse cx="1197.95" cy="404.505" rx="220.182" ry="177.775" fill="#5FCE4E"/>
<ellipse cx="1204.82" cy="582.275" rx="220.182" ry="177.775" fill="#5FCE4E"/>
<path d="M1295.52 250.134C1236.4 250.134 1182.96 267.261 1144.36 294.843C1105.76 322.428 1082.13 360.344 1082.13 402.003C1082.13 443.662 1105.76 481.578 1144.36 509.163C1182.96 536.745 1236.4 553.872 1295.52 553.872C1354.64 553.872 1408.07 536.745 1446.67 509.163C1485.28 481.578 1508.91 443.662 1508.91 402.003C1508.91 360.344 1485.28 322.428 1446.67 294.843C1408.07 267.261 1354.64 250.134 1295.52 250.134Z" stroke="white" stroke-width="4.26746"/>
<path d="M1084.5 63.1338C1022.88 63.1338 967.186 80.2704 926.958 107.865C886.72 135.467 862.13 173.381 862.13 215C862.13 256.619 886.72 294.533 926.958 322.135C967.186 349.73 1022.88 366.866 1084.5 366.866C1146.11 366.866 1201.81 349.73 1242.03 322.135C1282.27 294.533 1306.86 256.619 1306.86 215C1306.86 173.381 1282.27 135.467 1242.03 107.865C1201.81 80.2704 1146.11 63.1338 1084.5 63.1338Z" stroke="white" stroke-width="4.26746"/>
<path d="M633.996 65.1338C570.848 65.1338 513.774 82.2761 472.549 109.879C431.31 137.491 406.13 175.405 406.13 217C406.13 258.595 431.31 296.509 472.549 324.121C513.774 351.724 570.848 368.866 633.996 368.866C697.144 368.866 754.218 351.724 795.443 324.121C836.682 296.509 861.862 258.595 861.862 217C861.862 175.405 836.682 137.491 795.443 109.879C754.218 82.2761 697.144 65.1338 633.996 65.1338Z" stroke="white" stroke-width="4.26746"/>
<path d="M292.996 232.134C166.744 232.134 65.1299 316.388 65.1299 419.5C65.1299 522.612 166.744 606.866 292.996 606.866C419.248 606.866 520.862 522.612 520.862 419.5C520.862 316.388 419.248 232.134 292.996 232.134Z" stroke="white" stroke-width="4.26746"/>
<path d="M472.996 469.134C346.744 469.134 245.13 553.388 245.13 656.5C245.13 759.612 346.744 843.866 472.996 843.866C599.248 843.866 700.862 759.612 700.862 656.5C700.862 553.388 599.248 469.134 472.996 469.134Z" stroke="white" stroke-width="4.26746"/>
<path d="M811.996 588.134C685.744 588.134 584.13 672.388 584.13 775.5C584.13 878.612 685.744 962.866 811.996 962.866C938.248 962.866 1039.86 878.612 1039.86 775.5C1039.86 672.388 938.248 588.134 811.996 588.134Z" stroke="white" stroke-width="4.26746"/>
<path d="M1198 707.134C1071.74 707.134 970.13 791.388 970.13 894.5C970.13 997.612 1071.74 1081.87 1198 1081.87C1324.25 1081.87 1425.86 997.612 1425.86 894.5C1425.86 791.388 1324.25 707.134 1198 707.134Z" stroke="white" stroke-width="4.26746"/>
<ellipse cx="871.178" cy="374.775" rx="220.182" ry="177.775" fill="#5FCE4E"/>
<ellipse cx="1165.18" cy="388.775" rx="220.182" ry="177.775" fill="#5FCE4E"/>
<ellipse cx="1268.18" cy="447.775" rx="220.182" ry="177.775" fill="#5FCE4E"/>
<ellipse cx="1112" cy="755" rx="286" ry="178" fill="#5FCE4E"/>
<ellipse cx="773.996" cy="681" rx="286" ry="178" fill="#5FCE4E"/>
<ellipse cx="512.996" cy="527" rx="286" ry="178" fill="#5FCE4E"/>
<ellipse cx="633.996" cy="375" rx="286" ry="178" fill="#5FCE4E"/>
</g>
<defs>
<clipPath id="clip0_447_18518">
<rect width="1379" height="1124" fill="white"/>
</clipPath>
</defs>
</svg>
