<svg width="410" height="381" viewBox="0 0 410 381" fill="none" xmlns="http://www.w3.org/2000/svg">
<g clip-path="url(#clip0_524_20155)">
<ellipse cx="188.577" cy="65.9928" rx="66.9913" ry="57.9928" fill="#5FCE4E"/>
<ellipse cx="297.976" cy="94.774" rx="66.9913" ry="57.9928" fill="#5FCE4E"/>
<ellipse cx="381.194" cy="148.038" rx="66.9913" ry="57.9928" fill="#5FCE4E"/>
<ellipse cx="87.6944" cy="94.774" rx="66.9913" ry="57.9928" fill="#5FCE4E"/>
<ellipse cx="6.99131" cy="152.762" rx="66.9913" ry="57.9928" fill="#5FCE4E"/>
<ellipse cx="360.234" cy="306.987" rx="75.976" ry="67.0139" fill="#5FCE4E"/>
<ellipse cx="250.835" cy="306.987" rx="75.976" ry="67.0139" fill="#5FCE4E"/>
<ellipse cx="141.445" cy="306.987" rx="75.976" ry="67.0139" fill="#5FCE4E"/>
<ellipse cx="141.445" cy="306.987" rx="75.976" ry="67.0139" fill="#5FCE4E"/>
<ellipse cx="32.0542" cy="306.987" rx="75.976" ry="67.0139" fill="#5FCE4E"/>
<rect x="-34.1562" y="129.141" width="460.9" height="177.845" fill="#5FCE4E"/>
<ellipse cx="190.316" cy="120.115" rx="57.6913" ry="25.345" fill="#5FCE4E"/>
<path d="M30.0059 307.625C46.4241 307.625 61.2568 310.975 71.9609 316.363C82.7022 321.77 89.1064 329.122 89.1064 337.055C89.1064 344.988 82.7022 352.339 71.9609 357.746C61.2568 363.134 46.4242 366.485 30.0059 366.485C13.5875 366.485 -1.24509 363.134 -11.9492 357.746C-22.6904 352.339 -29.0938 344.987 -29.0938 337.055C-29.0937 329.122 -22.6904 321.77 -11.9492 316.363C-1.24509 310.975 13.5875 307.625 30.0059 307.625Z" stroke="white" stroke-width="1.28037"/>
<path d="M140.975 307.625C157.393 307.625 172.226 310.975 182.93 316.363C193.671 321.77 200.075 329.122 200.075 337.055C200.075 344.988 193.671 352.339 182.93 357.746C172.226 363.134 157.393 366.485 140.975 366.485C124.556 366.485 109.724 363.134 99.0195 357.746C88.2783 352.339 81.875 344.987 81.875 337.055C81.875 329.122 88.2783 321.77 99.0195 316.363C109.724 310.975 124.556 307.625 140.975 307.625Z" stroke="white" stroke-width="1.28037"/>
<path d="M251.943 307.625C268.362 307.625 283.194 310.975 293.898 316.363C304.64 321.77 311.044 329.122 311.044 337.055C311.044 344.988 304.64 352.339 293.898 357.746C283.194 363.134 268.362 366.485 251.943 366.485C235.525 366.485 220.692 363.134 209.988 357.746C199.247 352.339 192.844 344.987 192.844 337.055C192.844 329.122 199.247 321.77 209.988 316.363C220.692 310.975 235.525 307.625 251.943 307.625Z" stroke="white" stroke-width="1.28037"/>
<path d="M365.118 293.877C382.836 293.877 398.844 297.754 410.4 303.991C421.982 310.242 428.947 318.771 428.947 328.032C428.947 337.293 421.982 345.822 410.4 352.073C398.844 358.31 382.836 362.187 365.118 362.188C347.4 362.188 331.391 358.31 319.835 352.073C308.253 345.822 301.289 337.293 301.289 328.032C301.289 318.771 308.253 310.242 319.835 303.991C331.391 297.754 347.4 293.877 365.118 293.877Z" stroke="white" stroke-width="1.28037"/>
<ellipse cx="44.3491" cy="302.467" rx="88.2709" ry="50.4752" fill="#5FCE4E"/>
<ellipse cx="188.419" cy="297.315" rx="88.2709" ry="50.4752" fill="#5FCE4E"/>
<ellipse cx="326.818" cy="294.741" rx="88.2709" ry="50.4752" fill="#5FCE4E"/>
<ellipse cx="477.193" cy="293.022" rx="88.2709" ry="50.4752" fill="#5FCE4E"/>
<path d="M2.7373 99.2734C12.1267 99.2734 20.5973 101.629 26.6992 105.405C32.8107 109.187 36.4598 114.328 36.46 119.896C36.46 125.465 32.8109 130.607 26.6992 134.389C20.5973 138.165 12.1267 140.521 2.7373 140.521C-6.65189 140.52 -15.1218 138.165 -21.2236 134.389C-27.3354 130.607 -30.9844 125.465 -30.9844 119.896C-30.9842 114.328 -27.3352 109.187 -21.2236 105.405C-15.1218 101.629 -6.65193 99.2735 2.7373 99.2734Z" stroke="white" stroke-width="1.28037"/>
<path d="M86.2715 43.4297C103.122 43.4297 118.352 48.5605 129.355 56.8262C140.359 65.0919 147.105 76.4629 147.105 88.9688C147.105 101.475 140.359 112.845 129.355 121.11C118.352 129.376 103.122 134.508 86.2715 134.508C69.4212 134.508 54.1901 129.376 43.1865 121.11C32.1834 112.845 25.4376 101.474 25.4375 88.9688C25.4375 76.4629 32.1832 65.0919 43.1865 56.8262C54.1901 48.5603 69.4212 43.4297 86.2715 43.4297Z" stroke="white" stroke-width="1.28037"/>
<path d="M188.428 14.6523C205.278 14.6524 220.508 19.7831 231.512 28.0488C242.515 36.3145 249.262 47.6855 249.262 60.1914C249.262 72.6972 242.515 84.0674 231.512 92.333C220.508 100.599 205.278 105.73 188.428 105.73C171.577 105.73 156.346 100.599 145.343 92.333C134.34 84.0674 127.594 72.6971 127.594 60.1914C127.594 47.6855 134.339 36.3145 145.343 28.0488C156.346 19.783 171.577 14.6523 188.428 14.6523Z" stroke="white" stroke-width="1.28037"/>
<path d="M299.709 46.0117C316.559 46.0118 331.789 51.1425 342.793 59.4082C353.796 67.6739 360.543 79.0449 360.543 91.5508C360.543 104.057 353.796 115.427 342.793 123.692C331.789 131.958 316.559 137.09 299.709 137.09C282.859 137.09 267.628 131.958 256.624 123.692C245.621 115.427 238.875 104.056 238.875 91.5508C238.875 79.0449 245.621 67.6739 256.624 59.4082C267.628 51.1423 282.859 46.0117 299.709 46.0117Z" stroke="white" stroke-width="1.28037"/>
<path d="M382.928 97.5586C399.778 97.5586 415.008 102.689 426.012 110.955C437.015 119.221 443.762 130.592 443.762 143.098C443.762 155.603 437.015 166.974 426.012 175.239C415.008 183.505 399.778 188.637 382.928 188.637C366.077 188.637 350.846 183.505 339.843 175.239C328.84 166.974 322.094 155.603 322.094 143.098C322.094 130.592 328.839 119.221 339.843 110.955C350.846 102.689 366.077 97.5586 382.928 97.5586Z" stroke="white" stroke-width="1.28037"/>
<ellipse cx="87.4092" cy="51.4285" rx="87.4092" ry="51.4285" transform="matrix(0.95836 -0.285562 0.158449 0.987367 -60 132.664)" fill="#5FCE4E"/>
<ellipse cx="87.4092" cy="51.4285" rx="87.4092" ry="51.4285" transform="matrix(0.95836 -0.285562 0.158449 0.987367 34.8906 83.6895)" fill="#5FCE4E"/>
<ellipse cx="91.2358" cy="50.0961" rx="91.2358" ry="50.0961" transform="matrix(0.864393 0.502817 -0.298956 0.954267 192.203 32.0586)" fill="#5FCE4E"/>
<ellipse cx="109.268" cy="42.3568" rx="109.268" ry="42.3568" transform="matrix(0.409224 0.912434 -0.768437 0.639925 334.219 37.6445)" fill="#5FCE4E"/>
<ellipse cx="74.1493" cy="30.9282" rx="74.1493" ry="30.9282" transform="matrix(-0.0515224 0.998672 -0.995443 -0.0953567 444.266 136.859)" fill="#5FCE4E"/>
</g>
<defs>
<clipPath id="clip0_524_20155">
<rect width="410" height="381" fill="white"/>
</clipPath>
</defs>
</svg>
