<svg width="261" height="268" viewBox="0 0 261 268" fill="none" xmlns="http://www.w3.org/2000/svg">
<g clip-path="url(#clip0_449_21295)">
<path d="M141.349 315.876H116.246V315.875H141.349V315.876ZM128.8 7C128.955 76.9481 185.838 133.621 256.047 133.776V133.777C185.839 133.933 128.956 190.606 128.8 260.554H128.796C128.643 191.756 73.6116 135.8 5 133.831V133.722C73.6118 131.753 128.643 75.7981 128.796 7H128.8Z" fill="#5FCE4E"/>
<mask id="path-2-inside-1_449_21295" fill="white">
<path d="M129.118 32.3574C129.081 33.4759 129.061 34.599 129.061 35.7266C129.061 90.5915 173.52 135.072 228.381 135.116C173.52 135.16 129.061 179.642 129.061 234.507C129.061 234.546 129.061 234.586 129.061 234.625L129.058 234.626C129.058 234.586 129.059 234.547 129.059 234.507C129.059 179.648 84.6094 135.17 29.7578 135.116V135.115C84.6094 135.061 129.059 90.5851 129.059 35.7266C129.059 34.599 129.037 33.4759 129 32.3574C129.019 32.3574 129.038 32.3584 129.057 32.3584C129.077 32.3584 129.098 32.3574 129.118 32.3574Z"/>
</mask>
<path d="M129.118 32.3574L134.115 32.5239L134.288 27.3543L129.115 27.3574L129.118 32.3574ZM129.061 35.7266L124.061 35.7265V35.7266H129.061ZM228.381 135.116L228.385 140.116V130.116L228.381 135.116ZM129.061 234.507H124.061V234.507L129.061 234.507ZM129.061 234.625L130.642 239.368L134.065 238.227L134.061 234.619L129.061 234.625ZM129.058 234.626L124.058 234.62L124.049 241.566L130.639 239.369L129.058 234.626ZM129.059 234.507L134.059 234.507V234.507H129.059ZM29.7578 135.116H24.7578V140.111L29.7529 140.116L29.7578 135.116ZM29.7578 135.115L29.7529 130.115L24.7578 130.12V135.115H29.7578ZM129.059 35.7266H134.059V35.7265L129.059 35.7266ZM129 32.3574L129.003 27.3574L123.831 27.3545L124.003 32.5239L129 32.3574ZM129.057 32.3584V37.3584H129.057L129.057 32.3584ZM129.118 32.3574L124.121 32.1909C124.082 33.3601 124.061 34.5389 124.061 35.7265L129.061 35.7266L134.061 35.7266C134.061 34.6591 134.08 33.5917 134.115 32.5239L129.118 32.3574ZM129.061 35.7266H124.061C124.061 93.3521 170.757 140.07 228.377 140.116L228.381 135.116L228.385 130.116C176.284 130.075 134.061 87.8308 134.061 35.7266H129.061ZM228.381 135.116L228.377 130.116C170.757 130.162 124.061 176.881 124.061 234.507H129.061H134.061C134.061 182.403 176.284 140.158 228.385 140.116L228.381 135.116ZM129.061 234.507L124.061 234.507C124.061 234.538 124.061 234.588 124.061 234.631L129.061 234.625L134.061 234.619C134.061 234.583 134.061 234.555 134.061 234.507L129.061 234.507ZM129.061 234.625L127.479 229.882L127.476 229.883L129.058 234.626L130.639 239.369L130.642 239.368L129.061 234.625ZM129.058 234.626L134.058 234.632C134.058 234.64 134.058 234.645 134.058 234.643C134.058 234.641 134.058 234.638 134.058 234.626C134.058 234.61 134.059 234.561 134.059 234.507L129.059 234.507L124.059 234.507C124.059 234.502 124.059 234.498 124.059 234.496C124.059 234.495 124.059 234.494 124.059 234.493C124.059 234.493 124.059 234.492 124.059 234.492C124.059 234.492 124.059 234.493 124.059 234.493C124.059 234.494 124.059 234.495 124.059 234.496C124.059 234.498 124.059 234.501 124.058 234.506C124.058 234.515 124.058 234.531 124.058 234.549C124.058 234.568 124.058 234.592 124.058 234.62L129.058 234.626ZM129.059 234.507H134.059C134.059 176.888 87.3731 130.173 29.7627 130.116L29.7578 135.116L29.7529 140.116C81.8458 140.168 124.059 182.409 124.059 234.507H129.059ZM29.7578 135.116H34.7578V135.115H29.7578H24.7578V135.116H29.7578ZM29.7578 135.115L29.7627 140.115C87.373 140.058 134.059 93.3455 134.059 35.7266H129.059H124.059C124.059 87.8247 81.8459 130.064 29.7529 130.115L29.7578 135.115ZM129.059 35.7266L134.059 35.7265C134.059 34.5362 134.036 33.3571 133.997 32.1909L129 32.3574L124.003 32.5239C124.038 33.5948 124.059 34.6618 124.059 35.7266L129.059 35.7266ZM129 32.3574L128.997 37.3574C128.961 37.3574 128.932 37.3569 128.917 37.3566C128.909 37.3565 128.903 37.3563 128.9 37.3563C128.898 37.3562 128.897 37.3562 128.9 37.3563C128.902 37.3563 128.908 37.3565 128.915 37.3566C128.923 37.3568 128.934 37.3571 128.946 37.3573C128.972 37.3578 129.01 37.3584 129.057 37.3584V32.3584V27.3584C129.094 27.3584 129.123 27.3589 129.139 27.3592C129.147 27.3593 129.153 27.3595 129.156 27.3595C129.158 27.3596 129.16 27.3596 129.157 27.3596C129.155 27.3595 129.149 27.3594 129.142 27.3592C129.135 27.359 129.124 27.3588 129.112 27.3585C129.087 27.358 129.049 27.3574 129.003 27.3574L129 32.3574ZM129.057 32.3584L129.057 37.3584C129.1 37.3584 129.136 37.3579 129.16 37.3575C129.183 37.3571 129.203 37.3566 129.206 37.3565C129.214 37.3563 129.204 37.3566 129.193 37.3568C129.179 37.357 129.154 37.3574 129.121 37.3574L129.118 32.3574L129.115 27.3574C129.072 27.3574 129.036 27.358 129.013 27.3584C129.001 27.3586 128.991 27.3588 128.984 27.359C128.977 27.3591 128.971 27.3593 128.969 27.3593C128.966 27.3594 128.967 27.3594 128.969 27.3593C128.971 27.3593 128.977 27.3592 128.984 27.359C128.997 27.3588 129.023 27.3584 129.057 27.3584L129.057 32.3584Z" fill="white" mask="url(#path-2-inside-1_449_21295)"/>
</g>
<defs>
<clipPath id="clip0_449_21295">
<rect width="261" height="268" fill="white"/>
</clipPath>
</defs>
</svg>
