<svg width="124" height="30" viewBox="0 0 124 30" fill="none" xmlns="http://www.w3.org/2000/svg">
<path d="M-0.000710011 29.0908V-8.96454e-05H17.5561V3.12491H3.52202V12.9545H16.647V16.0795H3.52202V25.9658H17.7834V29.0908H-0.000710011ZM23.9055 29.0908V-8.96454e-05H27.4283V25.9658H40.951V29.0908H23.9055ZM49.4347 29.0908H45.7415L56.4233 -8.96454e-05H60.0597L70.7415 29.0908H67.0483L58.3551 4.60218H58.1278L49.4347 29.0908ZM50.7983 17.7272H65.6847V20.8522H50.7983V17.7272ZM75.2727 29.0908V-8.96454e-05H85.1023C87.375 -8.96454e-05 89.2405 0.388168 90.6989 1.16468C92.1572 1.93173 93.2367 2.9876 93.9375 4.3323C94.6383 5.67699 94.9886 7.20635 94.9886 8.92037C94.9886 10.6344 94.6383 12.1543 93.9375 13.48C93.2367 14.8058 92.1619 15.8474 90.7131 16.605C89.2642 17.3531 87.4129 17.7272 85.1591 17.7272H77.2045V14.5454H85.0455C86.5985 14.5454 87.8485 14.3181 88.7955 13.8635C89.7519 13.409 90.4432 12.7651 90.8693 11.9317C91.3049 11.0889 91.5227 10.0851 91.5227 8.92037C91.5227 7.75559 91.3049 6.7376 90.8693 5.86639C90.4337 4.99518 89.7377 4.32283 88.7812 3.84934C87.8248 3.36639 86.5606 3.12491 84.9886 3.12491H78.7955V29.0908H75.2727ZM88.9659 16.0226L96.125 29.0908H92.0341L84.9886 16.0226H88.9659ZM102.052 29.0908H98.3587L109.04 -8.96454e-05H112.677L123.359 29.0908H119.665L110.972 4.60218H110.745L102.052 29.0908ZM103.415 17.7272H118.302V20.8522H103.415V17.7272Z" fill="#5FCE4E"/>
</svg>
