<svg width="300" height="300" viewBox="0 0 300 300" fill="none" xmlns="http://www.w3.org/2000/svg">
<path d="M147.938 0C148.124 82.7607 216.1 149.814 299.999 149.998V150.001C216.1 150.185 148.124 217.239 147.938 300H147.932C147.749 218.601 81.9891 152.398 0 150.065V149.934C81.989 147.601 147.749 81.3986 147.932 0H147.938Z" fill="#BF46D7"/>
<mask id="path-2-inside-1_449_21296" fill="white">
<path d="M148.329 30.001C148.285 31.3236 148.261 32.652 148.261 33.9854C148.261 98.9063 201.401 151.539 266.968 151.58C201.401 151.621 148.261 204.256 148.261 269.177C148.261 269.223 148.261 269.27 148.261 269.316C148.258 269.317 148.256 269.316 148.254 269.316C148.254 269.27 148.255 269.223 148.255 269.177C148.255 204.27 95.1376 151.644 29.5898 151.58V151.579C95.1375 151.515 148.255 98.8924 148.255 33.9854C148.255 32.652 148.23 31.3236 148.186 30.001H148.329Z"/>
</mask>
<path d="M148.329 30.001L153.326 30.169L153.5 25.001H148.329V30.001ZM148.261 33.9854H143.261V33.9854L148.261 33.9854ZM266.968 151.58L266.971 156.58V146.58L266.968 151.58ZM148.261 269.177H143.261V269.177H148.261ZM148.261 269.316L148.496 274.311L153.266 274.086L153.261 269.311L148.261 269.316ZM148.254 269.316L143.254 269.311L143.248 274.558L148.489 274.311L148.254 269.316ZM148.255 269.177H153.255V269.177H148.255ZM29.5898 151.58H24.5898V156.575L29.585 156.58L29.5898 151.58ZM29.5898 151.579L29.585 146.579L24.5898 146.584V151.579H29.5898ZM148.255 33.9854L153.255 33.9854V33.9854H148.255ZM148.186 30.001V25.001H143.015L143.188 30.169L148.186 30.001ZM148.329 30.001L143.332 29.8329C143.286 31.2078 143.261 32.5924 143.261 33.9854H148.261H153.261C153.261 32.7117 153.284 31.4394 153.326 30.169L148.329 30.001ZM148.261 33.9854L143.261 33.9854C143.261 101.714 198.685 156.537 266.965 156.58L266.968 151.58L266.971 146.58C204.116 146.541 153.261 96.0987 153.261 33.9853L148.261 33.9854ZM266.968 151.58L266.965 146.58C198.685 146.623 143.261 201.448 143.261 269.177H148.261H153.261C153.261 207.063 204.116 156.62 266.971 156.58L266.968 151.58ZM148.261 269.177H143.261C143.261 269.215 143.261 269.272 143.261 269.322L148.261 269.316L153.261 269.311C153.261 269.267 153.261 269.232 153.261 269.177H148.261ZM148.261 269.316L148.025 264.322C148.084 264.319 148.135 264.318 148.179 264.317C148.223 264.316 148.26 264.316 148.288 264.317C148.317 264.317 148.34 264.317 148.354 264.317C148.361 264.317 148.366 264.318 148.37 264.318C148.373 264.318 148.375 264.318 148.375 264.318C148.375 264.318 148.375 264.318 148.374 264.318C148.374 264.318 148.374 264.318 148.373 264.318C148.372 264.318 148.371 264.318 148.369 264.318C148.365 264.318 148.359 264.317 148.352 264.317C148.338 264.317 148.314 264.317 148.285 264.316C148.256 264.316 148.218 264.316 148.174 264.317C148.13 264.318 148.077 264.319 148.018 264.322L148.254 269.316L148.489 274.311C148.431 274.314 148.379 274.315 148.336 274.316C148.292 274.316 148.255 274.316 148.226 274.316C148.198 274.316 148.175 274.316 148.161 274.315C148.154 274.315 148.148 274.315 148.145 274.315C148.142 274.315 148.139 274.315 148.14 274.315C148.14 274.315 148.14 274.315 148.14 274.315C148.141 274.315 148.141 274.315 148.141 274.315C148.142 274.315 148.144 274.315 148.146 274.315C148.149 274.315 148.155 274.315 148.163 274.316C148.177 274.316 148.201 274.316 148.23 274.316C148.259 274.317 148.297 274.316 148.341 274.316C148.385 274.315 148.437 274.314 148.496 274.311L148.261 269.316ZM148.254 269.316L153.254 269.322C153.254 269.326 153.254 269.326 153.254 269.298C153.254 269.277 153.255 269.229 153.255 269.177H148.255H143.255C143.255 269.171 143.255 269.17 143.255 269.196C143.254 269.214 143.254 269.26 143.254 269.311L148.254 269.316ZM148.255 269.177H153.255C153.255 201.463 97.8543 146.646 29.5947 146.58L29.5898 151.58L29.585 156.58C92.4209 156.641 143.255 207.077 143.255 269.177H148.255ZM29.5898 151.58H34.5898V151.579H29.5898H24.5898V151.58H29.5898ZM29.5898 151.579L29.5947 156.579C97.8541 156.513 153.255 101.7 153.255 33.9854L148.255 33.9854L143.255 33.9853C143.255 96.0853 92.421 146.518 29.585 146.579L29.5898 151.579ZM148.255 33.9854H153.255C153.255 32.59 153.229 31.2052 153.183 29.8329L148.186 30.001L143.188 30.169C143.231 31.4419 143.255 32.714 143.255 33.9854H148.255ZM148.186 30.001V35.001H148.329V30.001V25.001H148.186V30.001Z" fill="white" mask="url(#path-2-inside-1_449_21296)"/>
</svg>
