<svg width="1440" height="638" viewBox="0 0 1440 638" fill="none" xmlns="http://www.w3.org/2000/svg">
<g clip-path="url(#clip0_447_19618)">
<ellipse cx="131.884" cy="281.13" rx="227" ry="206.5" transform="rotate(-37.0693 131.884 281.13)" fill="#BF46D7"/>
<ellipse cx="500.513" cy="324.413" rx="227" ry="206.5" transform="rotate(-37.0693 500.513 324.413)" fill="#BF46D7"/>
<ellipse cx="1445.99" cy="211.691" rx="227" ry="206.5" transform="rotate(-10.0319 1445.99 211.691)" fill="#BF46D7"/>
<ellipse cx="1067.06" cy="279.741" rx="227" ry="206.5" transform="rotate(-10.0319 1067.06 279.741)" fill="#BF46D7"/>
<ellipse cx="806.064" cy="503.626" rx="227" ry="206.5" transform="rotate(-10.0319 806.064 503.626)" fill="#BF46D7"/>
<ellipse cx="215.906" cy="364.314" rx="269" ry="131.5" fill="#BF46D7"/>
<ellipse cx="484.91" cy="436.312" rx="269" ry="131.5" fill="#BF46D7"/>
<ellipse cx="880.91" cy="512.314" rx="269" ry="131.5" fill="#BF46D7"/>
<ellipse cx="1066.91" cy="400.314" rx="269" ry="131.5" fill="#BF46D7"/>
<ellipse cx="1220.91" cy="343.312" rx="269" ry="131.5" fill="#BF46D7"/>
<ellipse cx="1305.91" cy="466.314" rx="269" ry="131.5" fill="#BF46D7"/>
<ellipse cx="1277.08" cy="493.501" rx="352.089" ry="247.58" transform="rotate(-10.0319 1277.08 493.501)" fill="#BF46D7"/>
<ellipse cx="255.6" cy="647.48" rx="402.886" ry="366.383" transform="rotate(-37.0693 255.6 647.48)" fill="#BF46D7"/>
<path d="M148.914 82.4648C247.584 82.4648 326.414 144.14 326.414 218.965C326.414 293.789 247.584 355.465 148.914 355.465C50.2441 355.465 -28.5859 293.789 -28.5859 218.965C-28.5859 144.14 50.2441 82.4648 148.914 82.4648Z" stroke="white" stroke-width="5"/>
<path d="M508.414 132.465C561.104 132.465 608.704 147.89 643.068 172.704C677.436 197.52 698.414 231.586 698.414 268.965C698.414 306.344 677.436 340.409 643.068 365.226C608.704 390.039 561.104 405.465 508.414 405.465C455.724 405.465 408.124 390.039 373.76 365.226C339.392 340.409 318.414 306.344 318.414 268.965C318.414 231.586 339.392 197.52 373.76 172.704C408.124 147.89 455.724 132.465 508.414 132.465Z" stroke="white" stroke-width="5"/>
<path d="M807.914 305.463C864.09 305.463 914.836 320.906 951.468 345.744C988.113 370.591 1010.41 404.655 1010.41 441.963C1010.41 479.27 988.113 513.334 951.468 538.182C914.836 563.02 864.09 578.463 807.914 578.463C751.738 578.463 700.992 563.02 664.36 538.182C627.715 513.334 605.414 479.27 605.414 441.963C605.414 404.655 627.715 370.591 664.36 345.744C700.992 320.906 751.738 305.463 807.914 305.463Z" stroke="white" stroke-width="5"/>
<path d="M977.52 117.674C1026.41 92.3379 1077.67 83.1569 1120.97 88.6801C1164.29 94.2049 1199.39 114.381 1216.57 147.524C1233.74 180.667 1230 220.978 1209.54 259.556C1189.08 298.124 1152.03 334.718 1103.14 360.055C1054.26 385.391 1002.99 394.572 959.688 389.049C916.371 383.524 881.272 363.348 864.095 330.205C846.917 297.061 850.667 256.751 871.125 218.173C891.578 179.605 928.635 143.011 977.52 117.674Z" stroke="white" stroke-width="5"/>
<path d="M1267.84 120.637C1299.58 75.6479 1340.87 43.9072 1381.86 28.8843C1422.86 13.8572 1463.31 15.6195 1493.81 37.1411C1524.31 58.6627 1539.53 96.1774 1539.12 139.843C1538.71 183.496 1522.64 233.038 1490.9 278.027C1459.16 323.016 1417.87 354.757 1376.88 369.78C1335.88 384.807 1295.43 383.045 1264.93 361.523C1234.43 340.002 1219.21 302.487 1219.62 258.821C1220.03 215.168 1236.09 165.627 1267.84 120.637Z" stroke="white" stroke-width="5"/>
<ellipse cx="177.165" cy="344.219" rx="200.004" ry="139" transform="rotate(-28.8513 177.165 344.219)" fill="#BF46D7"/>
<ellipse cx="98.2512" cy="328.217" rx="200.004" ry="139" transform="rotate(-28.8513 98.2512 328.217)" fill="#BF46D7"/>
<ellipse cx="492.165" cy="416.219" rx="200.004" ry="139" transform="rotate(-28.8513 492.165 416.219)" fill="#BF46D7"/>
<ellipse cx="377.251" cy="364.257" rx="200.004" ry="139" transform="rotate(-28.8513 377.251 364.257)" fill="#BF46D7"/>
<ellipse cx="871.946" cy="459.566" rx="270.102" ry="141.871" transform="rotate(-30.8976 871.946 459.566)" fill="#BF46D7"/>
<ellipse cx="1159.54" cy="372.4" rx="270.102" ry="141.871" transform="rotate(-30.8976 1159.54 372.4)" fill="#BF46D7"/>
<ellipse cx="1447.13" cy="285.24" rx="270.102" ry="141.871" transform="rotate(-30.8976 1447.13 285.24)" fill="#BF46D7"/>
<ellipse cx="660.9" cy="480.825" rx="163.218" ry="89.1679" transform="rotate(-28.8513 660.9 480.825)" fill="#BF46D7"/>
</g>
<defs>
<clipPath id="clip0_447_19618">
<rect width="1440" height="638" fill="white"/>
</clipPath>
</defs>
</svg>
