<svg width="411" height="308" viewBox="0 0 411 308" fill="none" xmlns="http://www.w3.org/2000/svg">
<g clip-path="url(#clip0_525_20228)">
<ellipse cx="88.8306" cy="92.4588" rx="88.8306" ry="92.4588" transform="matrix(0.612382 -0.790562 0.40433 0.914613 -76.6719 134.074)" fill="#BF46D7"/>
<ellipse cx="88.8306" cy="92.4588" rx="88.8306" ry="92.4588" transform="matrix(0.612382 -0.790562 0.40433 0.914613 34.0469 156.277)" fill="#BF46D7"/>
<ellipse cx="70.1346" cy="104.92" rx="70.1346" ry="104.92" transform="matrix(0.957218 -0.289368 0.10297 0.994685 331.859 28.6914)" fill="#BF46D7"/>
<ellipse cx="70.1346" cy="104.92" rx="70.1346" ry="104.92" transform="matrix(0.957218 -0.289368 0.10297 0.994685 218.047 63.6211)" fill="#BF46D7"/>
<ellipse cx="70.1346" cy="104.92" rx="70.1346" ry="104.92" transform="matrix(0.957218 -0.289368 0.10297 0.994685 139.656 178.521)" fill="#BF46D7"/>
<ellipse cx="40.3532" cy="191.091" rx="80.7907" ry="67.4897" fill="#BF46D7"/>
<ellipse cx="121.15" cy="228.037" rx="80.7907" ry="67.4897" fill="#BF46D7"/>
<ellipse cx="240.072" cy="267.06" rx="80.7907" ry="67.4897" fill="#BF46D7"/>
<ellipse cx="295.939" cy="209.562" rx="80.7907" ry="67.4897" fill="#BF46D7"/>
<ellipse cx="342.181" cy="180.314" rx="80.7907" ry="67.4897" fill="#BF46D7"/>
<ellipse cx="367.728" cy="243.443" rx="80.7907" ry="67.4897" fill="#BF46D7"/>
<ellipse cx="108.783" cy="125.792" rx="108.783" ry="125.792" transform="matrix(0.957218 -0.289368 0.10297 0.994685 241.984 163.746)" fill="#BF46D7"/>
<ellipse cx="157.66" cy="164.047" rx="157.66" ry="164.047" transform="matrix(0.612382 -0.790562 0.40433 0.914613 -110.609 311.033)" fill="#BF46D7"/>
<path d="M20.2324 45.7666C34.9284 45.7666 48.2774 53.6252 57.9727 66.4189C67.6682 79.2133 73.6836 96.9161 73.6836 116.495C73.6836 136.074 67.6683 153.777 57.9727 166.571C48.2774 179.365 34.9284 187.225 20.2324 187.225C5.53641 187.225 -7.81256 179.365 -17.5078 166.571C-27.2034 153.777 -33.2178 136.074 -33.2178 116.495C-33.2178 96.9161 -27.2034 79.2133 -17.5078 66.4189C-7.81256 53.6252 5.53645 45.7666 20.2324 45.7666Z" stroke="white" stroke-width="1.21975"/>
<path d="M128.205 71.4287C159.685 71.4287 185.41 102.969 185.41 142.157C185.41 181.346 159.685 212.887 128.205 212.887C96.7253 212.886 71.001 181.346 71.001 142.157C71.001 102.969 96.7254 71.429 128.205 71.4287Z" stroke="white" stroke-width="1.21975"/>
<path d="M218.155 160.214C251.741 160.214 279.114 191.793 279.114 230.942C279.114 270.092 251.741 301.672 218.155 301.672C184.57 301.672 157.196 270.092 157.196 230.942C157.196 191.792 184.57 160.214 218.155 160.214Z" stroke="white" stroke-width="1.21975"/>
<path d="M268.93 63.9507C298.313 37.9271 330.604 45.0239 341.103 79.6396C351.601 114.255 336.378 163.435 306.996 189.459C277.613 215.482 245.322 208.385 234.823 173.769C224.324 139.153 239.547 89.9744 268.93 63.9507Z" stroke="white" stroke-width="1.21975"/>
<path d="M356.068 65.7599C365.644 42.5663 378.108 26.1843 390.496 18.4252C402.896 10.6593 415.134 11.5706 424.358 22.6925C433.583 33.8146 438.188 53.2128 438.064 75.7792C437.939 98.3256 433.086 123.884 423.51 147.078C413.933 170.271 401.469 186.654 389.08 194.413C376.681 202.179 364.442 201.266 355.218 190.144C345.994 179.022 341.388 159.625 341.513 137.059C341.637 114.513 346.491 88.9536 356.068 65.7599Z" stroke="white" stroke-width="1.21975"/>
<ellipse cx="72.2598" cy="65.651" rx="72.2598" ry="65.651" transform="matrix(0.7281 -0.68547 0.306839 0.951761 -44.0312 167.826)" fill="#BF46D7"/>
<ellipse cx="72.2598" cy="65.651" rx="72.2598" ry="65.651" transform="matrix(0.7281 -0.68547 0.306839 0.951761 -67.7422 159.621)" fill="#BF46D7"/>
<ellipse cx="72.2598" cy="65.651" rx="72.2598" ry="65.651" transform="matrix(0.7281 -0.68547 0.306839 0.951761 50.5625 204.775)" fill="#BF46D7"/>
<ellipse cx="72.2598" cy="65.651" rx="72.2598" ry="65.651" transform="matrix(0.7281 -0.68547 0.306839 0.951761 16.0547 178.107)" fill="#BF46D7"/>
<ellipse cx="99.5625" cy="66.1996" rx="99.5625" ry="66.1996" transform="matrix(0.69915 -0.714975 0.330512 0.943802 145.898 248.682)" fill="#BF46D7"/>
<ellipse cx="99.5625" cy="66.1996" rx="99.5625" ry="66.1996" transform="matrix(0.69915 -0.714975 0.330512 0.943802 232.273 203.949)" fill="#BF46D7"/>
<ellipse cx="99.5625" cy="66.1996" rx="99.5625" ry="66.1996" transform="matrix(0.69915 -0.714975 0.330512 0.943802 318.641 159.207)" fill="#BF46D7"/>
<ellipse cx="58.9693" cy="42.1148" rx="58.9693" ry="42.1148" transform="matrix(0.7281 -0.68547 0.306839 0.951761 118.141 251.232)" fill="#BF46D7"/>
</g>
<defs>
<clipPath id="clip0_525_20228">
<rect width="411" height="308" fill="white"/>
</clipPath>
</defs>
</svg>
