<svg width="890" height="286" viewBox="0 0 890 286" fill="none" xmlns="http://www.w3.org/2000/svg">
<path d="M888.812 144.766C889.788 143.79 889.788 142.207 888.812 141.23L872.902 125.32C871.926 124.344 870.343 124.344 869.367 125.32C868.39 126.297 868.39 127.88 869.367 128.856L883.509 142.998L869.367 157.14C868.39 158.116 868.39 159.699 869.367 160.676C870.343 161.652 871.926 161.652 872.902 160.676L888.812 144.766ZM47.9961 142.998V145.498H887.044V142.998V140.498H47.9961V142.998Z" fill="white"/>
<path d="M66.1826 73.998C66.2655 112.022 96.6735 142.83 134.206 142.917C96.673 143.004 66.2647 173.814 66.1826 211.839H66.1787C66.098 174.439 36.6794 144.021 0 142.947V142.888C36.679 141.814 66.0972 111.397 66.1787 73.998H66.1826Z" fill="white"/>
<mask id="path-3-inside-1_531_21010" fill="white">
<path d="M66.3486 87.7832C66.3287 88.391 66.3184 89.0015 66.3184 89.6143C66.3184 119.455 90.1102 143.644 119.459 143.645V143.647C90.1102 143.648 66.3184 167.839 66.3184 197.68C66.3184 197.701 66.3183 197.721 66.3184 197.742H66.3154C66.3155 197.721 66.3164 197.701 66.3164 197.68C66.3164 167.858 42.5547 143.679 13.2314 143.647C13.2311 143.646 13.2308 143.646 13.2305 143.645C42.5541 143.614 66.3163 119.436 66.3164 89.6143C66.3164 89.0015 66.3051 88.391 66.2852 87.7832H66.3486Z"/>
</mask>
<path d="M66.3486 87.7832L71.346 87.9469L71.5151 82.7832H66.3486V87.7832ZM66.3184 89.6143H61.3184V89.6143L66.3184 89.6143ZM119.459 143.645H124.459V138.645L119.459 138.645L119.459 143.645ZM119.459 143.647L119.459 148.647L124.459 148.647V143.647H119.459ZM66.3184 197.68H61.3184V197.68L66.3184 197.68ZM66.3184 197.742V202.742H71.324L71.3184 197.737L66.3184 197.742ZM66.3154 197.742L61.3154 197.737L61.3098 202.742H66.3154V197.742ZM66.3164 197.68L71.3164 197.68V197.68H66.3164ZM13.2314 143.647L8.46208 145.149L9.56206 148.644L13.2261 148.647L13.2314 143.647ZM13.2305 143.645L13.2252 138.645L6.41689 138.652L8.46119 145.146L13.2305 143.645ZM66.3164 89.6143L71.3164 89.6143V89.6143H66.3164ZM66.2852 87.7832V82.7832H61.1187L61.2878 87.9469L66.2852 87.7832ZM66.3486 87.7832L61.3513 87.6195C61.3297 88.2801 61.3184 88.9451 61.3184 89.6143H66.3184H71.3184C71.3184 89.0579 71.3278 88.502 71.346 87.9469L66.3486 87.7832ZM66.3184 89.6143L61.3184 89.6143C61.3184 122.138 87.2709 148.644 119.459 148.645L119.459 143.645L119.459 138.645C92.9495 138.644 71.3184 116.772 71.3184 89.6142L66.3184 89.6143ZM119.459 143.645H114.459V143.647H119.459H124.459V143.645H119.459ZM119.459 143.647L119.459 138.647C87.2707 138.648 61.3184 165.157 61.3184 197.68H66.3184H71.3184C71.3184 170.522 92.9497 148.648 119.459 148.647L119.459 143.647ZM66.3184 197.68L61.3184 197.68C61.3184 197.692 61.3183 197.724 61.3184 197.748L66.3184 197.742L71.3184 197.737C71.3183 197.719 71.3184 197.709 71.3184 197.68L66.3184 197.68ZM66.3184 197.742V192.742H66.3154V197.742V202.742H66.3184V197.742ZM66.3154 197.742L71.3154 197.748C71.3154 197.779 71.315 197.803 71.3148 197.815C71.3146 197.826 71.3144 197.835 71.3146 197.827C71.3147 197.823 71.3151 197.804 71.3155 197.781C71.3159 197.758 71.3164 197.722 71.3164 197.68L66.3164 197.68L61.3164 197.68C61.3164 197.648 61.3168 197.622 61.317 197.609C61.3171 197.602 61.3172 197.597 61.3173 197.595C61.3173 197.593 61.3173 197.592 61.3173 197.595C61.3172 197.597 61.3171 197.603 61.3169 197.609C61.3168 197.616 61.3166 197.626 61.3164 197.638C61.316 197.66 61.3155 197.695 61.3154 197.737L66.3154 197.742ZM66.3164 197.68H71.3164C71.3164 165.177 45.3969 138.682 13.2368 138.647L13.2314 143.647L13.2261 148.647C39.7124 148.676 61.3164 170.539 61.3164 197.68H66.3164ZM13.2314 143.647L18.0008 142.146C17.9945 142.126 17.9887 142.109 17.9838 142.093C17.9789 142.079 17.9747 142.066 17.9713 142.056C17.968 142.046 17.9653 142.038 17.9636 142.033C17.9628 142.03 17.9621 142.028 17.9616 142.027C17.9614 142.026 17.9612 142.026 17.9611 142.026C17.9611 142.025 17.961 142.025 17.961 142.025C17.9609 142.025 17.9609 142.025 17.9609 142.025C17.9607 142.024 17.9619 142.028 17.9633 142.032C17.9649 142.037 17.9675 142.044 17.9708 142.054C17.974 142.064 17.9782 142.076 17.983 142.091C17.9879 142.106 17.9935 142.123 17.9997 142.143L13.2305 143.645L8.46119 145.146C8.4675 145.166 8.47324 145.184 8.47815 145.199C8.48304 145.214 8.48731 145.226 8.49065 145.236C8.49396 145.246 8.49667 145.254 8.49833 145.259C8.49918 145.262 8.49987 145.264 8.5003 145.265C8.50052 145.266 8.5007 145.266 8.50081 145.266C8.50086 145.267 8.50091 145.267 8.50094 145.267C8.50097 145.267 8.50099 145.267 8.50099 145.267C8.50124 145.268 8.50001 145.264 8.49856 145.26C8.49697 145.255 8.49434 145.247 8.4911 145.238C8.48784 145.228 8.48364 145.215 8.47882 145.201C8.47399 145.186 8.46832 145.168 8.46208 145.149L13.2314 143.647ZM13.2305 143.645L13.2357 148.645C45.3961 148.611 71.3163 122.117 71.3164 89.6143L66.3164 89.6143L61.3164 89.6142C61.3163 116.755 39.7121 138.617 13.2252 138.645L13.2305 143.645ZM66.3164 89.6143H71.3164C71.3164 88.94 71.3039 88.2745 71.2825 87.6195L66.2852 87.7832L61.2878 87.9469C61.3062 88.5076 61.3164 89.063 61.3164 89.6143H66.3164ZM66.2852 87.7832V92.7832H66.3486V87.7832V82.7832H66.2852V87.7832Z" fill="#BF46D7" mask="url(#path-3-inside-1_531_21010)"/>
<path d="M251.986 275.147H233.023V275.146H251.986V275.147ZM242.506 51.002C242.624 101.763 285.595 142.889 338.63 142.999V143C285.594 143.11 242.623 184.239 242.506 235.001H242.504C242.389 185.076 200.822 144.47 148.996 143.039V142.96C200.821 141.529 242.388 100.926 242.504 51.002H242.506Z" fill="white"/>
<mask id="path-6-inside-2_531_21010" fill="white">
<path d="M242.743 69.4023C242.715 70.2135 242.699 71.028 242.699 71.8457C242.699 111.679 276.314 143.969 317.78 143.971V143.972C276.314 143.974 242.699 176.265 242.699 216.098C242.699 216.126 242.699 216.154 242.699 216.183C242.698 216.183 242.697 216.184 242.695 216.184C242.695 216.155 242.696 216.126 242.696 216.098C242.696 176.288 209.121 144.011 167.688 143.972L167.688 143.971C209.121 143.931 242.696 111.656 242.696 71.8457C242.696 71.028 242.68 70.2135 242.652 69.4023H242.743Z"/>
</mask>
<path d="M242.743 69.4023L247.74 69.5755L247.919 64.4023H242.743V69.4023ZM242.699 71.8457L237.699 71.8457V71.8457H242.699ZM317.78 143.971H322.78V138.971L317.781 138.971L317.78 143.971ZM317.78 143.972L317.781 148.972L322.78 148.971V143.972H317.78ZM242.699 216.098L237.699 216.098V216.098H242.699ZM242.699 216.183L242.928 221.177L247.705 220.959L247.699 216.177L242.699 216.183ZM242.695 216.184L237.695 216.178L237.689 221.418L242.924 221.178L242.695 216.184ZM242.696 216.098H247.696V216.098L242.696 216.098ZM167.688 143.972L164.153 147.507L165.615 148.97L167.684 148.972L167.688 143.972ZM167.688 143.971L167.683 138.971L155.628 138.982L164.152 147.506L167.688 143.971ZM242.696 71.8457H247.696V71.8457L242.696 71.8457ZM242.652 69.4023V64.4023H237.476L237.655 69.5755L242.652 69.4023ZM242.743 69.4023L237.746 69.2292C237.716 70.091 237.699 70.9636 237.699 71.8457L242.699 71.8457L247.699 71.8457C247.699 71.0924 247.714 70.336 247.74 69.5755L242.743 69.4023ZM242.699 71.8457H237.699C237.699 114.628 273.744 148.969 317.78 148.971L317.78 143.971L317.781 138.971C278.884 138.969 247.699 108.73 247.699 71.8457H242.699ZM317.78 143.971H312.78V143.972H317.78H322.78V143.971H317.78ZM317.78 143.972L317.78 138.972C273.744 138.974 237.699 173.316 237.699 216.098L242.699 216.098L247.699 216.098C247.699 179.214 278.884 148.973 317.781 148.972L317.78 143.972ZM242.699 216.098H237.699C237.699 216.117 237.699 216.157 237.699 216.189L242.699 216.183L247.699 216.177C247.699 216.152 247.699 216.134 247.699 216.098H242.699ZM242.699 216.183L242.471 211.188C242.345 211.194 242.226 211.204 242.117 211.217C242.008 211.229 241.908 211.245 241.816 211.261C241.725 211.278 241.641 211.295 241.567 211.312C241.493 211.33 241.427 211.347 241.369 211.363C241.311 211.379 241.261 211.394 241.219 211.407C241.177 211.42 241.141 211.431 241.114 211.441C241.086 211.45 241.065 211.457 241.051 211.462C241.045 211.464 241.039 211.466 241.036 211.467C241.034 211.468 241.033 211.468 241.032 211.469C241.032 211.469 241.031 211.469 241.031 211.469C241.031 211.469 241.031 211.469 241.031 211.469C241.031 211.469 241.031 211.469 241.031 211.469C241.031 211.469 241.031 211.469 241.031 211.469C241.03 211.469 241.033 211.468 241.036 211.467C241.039 211.466 241.044 211.464 241.051 211.462C241.064 211.457 241.086 211.45 241.113 211.441C241.14 211.432 241.175 211.42 241.217 211.407C241.259 211.394 241.309 211.379 241.367 211.363C241.424 211.348 241.491 211.33 241.565 211.313C241.639 211.296 241.722 211.278 241.813 211.262C241.904 211.246 242.005 211.23 242.114 211.218C242.223 211.205 242.341 211.195 242.466 211.189L242.695 216.184L242.924 221.178C243.05 221.173 243.168 221.162 243.277 221.15C243.386 221.137 243.487 221.121 243.579 221.105C243.67 221.089 243.753 221.071 243.827 221.054C243.902 221.037 243.968 221.019 244.026 221.003C244.083 220.988 244.134 220.973 244.176 220.959C244.218 220.946 244.254 220.935 244.281 220.926C244.308 220.917 244.33 220.909 244.343 220.904C244.35 220.902 244.355 220.9 244.359 220.899C244.36 220.898 244.362 220.898 244.363 220.898C244.363 220.897 244.363 220.897 244.364 220.897C244.364 220.897 244.364 220.897 244.364 220.897C244.364 220.897 244.364 220.897 244.364 220.897C244.364 220.897 244.364 220.897 244.364 220.897C244.364 220.897 244.362 220.898 244.359 220.899C244.356 220.9 244.35 220.902 244.344 220.904C244.331 220.909 244.309 220.916 244.282 220.925C244.255 220.934 244.219 220.946 244.177 220.959C244.135 220.972 244.085 220.987 244.028 221.003C243.97 221.019 243.904 221.036 243.83 221.053C243.756 221.07 243.673 221.088 243.581 221.104C243.49 221.121 243.39 221.136 243.281 221.149C243.172 221.161 243.054 221.172 242.928 221.177L242.699 216.183ZM242.695 216.184L247.695 216.19C247.695 216.208 247.695 216.222 247.695 216.227C247.695 216.231 247.695 216.234 247.695 216.224C247.695 216.218 247.696 216.201 247.696 216.181C247.696 216.161 247.696 216.132 247.696 216.098H242.696H237.696C237.696 216.078 237.696 216.063 237.697 216.057C237.697 216.052 237.697 216.049 237.697 216.057C237.696 216.062 237.696 216.079 237.696 216.097C237.696 216.117 237.695 216.145 237.695 216.178L242.695 216.184ZM242.696 216.098L247.696 216.098C247.696 173.341 211.694 139.014 167.693 138.972L167.688 143.972L167.684 148.972C206.548 149.009 237.696 179.235 237.696 216.098L242.696 216.098ZM167.688 143.972L171.224 140.436L171.223 140.435L167.688 143.971L164.152 147.506L164.153 147.507L167.688 143.972ZM167.688 143.971L167.692 148.971C211.694 148.929 247.696 114.603 247.696 71.8457H242.696H237.696C237.696 108.708 206.548 138.934 167.683 138.971L167.688 143.971ZM242.696 71.8457L247.696 71.8457C247.696 70.9636 247.679 70.091 247.649 69.2292L242.652 69.4023L237.655 69.5755C237.682 70.336 237.696 71.0924 237.696 71.8457L242.696 71.8457ZM242.652 69.4023V74.4023H242.743V69.4023V64.4023H242.652V69.4023Z" fill="#EECB1D" mask="url(#path-6-inside-2_531_21010)"/>
<path d="M455.257 30.9941C455.413 93.0611 512.966 143.348 584.001 143.485V143.488C512.966 143.626 455.412 193.916 455.257 255.983H455.249C455.096 194.936 399.417 145.283 329.996 143.536V143.438C399.416 141.692 455.095 92.0412 455.249 30.9941H455.257Z" fill="white"/>
<mask id="path-9-inside-3_531_21010" fill="white">
<path d="M455.563 53.502C455.526 54.4926 455.505 55.4876 455.505 56.4863C455.505 105.192 500.529 144.675 556.07 144.677V144.682C500.529 144.684 455.505 184.168 455.505 232.873C455.505 232.907 455.505 232.941 455.505 232.975C455.503 232.975 455.501 232.975 455.499 232.975C455.499 232.941 455.5 232.907 455.5 232.873C455.5 184.199 410.533 144.734 355.04 144.682C355.039 144.68 355.04 144.678 355.039 144.677C410.532 144.625 455.5 105.161 455.5 56.4863C455.5 55.4876 455.478 54.4927 455.44 53.502C455.462 53.502 455.483 53.5029 455.505 53.5029C455.524 53.5029 455.544 53.502 455.563 53.502Z"/>
</mask>
<path d="M455.563 53.502L460.56 53.6914L460.757 48.4994L455.561 48.502L455.563 53.502ZM455.505 56.4863H450.505V56.4863L455.505 56.4863ZM556.07 144.677H561.07V139.677L556.071 139.677L556.07 144.677ZM556.07 144.682L556.071 149.682L561.07 149.681V144.682H556.07ZM455.505 232.873H450.505V232.873H455.505ZM455.505 232.975L455.713 237.97L460.511 237.77L460.505 232.968L455.505 232.975ZM455.499 232.975L450.499 232.968L450.492 238.188L455.708 237.97L455.499 232.975ZM455.5 232.873H460.5V232.873H455.5ZM355.04 144.682L350.343 146.396L351.541 149.678L355.035 149.682L355.04 144.682ZM355.039 144.677L355.034 139.677L347.894 139.683L350.342 146.391L355.039 144.677ZM455.5 56.4863L460.5 56.4863V56.4863H455.5ZM455.44 53.502L455.443 48.502L450.247 48.4991L450.444 53.6914L455.44 53.502ZM455.505 53.5029V58.5029V58.5029V53.5029ZM455.563 53.502L450.567 53.3125C450.527 54.3591 450.505 55.4176 450.505 56.4863H455.505H460.505C460.505 55.5576 460.524 54.6262 460.56 53.6914L455.563 53.502ZM455.505 56.4863L450.505 56.4863C450.505 108.55 498.405 149.674 556.07 149.677L556.07 144.677L556.071 139.677C502.654 139.675 460.505 101.833 460.505 56.4863L455.505 56.4863ZM556.07 144.677H551.07V144.682H556.07H561.07V144.677H556.07ZM556.07 144.682L556.07 139.682C498.405 139.684 450.505 180.81 450.505 232.873H455.505H460.505C460.505 187.526 502.654 149.684 556.071 149.682L556.07 144.682ZM455.505 232.873H450.505C450.505 232.898 450.505 232.943 450.505 232.981L455.505 232.975L460.505 232.968C460.505 232.938 460.505 232.916 460.505 232.873H455.505ZM455.505 232.975L455.296 227.979C455.348 227.977 455.394 227.976 455.433 227.975C455.471 227.975 455.504 227.975 455.53 227.975C455.555 227.975 455.575 227.975 455.587 227.975C455.594 227.975 455.599 227.976 455.602 227.976C455.604 227.976 455.607 227.976 455.606 227.976C455.606 227.976 455.606 227.976 455.606 227.976C455.605 227.976 455.605 227.976 455.605 227.976C455.604 227.976 455.603 227.976 455.601 227.976C455.598 227.976 455.592 227.975 455.586 227.975C455.573 227.975 455.552 227.975 455.526 227.975C455.501 227.975 455.467 227.975 455.428 227.975C455.389 227.976 455.342 227.977 455.29 227.979L455.499 232.975L455.708 237.97C455.656 237.972 455.61 237.974 455.572 237.974C455.533 237.975 455.5 237.975 455.474 237.975C455.449 237.974 455.429 237.974 455.417 237.974C455.41 237.974 455.405 237.974 455.402 237.974C455.4 237.974 455.397 237.974 455.398 237.974C455.398 237.974 455.398 237.974 455.398 237.974C455.398 237.974 455.399 237.974 455.399 237.974C455.4 237.974 455.401 237.974 455.403 237.974C455.406 237.974 455.412 237.974 455.418 237.974C455.431 237.974 455.452 237.974 455.477 237.975C455.503 237.975 455.537 237.975 455.576 237.974C455.615 237.974 455.661 237.972 455.713 237.97L455.505 232.975ZM455.499 232.975L460.499 232.981C460.499 232.994 460.499 233.003 460.499 233.005C460.499 233.005 460.499 233.005 460.499 232.994C460.499 232.987 460.499 232.969 460.5 232.951C460.5 232.931 460.5 232.904 460.5 232.873H455.5H450.5C450.5 232.859 450.5 232.849 450.5 232.846C450.5 232.844 450.5 232.844 450.5 232.853C450.5 232.86 450.5 232.876 450.5 232.894C450.499 232.913 450.499 232.938 450.499 232.968L455.499 232.975ZM455.5 232.873H460.5C460.5 180.843 412.66 139.736 355.045 139.682L355.04 144.682L355.035 149.682C408.405 149.732 450.5 187.554 450.5 232.873H455.5ZM355.04 144.682L359.737 142.968C359.803 143.147 359.85 143.31 359.885 143.447C359.903 143.516 359.917 143.58 359.93 143.637C359.942 143.694 359.952 143.746 359.96 143.792C359.968 143.837 359.975 143.878 359.98 143.912C359.986 143.946 359.99 143.975 359.993 143.997C359.996 144.019 359.998 144.037 360 144.048C360 144.053 360.001 144.058 360.001 144.06C360.001 144.063 360.002 144.065 360.002 144.064C360.002 144.064 360.002 144.064 360.002 144.064C360.002 144.064 360.002 144.064 360.002 144.064C360.002 144.064 360.002 144.064 360.001 144.063C360.001 144.062 360.001 144.061 360.001 144.06C360.001 144.057 360 144.053 359.999 144.047C359.998 144.036 359.996 144.018 359.993 143.996C359.989 143.973 359.985 143.944 359.98 143.91C359.975 143.876 359.968 143.835 359.96 143.789C359.951 143.743 359.941 143.691 359.929 143.634C359.917 143.576 359.902 143.512 359.885 143.443C359.849 143.305 359.802 143.143 359.736 142.962L355.039 144.677L350.342 146.391C350.277 146.211 350.229 146.049 350.194 145.912C350.176 145.843 350.162 145.779 350.15 145.722C350.137 145.664 350.127 145.612 350.119 145.567C350.111 145.521 350.104 145.481 350.099 145.447C350.094 145.413 350.089 145.384 350.086 145.362C350.083 145.339 350.081 145.322 350.08 145.311C350.079 145.305 350.078 145.301 350.078 145.298C350.078 145.296 350.077 145.294 350.078 145.294C350.078 145.294 350.078 145.294 350.078 145.294C350.078 145.294 350.078 145.294 350.078 145.294C350.078 145.295 350.078 145.295 350.078 145.295C350.078 145.296 350.078 145.297 350.078 145.298C350.078 145.301 350.079 145.306 350.08 145.311C350.081 145.322 350.083 145.34 350.086 145.363C350.09 145.385 350.094 145.414 350.099 145.448C350.104 145.483 350.111 145.523 350.119 145.569C350.128 145.615 350.138 145.667 350.15 145.725C350.162 145.782 350.177 145.846 350.195 145.915C350.23 146.053 350.277 146.216 350.343 146.396L355.04 144.682ZM355.039 144.677L355.044 149.677C412.66 149.623 460.5 108.517 460.5 56.4863L455.5 56.4863L450.5 56.4863C450.5 101.805 408.404 139.627 355.034 139.677L355.039 144.677ZM455.5 56.4863H460.5C460.5 55.4145 460.476 54.3556 460.437 53.3125L455.44 53.502L450.444 53.6914C450.48 54.6297 450.5 55.5607 450.5 56.4863H455.5ZM455.44 53.502L455.438 58.502C455.407 58.5019 455.383 58.5016 455.371 58.5014C455.36 58.5012 455.352 58.501 455.36 58.5012C455.363 58.5012 455.382 58.5017 455.404 58.5021C455.428 58.5025 455.463 58.5029 455.505 58.5029V53.5029V48.5029C455.536 48.5029 455.56 48.5033 455.573 48.5035C455.584 48.5037 455.593 48.5039 455.586 48.5037C455.583 48.5037 455.564 48.5032 455.542 48.5028C455.519 48.5025 455.485 48.502 455.443 48.502L455.44 53.502ZM455.505 53.5029V58.5029C455.55 58.5029 455.588 58.5024 455.612 58.5019C455.625 58.5017 455.636 58.5014 455.643 58.5013C455.65 58.5011 455.657 58.5009 455.658 58.5009C455.662 58.5008 455.66 58.5009 455.658 58.5009C455.656 58.501 455.651 58.5011 455.643 58.5012C455.629 58.5015 455.601 58.5019 455.566 58.502L455.563 53.502L455.561 48.502C455.516 48.502 455.479 48.5025 455.455 48.503C455.442 48.5032 455.432 48.5035 455.425 48.5036C455.418 48.5038 455.412 48.5039 455.41 48.504C455.407 48.5041 455.408 48.504 455.411 48.504C455.413 48.5039 455.419 48.5038 455.427 48.5036C455.442 48.5034 455.469 48.5029 455.505 48.5029V53.5029Z" fill="#5FCE4E" mask="url(#path-9-inside-3_531_21010)"/>
<path d="M708.363 0C708.556 78.8167 779.021 142.674 865.993 142.852V142.854C779.019 143.032 708.552 206.895 708.363 285.715H708.352C708.166 208.192 639.995 145.139 555 142.916V142.792C639.993 140.569 708.162 77.5201 708.352 0H708.363Z" fill="white"/>
<mask id="path-12-inside-4_531_21010" fill="white">
<path d="M708.739 28.5781C708.693 29.8363 708.669 31.0998 708.669 32.3682C708.669 94.2212 763.8 144.363 831.808 144.363L831.81 144.362C831.81 144.364 831.81 144.366 831.81 144.367H831.808C763.8 144.367 708.669 194.508 708.669 256.361C708.669 256.405 708.669 256.449 708.669 256.493C708.667 256.493 708.665 256.493 708.663 256.493C708.663 256.449 708.664 256.405 708.664 256.361C708.664 194.548 653.604 144.432 585.657 144.367C585.657 144.366 585.657 144.364 585.656 144.362C653.604 144.298 708.664 94.1817 708.664 32.3682C708.664 31.0998 708.639 29.8364 708.593 28.5781C708.619 28.5781 708.646 28.5791 708.672 28.5791C708.694 28.5791 708.717 28.5781 708.739 28.5781Z"/>
</mask>
<path d="M708.739 28.5781L713.736 28.7608L713.926 23.5756L708.737 23.5781L708.739 28.5781ZM708.669 32.3682L703.669 32.3681V32.3682H708.669ZM831.808 144.363V149.363H832.988L834.044 148.835L831.808 144.363ZM831.81 144.362L836.81 144.363L836.81 136.272L829.574 139.89L831.81 144.362ZM831.81 144.367V149.367H836.809L836.81 144.367L831.81 144.367ZM708.669 256.361L703.669 256.361V256.361H708.669ZM708.669 256.493L708.885 261.488L713.675 261.281L713.669 256.487L708.669 256.493ZM708.663 256.493L703.663 256.487L703.656 261.715L708.88 261.488L708.663 256.493ZM708.664 256.361H713.664V256.361L708.664 256.361ZM585.657 144.367L580.941 146.027L582.115 149.364L585.652 149.367L585.657 144.367ZM585.656 144.362L585.652 139.362L578.598 139.369L580.94 146.022L585.656 144.362ZM708.664 32.3682H713.664V32.3681L708.664 32.3682ZM708.593 28.5781L708.596 23.5781L703.406 23.5752L703.596 28.7608L708.593 28.5781ZM708.672 28.5791V33.5791H708.672L708.672 28.5791ZM708.739 28.5781L703.743 28.3954C703.694 29.7115 703.669 31.0359 703.669 32.3681L708.669 32.3682L713.669 32.3682C713.669 31.1636 713.692 29.9612 713.736 28.7608L708.739 28.5781ZM708.669 32.3682H703.669C703.669 97.4184 761.496 149.363 831.808 149.363V144.363V139.363C766.105 139.363 713.669 91.0241 713.669 32.3682H708.669ZM831.808 144.363L834.044 148.835L834.046 148.834L831.81 144.362L829.574 139.89L829.572 139.891L831.808 144.363ZM831.81 144.362L826.81 144.362C826.81 144.363 826.81 144.367 826.81 144.367L831.81 144.367L836.81 144.367C836.81 144.364 836.81 144.365 836.81 144.363L831.81 144.362ZM831.81 144.367V139.367H831.808V144.367V149.367H831.81V144.367ZM831.808 144.367V139.367C761.496 139.367 703.669 191.311 703.669 256.361L708.669 256.361L713.669 256.361C713.669 197.706 766.105 149.367 831.808 149.367V144.367ZM708.669 256.361H703.669C703.669 256.396 703.669 256.452 703.669 256.499L708.669 256.493L713.669 256.487C713.669 256.447 713.669 256.414 713.669 256.361H708.669ZM708.669 256.493L708.453 251.498C708.506 251.496 708.554 251.494 708.594 251.494C708.634 251.493 708.668 251.493 708.695 251.493C708.721 251.493 708.742 251.494 708.755 251.494C708.761 251.494 708.766 251.494 708.769 251.494C708.772 251.494 708.775 251.494 708.774 251.494C708.774 251.494 708.774 251.494 708.774 251.494C708.773 251.494 708.773 251.494 708.773 251.494C708.772 251.494 708.77 251.494 708.769 251.494C708.765 251.494 708.76 251.494 708.753 251.494C708.74 251.494 708.718 251.493 708.692 251.493C708.665 251.493 708.63 251.493 708.589 251.494C708.549 251.494 708.501 251.496 708.447 251.498L708.663 256.493L708.88 261.488C708.826 261.491 708.778 261.492 708.738 261.493C708.698 261.493 708.664 261.493 708.638 261.493C708.611 261.493 708.59 261.493 708.578 261.492C708.571 261.492 708.566 261.492 708.563 261.492C708.56 261.492 708.557 261.492 708.558 261.492C708.558 261.492 708.558 261.492 708.558 261.492C708.559 261.492 708.559 261.492 708.559 261.492C708.56 261.492 708.562 261.492 708.563 261.492C708.567 261.492 708.572 261.492 708.579 261.492C708.592 261.493 708.614 261.493 708.64 261.493C708.667 261.493 708.702 261.493 708.743 261.493C708.783 261.492 708.831 261.491 708.885 261.488L708.669 256.493ZM708.663 256.493L713.663 256.499C713.663 256.506 713.663 256.509 713.663 256.481C713.664 256.462 713.664 256.414 713.664 256.361H708.664H703.664C703.664 256.352 703.664 256.348 703.664 256.373C703.664 256.39 703.663 256.437 703.663 256.487L708.663 256.493ZM708.664 256.361L713.664 256.361C713.664 191.353 655.912 139.434 585.662 139.367L585.657 144.367L585.652 149.367C651.296 149.43 703.664 197.743 703.664 256.361L708.664 256.361ZM585.657 144.367L590.374 142.708C590.432 142.874 590.475 143.024 590.507 143.151C590.523 143.215 590.537 143.274 590.548 143.327C590.559 143.38 590.568 143.428 590.576 143.471C590.584 143.513 590.59 143.55 590.595 143.582C590.6 143.613 590.604 143.64 590.607 143.661C590.61 143.681 590.612 143.698 590.613 143.708C590.614 143.713 590.615 143.717 590.615 143.72C590.615 143.722 590.615 143.724 590.615 143.723C590.615 143.723 590.615 143.723 590.615 143.723C590.615 143.723 590.615 143.723 590.615 143.723C590.615 143.723 590.615 143.723 590.615 143.722C590.615 143.722 590.615 143.721 590.615 143.719C590.615 143.717 590.614 143.712 590.613 143.707C590.612 143.697 590.61 143.68 590.607 143.66C590.604 143.639 590.6 143.611 590.595 143.58C590.59 143.548 590.583 143.51 590.576 143.468C590.568 143.426 590.559 143.377 590.547 143.324C590.536 143.271 590.523 143.212 590.506 143.148C590.475 143.02 590.431 142.869 590.373 142.703L585.656 144.362L580.94 146.022C580.881 145.856 580.838 145.705 580.806 145.578C580.79 145.514 580.777 145.456 580.766 145.402C580.754 145.349 580.745 145.301 580.737 145.259C580.73 145.217 580.723 145.179 580.718 145.148C580.713 145.116 580.71 145.089 580.707 145.069C580.704 145.048 580.701 145.032 580.7 145.022C580.699 145.016 580.699 145.012 580.699 145.01C580.698 145.008 580.698 145.006 580.698 145.006C580.698 145.006 580.698 145.006 580.698 145.006C580.698 145.006 580.698 145.006 580.698 145.006C580.698 145.007 580.698 145.007 580.698 145.007C580.698 145.008 580.698 145.009 580.699 145.01C580.699 145.013 580.699 145.017 580.7 145.022C580.701 145.032 580.704 145.049 580.707 145.07C580.71 145.091 580.714 145.118 580.719 145.15C580.724 145.181 580.73 145.219 580.738 145.261C580.745 145.304 580.755 145.352 580.766 145.405C580.777 145.459 580.791 145.518 580.807 145.582C580.839 145.709 580.882 145.86 580.941 146.027L585.657 144.367ZM585.656 144.362L585.661 149.362C655.912 149.296 713.664 97.3767 713.664 32.3682H708.664H703.664C703.664 90.9867 651.296 139.3 585.652 139.362L585.656 144.362ZM708.664 32.3682L713.664 32.3681C713.664 31.0334 713.637 29.7089 713.589 28.3954L708.593 28.5781L703.596 28.7608C703.64 29.9638 703.664 31.1661 703.664 32.3682L708.664 32.3682ZM708.593 28.5781L708.59 33.5781C708.567 33.5781 708.55 33.5779 708.543 33.5778C708.536 33.5777 708.532 33.5776 708.541 33.5778C708.546 33.5779 708.564 33.5782 708.584 33.5785C708.605 33.5788 708.635 33.5791 708.672 33.5791V28.5791V23.5791C708.695 23.5791 708.713 23.5793 708.721 23.5794C708.727 23.5795 708.732 23.5796 708.724 23.5795C708.72 23.5794 708.702 23.579 708.682 23.5788C708.662 23.5785 708.632 23.5781 708.596 23.5781L708.593 28.5781ZM708.672 28.5791L708.672 33.5791C708.713 33.5791 708.747 33.5787 708.769 33.5783C708.791 33.578 708.81 33.5775 708.814 33.5774C708.822 33.5773 708.814 33.5775 708.804 33.5776C708.793 33.5778 708.771 33.5781 708.742 33.5781L708.739 28.5781L708.737 23.5781C708.697 23.5781 708.663 23.5786 708.64 23.579C708.62 23.5793 708.601 23.5797 708.598 23.5798C708.59 23.5799 708.598 23.5798 708.608 23.5796C708.62 23.5794 708.642 23.5791 708.672 23.5791L708.672 28.5791Z" fill="#B50D0D" mask="url(#path-12-inside-4_531_21010)"/>
<path d="M709.046 37C709.179 96.3122 756.99 144.366 816 144.494V144.502C756.989 144.63 709.177 192.687 709.046 252.001H709.041C708.912 193.666 662.664 146.221 605 144.548V144.448C662.662 142.775 708.911 95.3329 709.041 37H709.046Z" fill="#B50D0D"/>
<mask id="path-15-inside-5_531_21010" fill="white">
<path d="M709.274 61.5859C709.399 107.972 746.671 145.546 792.663 145.63C746.671 145.714 709.399 183.287 709.274 229.673C709.15 183.287 671.879 145.714 625.887 145.63C671.879 145.546 709.15 107.972 709.274 61.5859ZM709.321 58.5C709.293 59.3701 709.277 60.2435 709.274 61.1201C709.272 60.2435 709.256 59.3701 709.228 58.5H709.321Z"/>
</mask>
<path d="M709.274 61.5859L714.274 61.5726L704.274 61.5726L709.274 61.5859ZM792.663 145.63L792.672 150.63V140.63L792.663 145.63ZM709.274 229.673L704.274 229.686H714.274L709.274 229.673ZM625.887 145.63L625.878 140.63L625.878 150.63L625.887 145.63ZM709.321 58.5L714.319 58.6648L714.489 53.5H709.321V58.5ZM709.274 61.1201L704.274 61.1336L714.274 61.1336L709.274 61.1201ZM709.228 58.5V53.5H704.06L704.23 58.6648L709.228 58.5ZM709.274 61.5859L704.274 61.5993C704.406 110.697 743.868 150.541 792.654 150.63L792.663 145.63L792.672 140.63C749.474 140.551 714.391 105.247 714.274 61.5726L709.274 61.5859ZM792.663 145.63L792.654 140.63C743.868 140.719 704.406 180.562 704.274 229.659L709.274 229.673L714.274 229.686C714.392 186.012 749.474 150.709 792.672 150.63L792.663 145.63ZM709.274 229.673L714.274 229.659C714.142 180.562 674.682 140.719 625.896 140.63L625.887 145.63L625.878 150.63C669.076 150.709 704.157 186.012 704.274 229.686L709.274 229.673ZM625.887 145.63L625.896 150.63C674.682 150.541 714.143 110.697 714.274 61.5993L709.274 61.5859L704.274 61.5726C704.158 105.248 669.076 140.551 625.878 140.63L625.887 145.63ZM709.321 58.5L704.324 58.3352C704.294 59.2549 704.277 60.1788 704.274 61.1067L709.274 61.1201L714.274 61.1336C714.277 60.3082 714.292 59.4853 714.319 58.6648L709.321 58.5ZM709.274 61.1201L714.274 61.1067C714.272 60.1788 714.255 59.255 714.225 58.3352L709.228 58.5L704.23 58.6648C704.257 59.4853 704.272 60.3082 704.274 61.1336L709.274 61.1201ZM709.228 58.5V63.5H709.321V58.5V53.5H709.228V58.5Z" fill="#B50D0D" mask="url(#path-15-inside-5_531_21010)"/>
<path d="M65.8916 100C65.946 124.553 86.1124 144.445 111.003 144.5V144.501C86.1127 144.556 65.9465 164.449 65.8916 189.002H65.8857C65.8317 164.854 46.3234 145.214 22 144.521V144.48C46.3237 143.788 65.8322 124.149 65.8857 100H65.8916Z" fill="#BF46D7"/>
<mask id="path-18-inside-6_531_21010" fill="white">
<path d="M66.0049 108.9C65.9917 109.293 65.9834 109.687 65.9834 110.083C65.9836 129.338 81.7399 144.948 101.185 144.969C81.7399 144.989 65.9835 160.6 65.9834 179.855C65.9834 179.869 65.9834 179.883 65.9834 179.896H65.9824C65.9824 179.883 65.9834 179.869 65.9834 179.855C65.9833 160.6 50.2261 144.989 30.7812 144.969C50.2261 144.949 65.9832 129.338 65.9834 110.083C65.9834 109.687 65.9732 109.293 65.96 108.9C65.9677 108.9 65.9757 108.901 65.9834 108.901C65.9906 108.901 65.9977 108.9 66.0049 108.9Z"/>
</mask>
<path d="M66.0049 108.9L71.0021 109.068L71.176 103.897L66.0019 103.9L66.0049 108.9ZM101.185 144.969L101.19 149.969V139.969L101.185 144.969ZM65.9834 179.896V184.896H70.9892L70.9834 179.891L65.9834 179.896ZM65.9824 179.896L60.9824 179.891L60.9766 184.896H65.9824V179.896ZM30.7812 144.969L30.7761 139.969L30.7761 149.969L30.7812 144.969ZM65.96 108.9L65.9631 103.9L60.7888 103.897L60.9628 109.068L65.96 108.9ZM65.9834 108.901V113.901H65.9834L65.9834 108.901ZM66.0049 108.9L61.0077 108.732C60.9931 109.166 60.9834 109.618 60.9834 110.083H65.9834H70.9834C70.9834 109.756 70.9902 109.42 71.0021 109.068L66.0049 108.9ZM65.9834 110.083L60.9834 110.083C60.9836 132.145 79.0232 149.946 101.179 149.969L101.185 144.969L101.19 139.969C84.4567 139.951 70.9836 126.531 70.9834 110.083L65.9834 110.083ZM101.185 144.969L101.179 139.969C79.0229 139.992 60.9835 157.794 60.9834 179.855L65.9834 179.855L70.9834 179.855C70.9835 163.407 84.4568 149.986 101.19 149.969L101.185 144.969ZM65.9834 179.855H60.9834C60.9834 179.861 60.9834 179.885 60.9834 179.902L65.9834 179.896L70.9834 179.891C70.9834 179.88 70.9834 179.877 70.9834 179.855H65.9834ZM65.9834 179.896V174.896H65.9824V179.896V184.896H65.9834V179.896ZM65.9824 179.896L70.9824 179.902C70.9824 179.955 70.9814 179.997 70.9808 180.021C70.9804 180.033 70.9801 180.043 70.98 180.048C70.9798 180.052 70.9797 180.056 70.9798 180.053C70.9798 180.052 70.9801 180.044 70.9804 180.036C70.9807 180.027 70.9811 180.014 70.9815 179.998C70.9823 179.966 70.9834 179.916 70.9834 179.855H65.9834H60.9834C60.9834 179.801 60.9843 179.758 60.985 179.734C60.9853 179.721 60.9856 179.711 60.9858 179.706C60.986 179.701 60.9861 179.697 60.986 179.699C60.986 179.7 60.9858 179.707 60.9855 179.714C60.9852 179.723 60.9848 179.736 60.9844 179.751C60.9836 179.782 60.9825 179.831 60.9824 179.891L65.9824 179.896ZM65.9834 179.855L70.9834 179.855C70.9833 157.793 52.9429 139.992 30.7864 139.969L30.7812 144.969L30.7761 149.969C47.5094 149.986 60.9833 163.407 60.9834 179.855L65.9834 179.855ZM30.7812 144.969L30.7864 149.969C52.9427 149.946 70.9832 132.145 70.9834 110.083L65.9834 110.083L60.9834 110.083C60.9832 126.531 47.5095 139.952 30.7761 139.969L30.7812 144.969ZM65.9834 110.083H70.9834C70.9834 109.605 70.9711 109.147 70.9571 108.732L65.96 108.9L60.9628 109.068C60.9753 109.439 60.9834 109.77 60.9834 110.083H65.9834ZM65.96 108.9L65.9568 113.9C65.9059 113.9 65.861 113.9 65.8239 113.899C65.7868 113.897 65.7553 113.896 65.7314 113.895C65.7078 113.894 65.6888 113.893 65.678 113.892C65.6724 113.892 65.6679 113.892 65.6655 113.891C65.6633 113.891 65.6615 113.891 65.6625 113.891C65.6626 113.891 65.6655 113.891 65.6688 113.892C65.6724 113.892 65.6779 113.892 65.6846 113.893C65.6978 113.893 65.7189 113.895 65.7448 113.896C65.7709 113.897 65.8046 113.898 65.8439 113.899C65.8833 113.901 65.9303 113.901 65.9834 113.901V108.901V103.901C66.0346 103.901 66.0797 103.902 66.1171 103.903C66.1544 103.904 66.1862 103.906 66.2103 103.907C66.2343 103.908 66.2535 103.909 66.2646 103.909C66.2703 103.91 66.2749 103.91 66.2775 103.91C66.2798 103.91 66.2817 103.911 66.2809 103.91C66.2809 103.91 66.2781 103.91 66.2749 103.91C66.2715 103.91 66.2661 103.91 66.2595 103.909C66.2467 103.908 66.2258 103.907 66.2001 103.906C66.1743 103.905 66.1409 103.903 66.1018 103.902C66.0627 103.901 66.016 103.9 65.9631 103.9L65.96 108.9ZM65.9834 108.901L65.9834 113.901C66.0406 113.901 66.0915 113.9 66.1346 113.899C66.1775 113.898 66.2144 113.896 66.2432 113.895C66.2717 113.893 66.295 113.892 66.3094 113.891C66.3168 113.89 66.3229 113.89 66.3267 113.89C66.3303 113.89 66.3334 113.889 66.3335 113.889C66.3345 113.889 66.3323 113.889 66.3298 113.89C66.3269 113.89 66.3219 113.89 66.3155 113.891C66.3031 113.891 66.2819 113.893 66.2554 113.894C66.2287 113.895 66.1938 113.897 66.1529 113.898C66.1119 113.899 66.0631 113.9 66.0079 113.9L66.0049 108.9L66.0019 103.9C65.9449 103.9 65.8943 103.901 65.8515 103.903C65.8088 103.904 65.7721 103.906 65.7436 103.907C65.7153 103.909 65.6923 103.91 65.6781 103.911C65.6709 103.911 65.6649 103.912 65.6612 103.912C65.6593 103.912 65.6577 103.912 65.6567 103.912C65.6557 103.912 65.6548 103.912 65.6548 103.912C65.654 103.912 65.6562 103.912 65.6589 103.912C65.6618 103.912 65.667 103.912 65.6735 103.911C65.6862 103.91 65.7076 103.909 65.7344 103.908C65.7613 103.906 65.7965 103.905 65.8376 103.904C65.8788 103.902 65.9279 103.901 65.9834 103.901L65.9834 108.901Z" fill="#BF46D7" mask="url(#path-18-inside-6_531_21010)"/>
<path d="M243.165 79C243.244 114.895 272.727 143.977 309.115 144.058V144.059C272.727 144.139 243.246 173.222 243.165 209.116H243.159C243.08 173.813 214.56 145.099 179 144.087V144.03C214.56 143.018 243.081 114.305 243.159 79H243.165Z" fill="#EECB1D"/>
<mask id="path-21-inside-7_531_21010" fill="white">
<path d="M243.33 92.0137C243.311 92.5877 243.301 93.1645 243.301 93.7432C243.301 121.887 266.326 144.705 294.745 144.745C266.326 144.785 243.301 167.605 243.301 195.749C243.301 195.769 243.301 195.789 243.301 195.81C243.299 195.81 243.298 195.81 243.296 195.811C243.296 195.79 243.297 195.77 243.297 195.749C243.297 167.605 220.271 144.784 191.852 144.745C220.271 144.706 243.297 121.887 243.297 93.7432C243.297 93.1645 243.286 92.5877 243.267 92.0137C243.277 92.0137 243.288 92.0146 243.299 92.0146C243.309 92.0146 243.32 92.0137 243.33 92.0137Z"/>
</mask>
<path d="M243.33 92.0137L248.327 92.1818L248.501 87.0106L243.327 87.0137L243.33 92.0137ZM243.301 93.7432H238.301V93.7432L243.301 93.7432ZM294.745 144.745L294.752 149.745V139.745L294.745 144.745ZM243.301 195.749L238.301 195.749V195.749H243.301ZM243.301 195.81L243.536 200.804L248.306 200.579L248.301 195.804L243.301 195.81ZM243.296 195.811L238.296 195.805L238.29 201.052L243.532 200.805L243.296 195.811ZM243.297 195.749H248.297V195.749L243.297 195.749ZM191.852 144.745L191.845 139.745L191.845 149.745L191.852 144.745ZM243.297 93.7432L248.297 93.7432V93.7432H243.297ZM243.267 92.0137L243.27 87.0137L238.095 87.0105L238.269 92.1818L243.267 92.0137ZM243.299 92.0146V97.0146H243.299L243.299 92.0146ZM243.33 92.0137L238.333 91.8455C238.312 92.4742 238.301 93.107 238.301 93.7432H243.301H248.301C248.301 93.222 248.31 92.7012 248.327 92.1818L243.33 92.0137ZM243.301 93.7432L238.301 93.7432C238.301 124.693 263.609 149.702 294.738 149.745L294.745 144.745L294.752 139.745C269.044 139.709 248.301 119.081 248.301 93.7431L243.301 93.7432ZM294.745 144.745L294.738 139.745C263.608 139.789 238.301 164.799 238.301 195.749L243.301 195.749L248.301 195.749C248.301 170.411 269.044 149.781 294.752 149.745L294.745 144.745ZM243.301 195.749H238.301C238.301 195.761 238.301 195.792 238.301 195.815L243.301 195.81L248.301 195.804C248.301 195.787 248.301 195.777 248.301 195.749H243.301ZM243.301 195.81L243.066 190.815C242.877 190.824 242.711 190.843 242.572 190.863C242.503 190.873 242.439 190.884 242.382 190.895C242.325 190.905 242.274 190.916 242.229 190.926C242.184 190.936 242.144 190.945 242.111 190.953C242.078 190.961 242.05 190.968 242.028 190.974C242.007 190.98 241.99 190.984 241.979 190.987C241.974 190.989 241.969 190.99 241.967 190.991C241.965 190.991 241.964 190.991 241.964 190.992C241.963 190.992 241.963 190.992 241.963 190.992C241.963 190.992 241.963 190.992 241.963 190.992C241.962 190.992 241.962 190.992 241.962 190.992C241.962 190.992 241.964 190.991 241.966 190.991C241.969 190.99 241.973 190.989 241.978 190.987C241.989 190.985 242.006 190.98 242.027 190.974C242.049 190.969 242.077 190.962 242.109 190.953C242.142 190.945 242.182 190.936 242.226 190.926C242.271 190.917 242.322 190.906 242.379 190.895C242.435 190.885 242.499 190.874 242.568 190.864C242.706 190.843 242.872 190.825 243.06 190.816L243.296 195.811L243.532 200.805C243.72 200.796 243.886 200.778 244.025 200.757C244.094 200.747 244.158 200.736 244.215 200.725C244.272 200.715 244.323 200.704 244.368 200.694C244.413 200.685 244.452 200.675 244.485 200.667C244.518 200.659 244.547 200.652 244.568 200.646C244.59 200.64 244.607 200.636 244.618 200.633C244.623 200.631 244.627 200.63 244.63 200.629C244.631 200.629 244.632 200.629 244.633 200.629C244.634 200.628 244.634 200.628 244.634 200.628C244.634 200.628 244.634 200.628 244.634 200.628C244.634 200.628 244.634 200.628 244.634 200.628C244.635 200.628 244.633 200.629 244.63 200.629C244.628 200.63 244.624 200.631 244.618 200.633C244.608 200.636 244.591 200.64 244.569 200.646C244.548 200.651 244.52 200.659 244.487 200.667C244.454 200.675 244.415 200.684 244.37 200.694C244.326 200.704 244.275 200.714 244.218 200.725C244.161 200.735 244.097 200.746 244.028 200.756C243.89 200.777 243.724 200.795 243.536 200.804L243.301 195.81ZM243.296 195.811L248.296 195.817C248.296 195.848 248.295 195.873 248.295 195.886C248.295 195.896 248.295 195.905 248.295 195.897C248.295 195.894 248.296 195.874 248.296 195.852C248.296 195.828 248.297 195.792 248.297 195.749H243.297H238.297C238.297 195.716 238.297 195.691 238.297 195.677C238.298 195.67 238.298 195.665 238.298 195.663C238.298 195.661 238.298 195.659 238.298 195.662C238.298 195.664 238.298 195.67 238.297 195.676C238.297 195.683 238.297 195.693 238.297 195.705C238.296 195.728 238.296 195.763 238.296 195.805L243.296 195.811ZM243.297 195.749L248.297 195.749C248.297 164.799 222.989 139.788 191.858 139.745L191.852 144.745L191.845 149.745C217.553 149.781 238.297 170.411 238.297 195.749L243.297 195.749ZM191.852 144.745L191.858 149.745C222.988 149.702 248.297 124.694 248.297 93.7432L243.297 93.7432L238.297 93.7431C238.297 119.081 217.553 139.71 191.845 139.745L191.852 144.745ZM243.297 93.7432H248.297C248.297 93.1016 248.285 92.4683 248.264 91.8455L243.267 92.0137L238.269 92.1818C238.287 92.7071 238.297 93.2274 238.297 93.7432H243.297ZM243.267 92.0137L243.264 97.0137C243.228 97.0136 243.196 97.0132 243.169 97.0127C243.143 97.0122 243.121 97.0115 243.104 97.0109C243.087 97.0103 243.074 97.0098 243.066 97.0095C243.06 97.0092 243.054 97.0089 243.057 97.0091C243.057 97.0091 243.065 97.0094 243.075 97.0099C243.085 97.0103 243.102 97.011 243.121 97.0116C243.141 97.0123 243.167 97.013 243.196 97.0136C243.225 97.0142 243.26 97.0146 243.299 97.0146V92.0146V87.0146C243.335 87.0146 243.367 87.0151 243.394 87.0156C243.42 87.0161 243.443 87.0168 243.46 87.0174C243.477 87.0179 243.491 87.0185 243.498 87.0188C243.505 87.0191 243.511 87.0194 243.509 87.0193C243.508 87.0193 243.506 87.0192 243.503 87.019C243.501 87.0189 243.496 87.0187 243.491 87.0185C243.481 87.0181 243.465 87.0174 243.446 87.0167C243.426 87.0161 243.401 87.0153 243.372 87.0147C243.343 87.0142 243.308 87.0137 243.27 87.0137L243.267 92.0137ZM243.299 92.0146L243.299 97.0146C243.339 97.0146 243.374 97.0142 243.405 97.0136C243.435 97.013 243.461 97.0122 243.481 97.0114C243.502 97.0107 243.518 97.01 243.529 97.0096C243.539 97.0091 243.548 97.0087 243.548 97.0087C243.551 97.0086 243.545 97.0089 243.538 97.0092C243.53 97.0095 243.516 97.0101 243.498 97.0107C243.481 97.0113 243.458 97.0121 243.43 97.0126C243.403 97.0132 243.37 97.0136 243.333 97.0137L243.33 92.0137L243.327 87.0137C243.287 87.0137 243.252 87.0142 243.222 87.0148C243.192 87.0154 243.166 87.0162 243.146 87.0169C243.126 87.0176 243.109 87.0183 243.099 87.0188C243.094 87.019 243.089 87.0192 243.086 87.0194C243.084 87.0195 243.081 87.0196 243.081 87.0196C243.08 87.0197 243.081 87.0196 243.083 87.0195C243.085 87.0194 243.088 87.0193 243.092 87.0191C243.1 87.0188 243.114 87.0182 243.132 87.0176C243.15 87.0169 243.173 87.0162 243.201 87.0156C243.228 87.0151 243.261 87.0146 243.299 87.0146L243.299 92.0146Z" fill="#EECB1D" mask="url(#path-21-inside-7_531_21010)"/>
<path d="M454.887 63.9258C455.056 108.505 493.117 144.604 540.083 144.7V144.705C493.117 144.802 455.057 180.9 454.887 225.479C454.719 181.634 417.898 145.992 372 144.739V144.666C417.898 143.414 454.72 107.772 454.887 63.9258Z" fill="#5FCE4E"/>
<mask id="path-24-inside-8_531_21010" fill="white">
<path d="M455.105 79.9922C455.081 80.7057 455.067 81.4223 455.067 82.1416C455.067 117.164 484.86 145.555 521.611 145.558V145.559C484.86 145.561 455.067 173.953 455.067 208.976C455.067 209 455.067 209.025 455.067 209.05H455.065C455.065 209.025 455.066 209 455.066 208.976C455.066 173.971 425.305 145.59 388.579 145.559L388.578 145.558C425.304 145.526 455.066 117.147 455.066 82.1416C455.066 81.4223 455.052 80.7058 455.027 79.9922H455.105Z"/>
</mask>
<path d="M455.105 79.9922L457.767 80.0852L457.863 77.3289H455.105V79.9922ZM455.067 82.1416L452.404 82.1416V82.1416H455.067ZM521.611 145.558H524.275V142.895L521.612 142.894L521.611 145.558ZM521.611 145.559L521.612 148.222L524.275 148.222V145.559H521.611ZM455.067 208.976L452.404 208.976V208.976H455.067ZM455.067 209.05V211.713H457.734L457.731 209.047L455.067 209.05ZM455.065 209.05L452.402 209.047L452.399 211.713H455.065V209.05ZM455.066 208.976H457.73V208.976L455.066 208.976ZM388.579 145.559L386.696 147.442L387.475 148.221L388.577 148.222L388.579 145.559ZM388.578 145.558L388.576 142.894L382.154 142.9L386.695 147.441L388.578 145.558ZM455.066 82.1416H457.73V82.1416L455.066 82.1416ZM455.027 79.9922V77.3289H452.269L452.366 80.0852L455.027 79.9922ZM455.105 79.9922L452.444 79.8992C452.418 80.6423 452.404 81.3898 452.404 82.1416L455.067 82.1416L457.731 82.1416C457.731 81.4547 457.743 80.7692 457.767 80.0852L455.105 79.9922ZM455.067 82.1416H452.404C452.404 118.755 483.511 148.218 521.611 148.221L521.611 145.558L521.612 142.894C486.208 142.892 457.731 115.574 457.731 82.1416H455.067ZM521.611 145.558H518.948V145.559H521.611H524.275V145.558H521.611ZM521.611 145.559L521.611 142.895C483.511 142.898 452.404 172.363 452.404 208.976L455.067 208.976L457.731 208.976C457.731 175.543 486.208 148.224 521.612 148.222L521.611 145.559ZM455.067 208.976H452.404C452.404 208.996 452.404 209.026 452.404 209.053L455.067 209.05L457.731 209.047C457.731 209.024 457.731 209.005 457.731 208.976H455.067ZM455.067 209.05V206.387H455.065V209.05V211.713H455.067V209.05ZM455.065 209.05L457.729 209.053C457.729 209.063 457.729 209.07 457.729 209.071C457.729 209.072 457.729 209.072 457.729 209.064C457.729 209.059 457.729 209.046 457.729 209.033C457.729 209.018 457.73 208.998 457.73 208.976H455.066H452.403C452.403 208.965 452.403 208.958 452.403 208.956C452.403 208.954 452.403 208.954 452.403 208.961C452.403 208.966 452.403 208.978 452.403 208.991C452.402 209.005 452.402 209.024 452.402 209.047L455.065 209.05ZM455.066 208.976L457.73 208.976C457.73 172.381 426.654 142.928 388.581 142.895L388.579 145.559L388.577 148.222C423.955 148.252 452.403 175.56 452.403 208.976L455.066 208.976ZM388.579 145.559L390.462 143.675L390.461 143.674L388.578 145.558L386.695 147.441L386.696 147.442L388.579 145.559ZM388.578 145.558L388.58 148.221C426.654 148.188 457.73 118.736 457.73 82.1416H455.066H452.403C452.403 115.557 423.954 142.864 388.576 142.894L388.578 145.558ZM455.066 82.1416L457.73 82.1416C457.73 81.3875 457.715 80.6398 457.689 79.8992L455.027 79.9922L452.366 80.0852C452.39 80.7718 452.403 81.457 452.403 82.1416L455.066 82.1416ZM455.027 79.9922V82.6554H455.105V79.9922V77.3289H455.027V79.9922Z" fill="#5FCE4E" mask="url(#path-24-inside-8_531_21010)"/>
</svg>
