<svg width="890" height="286" viewBox="0 0 890 286" fill="none" xmlns="http://www.w3.org/2000/svg">
<path d="M888.812 144.766C889.788 143.79 889.788 142.207 888.812 141.23L872.902 125.32C871.926 124.344 870.343 124.344 869.367 125.32C868.39 126.297 868.39 127.88 869.367 128.856L883.509 142.998L869.367 157.14C868.39 158.116 868.39 159.699 869.367 160.676C870.343 161.652 871.926 161.652 872.902 160.676L888.812 144.766ZM47.9961 142.998V145.498H887.044V142.998V140.498H47.9961V142.998Z" fill="white"/>
<path d="M66.1826 73.998C66.2655 112.022 96.6735 142.83 134.206 142.917C96.673 143.004 66.2647 173.814 66.1826 211.839H66.1787C66.098 174.439 36.6794 144.021 0 142.947V142.888C36.679 141.814 66.0972 111.397 66.1787 73.998H66.1826Z" fill="white"/>
<mask id="path-3-inside-1_531_21007" fill="white">
<path d="M66.3486 87.7832C66.3287 88.391 66.3184 89.0015 66.3184 89.6143C66.3184 119.455 90.1102 143.644 119.459 143.645V143.647C90.1102 143.648 66.3184 167.839 66.3184 197.68C66.3184 197.701 66.3183 197.721 66.3184 197.742H66.3154C66.3155 197.721 66.3164 197.701 66.3164 197.68C66.3164 167.858 42.5547 143.679 13.2314 143.647C13.2311 143.646 13.2308 143.646 13.2305 143.645C42.5541 143.614 66.3163 119.436 66.3164 89.6143C66.3164 89.0015 66.3051 88.391 66.2852 87.7832H66.3486Z"/>
</mask>
<path d="M66.3486 87.7832L71.346 87.9469L71.5151 82.7832H66.3486V87.7832ZM66.3184 89.6143H61.3184V89.6143L66.3184 89.6143ZM119.459 143.645H124.459V138.645L119.459 138.645L119.459 143.645ZM119.459 143.647L119.459 148.647L124.459 148.647V143.647H119.459ZM66.3184 197.68H61.3184V197.68L66.3184 197.68ZM66.3184 197.742V202.742H71.324L71.3184 197.737L66.3184 197.742ZM66.3154 197.742L61.3154 197.737L61.3098 202.742H66.3154V197.742ZM66.3164 197.68L71.3164 197.68V197.68H66.3164ZM13.2314 143.647L8.46208 145.149L9.56206 148.644L13.2261 148.647L13.2314 143.647ZM13.2305 143.645L13.2252 138.645L6.41689 138.652L8.46119 145.146L13.2305 143.645ZM66.3164 89.6143L71.3164 89.6143V89.6143H66.3164ZM66.2852 87.7832V82.7832H61.1187L61.2878 87.9469L66.2852 87.7832ZM66.3486 87.7832L61.3513 87.6195C61.3297 88.2801 61.3184 88.9451 61.3184 89.6143H66.3184H71.3184C71.3184 89.0579 71.3278 88.502 71.346 87.9469L66.3486 87.7832ZM66.3184 89.6143L61.3184 89.6143C61.3184 122.138 87.2709 148.644 119.459 148.645L119.459 143.645L119.459 138.645C92.9495 138.644 71.3184 116.772 71.3184 89.6142L66.3184 89.6143ZM119.459 143.645H114.459V143.647H119.459H124.459V143.645H119.459ZM119.459 143.647L119.459 138.647C87.2707 138.648 61.3184 165.157 61.3184 197.68H66.3184H71.3184C71.3184 170.522 92.9497 148.648 119.459 148.647L119.459 143.647ZM66.3184 197.68L61.3184 197.68C61.3184 197.692 61.3183 197.724 61.3184 197.748L66.3184 197.742L71.3184 197.737C71.3183 197.719 71.3184 197.709 71.3184 197.68L66.3184 197.68ZM66.3184 197.742V192.742H66.3154V197.742V202.742H66.3184V197.742ZM66.3154 197.742L71.3154 197.748C71.3154 197.779 71.315 197.803 71.3148 197.815C71.3146 197.826 71.3144 197.835 71.3146 197.827C71.3147 197.823 71.3151 197.804 71.3155 197.781C71.3159 197.758 71.3164 197.722 71.3164 197.68L66.3164 197.68L61.3164 197.68C61.3164 197.648 61.3168 197.622 61.317 197.609C61.3171 197.602 61.3172 197.597 61.3173 197.595C61.3173 197.593 61.3173 197.592 61.3173 197.595C61.3172 197.597 61.3171 197.603 61.3169 197.609C61.3168 197.616 61.3166 197.626 61.3164 197.638C61.316 197.66 61.3155 197.695 61.3154 197.737L66.3154 197.742ZM66.3164 197.68H71.3164C71.3164 165.177 45.3969 138.682 13.2368 138.647L13.2314 143.647L13.2261 148.647C39.7124 148.676 61.3164 170.539 61.3164 197.68H66.3164ZM13.2314 143.647L18.0008 142.146C17.9945 142.126 17.9887 142.109 17.9838 142.093C17.9789 142.079 17.9747 142.066 17.9713 142.056C17.968 142.046 17.9653 142.038 17.9636 142.033C17.9628 142.03 17.9621 142.028 17.9616 142.027C17.9614 142.026 17.9612 142.026 17.9611 142.026C17.9611 142.025 17.961 142.025 17.961 142.025C17.9609 142.025 17.9609 142.025 17.9609 142.025C17.9607 142.024 17.9619 142.028 17.9633 142.032C17.9649 142.037 17.9675 142.044 17.9708 142.054C17.974 142.064 17.9782 142.076 17.983 142.091C17.9879 142.106 17.9935 142.123 17.9997 142.143L13.2305 143.645L8.46119 145.146C8.4675 145.166 8.47324 145.184 8.47815 145.199C8.48304 145.214 8.48731 145.226 8.49065 145.236C8.49396 145.246 8.49667 145.254 8.49833 145.259C8.49918 145.262 8.49987 145.264 8.5003 145.265C8.50052 145.266 8.5007 145.266 8.50081 145.266C8.50086 145.267 8.50091 145.267 8.50094 145.267C8.50097 145.267 8.50099 145.267 8.50099 145.267C8.50124 145.268 8.50001 145.264 8.49856 145.26C8.49697 145.255 8.49434 145.247 8.4911 145.238C8.48784 145.228 8.48364 145.215 8.47882 145.201C8.47399 145.186 8.46832 145.168 8.46208 145.149L13.2314 143.647ZM13.2305 143.645L13.2357 148.645C45.3961 148.611 71.3163 122.117 71.3164 89.6143L66.3164 89.6143L61.3164 89.6142C61.3163 116.755 39.7121 138.617 13.2252 138.645L13.2305 143.645ZM66.3164 89.6143H71.3164C71.3164 88.94 71.3039 88.2745 71.2825 87.6195L66.2852 87.7832L61.2878 87.9469C61.3062 88.5076 61.3164 89.063 61.3164 89.6143H66.3164ZM66.2852 87.7832V92.7832H66.3486V87.7832V82.7832H66.2852V87.7832Z" fill="#BF46D7" mask="url(#path-3-inside-1_531_21007)"/>
<path d="M251.986 275.147H233.023V275.146H251.986V275.147ZM242.506 51.002C242.624 101.763 285.595 142.889 338.63 142.999V143C285.594 143.11 242.623 184.239 242.506 235.001H242.504C242.389 185.076 200.822 144.47 148.996 143.039V142.96C200.821 141.529 242.388 100.926 242.504 51.002H242.506Z" fill="white"/>
<mask id="path-6-inside-2_531_21007" fill="white">
<path d="M242.743 69.4023C242.715 70.2135 242.699 71.028 242.699 71.8457C242.699 111.679 276.314 143.969 317.78 143.971V143.972C276.314 143.974 242.699 176.265 242.699 216.098C242.699 216.126 242.699 216.154 242.699 216.183C242.698 216.183 242.697 216.184 242.695 216.184C242.695 216.155 242.696 216.126 242.696 216.098C242.696 176.288 209.121 144.011 167.688 143.972L167.688 143.971C209.121 143.931 242.696 111.656 242.696 71.8457C242.696 71.028 242.68 70.2135 242.652 69.4023H242.743Z"/>
</mask>
<path d="M242.743 69.4023L247.74 69.5755L247.919 64.4023H242.743V69.4023ZM242.699 71.8457L237.699 71.8457V71.8457H242.699ZM317.78 143.971H322.78V138.971L317.781 138.971L317.78 143.971ZM317.78 143.972L317.781 148.972L322.78 148.971V143.972H317.78ZM242.699 216.098L237.699 216.098V216.098H242.699ZM242.699 216.183L242.928 221.177L247.705 220.959L247.699 216.177L242.699 216.183ZM242.695 216.184L237.695 216.178L237.689 221.418L242.924 221.178L242.695 216.184ZM242.696 216.098H247.696V216.098L242.696 216.098ZM167.688 143.972L164.153 147.507L165.615 148.97L167.684 148.972L167.688 143.972ZM167.688 143.971L167.683 138.971L155.628 138.982L164.152 147.506L167.688 143.971ZM242.696 71.8457H247.696V71.8457L242.696 71.8457ZM242.652 69.4023V64.4023H237.476L237.655 69.5755L242.652 69.4023ZM242.743 69.4023L237.746 69.2292C237.716 70.091 237.699 70.9636 237.699 71.8457L242.699 71.8457L247.699 71.8457C247.699 71.0924 247.714 70.336 247.74 69.5755L242.743 69.4023ZM242.699 71.8457H237.699C237.699 114.628 273.744 148.969 317.78 148.971L317.78 143.971L317.781 138.971C278.884 138.969 247.699 108.73 247.699 71.8457H242.699ZM317.78 143.971H312.78V143.972H317.78H322.78V143.971H317.78ZM317.78 143.972L317.78 138.972C273.744 138.974 237.699 173.316 237.699 216.098L242.699 216.098L247.699 216.098C247.699 179.214 278.884 148.973 317.781 148.972L317.78 143.972ZM242.699 216.098H237.699C237.699 216.117 237.699 216.157 237.699 216.189L242.699 216.183L247.699 216.177C247.699 216.152 247.699 216.134 247.699 216.098H242.699ZM242.699 216.183L242.471 211.188C242.345 211.194 242.226 211.204 242.117 211.217C242.008 211.229 241.908 211.245 241.816 211.261C241.725 211.278 241.641 211.295 241.567 211.312C241.493 211.33 241.427 211.347 241.369 211.363C241.311 211.379 241.261 211.394 241.219 211.407C241.177 211.42 241.141 211.431 241.114 211.441C241.086 211.45 241.065 211.457 241.051 211.462C241.045 211.464 241.039 211.466 241.036 211.467C241.034 211.468 241.033 211.468 241.032 211.469C241.032 211.469 241.031 211.469 241.031 211.469C241.031 211.469 241.031 211.469 241.031 211.469C241.031 211.469 241.031 211.469 241.031 211.469C241.031 211.469 241.031 211.469 241.031 211.469C241.03 211.469 241.033 211.468 241.036 211.467C241.039 211.466 241.044 211.464 241.051 211.462C241.064 211.457 241.086 211.45 241.113 211.441C241.14 211.432 241.175 211.42 241.217 211.407C241.259 211.394 241.309 211.379 241.367 211.363C241.424 211.348 241.491 211.33 241.565 211.313C241.639 211.296 241.722 211.278 241.813 211.262C241.904 211.246 242.005 211.23 242.114 211.218C242.223 211.205 242.341 211.195 242.466 211.189L242.695 216.184L242.924 221.178C243.05 221.173 243.168 221.162 243.277 221.15C243.386 221.137 243.487 221.121 243.579 221.105C243.67 221.089 243.753 221.071 243.827 221.054C243.902 221.037 243.968 221.019 244.026 221.003C244.083 220.988 244.134 220.973 244.176 220.959C244.218 220.946 244.254 220.935 244.281 220.926C244.308 220.917 244.33 220.909 244.343 220.904C244.35 220.902 244.355 220.9 244.359 220.899C244.36 220.898 244.362 220.898 244.363 220.898C244.363 220.897 244.363 220.897 244.364 220.897C244.364 220.897 244.364 220.897 244.364 220.897C244.364 220.897 244.364 220.897 244.364 220.897C244.364 220.897 244.364 220.897 244.364 220.897C244.364 220.897 244.362 220.898 244.359 220.899C244.356 220.9 244.35 220.902 244.344 220.904C244.331 220.909 244.309 220.916 244.282 220.925C244.255 220.934 244.219 220.946 244.177 220.959C244.135 220.972 244.085 220.987 244.028 221.003C243.97 221.019 243.904 221.036 243.83 221.053C243.756 221.07 243.673 221.088 243.581 221.104C243.49 221.121 243.39 221.136 243.281 221.149C243.172 221.161 243.054 221.172 242.928 221.177L242.699 216.183ZM242.695 216.184L247.695 216.19C247.695 216.208 247.695 216.222 247.695 216.227C247.695 216.231 247.695 216.234 247.695 216.224C247.695 216.218 247.696 216.201 247.696 216.181C247.696 216.161 247.696 216.132 247.696 216.098H242.696H237.696C237.696 216.078 237.696 216.063 237.697 216.057C237.697 216.052 237.697 216.049 237.697 216.057C237.696 216.062 237.696 216.079 237.696 216.097C237.696 216.117 237.695 216.145 237.695 216.178L242.695 216.184ZM242.696 216.098L247.696 216.098C247.696 173.341 211.694 139.014 167.693 138.972L167.688 143.972L167.684 148.972C206.548 149.009 237.696 179.235 237.696 216.098L242.696 216.098ZM167.688 143.972L171.224 140.436L171.223 140.435L167.688 143.971L164.152 147.506L164.153 147.507L167.688 143.972ZM167.688 143.971L167.692 148.971C211.694 148.929 247.696 114.603 247.696 71.8457H242.696H237.696C237.696 108.708 206.548 138.934 167.683 138.971L167.688 143.971ZM242.696 71.8457L247.696 71.8457C247.696 70.9636 247.679 70.091 247.649 69.2292L242.652 69.4023L237.655 69.5755C237.682 70.336 237.696 71.0924 237.696 71.8457L242.696 71.8457ZM242.652 69.4023V74.4023H242.743V69.4023V64.4023H242.652V69.4023Z" fill="#EECB1D" mask="url(#path-6-inside-2_531_21007)"/>
<path d="M455.257 30.9941C455.413 93.0611 512.966 143.348 584.001 143.485V143.488C512.966 143.626 455.412 193.916 455.257 255.983H455.249C455.096 194.936 399.417 145.283 329.996 143.536V143.438C399.416 141.692 455.095 92.0412 455.249 30.9941H455.257Z" fill="white"/>
<mask id="path-9-inside-3_531_21007" fill="white">
<path d="M455.563 53.502C455.526 54.4926 455.505 55.4876 455.505 56.4863C455.505 105.192 500.529 144.675 556.07 144.677V144.682C500.529 144.684 455.505 184.168 455.505 232.873C455.505 232.907 455.505 232.941 455.505 232.975C455.503 232.975 455.501 232.975 455.499 232.975C455.499 232.941 455.5 232.907 455.5 232.873C455.5 184.199 410.533 144.734 355.04 144.682C355.039 144.68 355.04 144.678 355.039 144.677C410.532 144.625 455.5 105.161 455.5 56.4863C455.5 55.4876 455.478 54.4927 455.44 53.502C455.462 53.502 455.483 53.5029 455.505 53.5029C455.524 53.5029 455.544 53.502 455.563 53.502Z"/>
</mask>
<path d="M455.563 53.502L460.56 53.6914L460.757 48.4994L455.561 48.502L455.563 53.502ZM455.505 56.4863H450.505V56.4863L455.505 56.4863ZM556.07 144.677H561.07V139.677L556.071 139.677L556.07 144.677ZM556.07 144.682L556.071 149.682L561.07 149.681V144.682H556.07ZM455.505 232.873H450.505V232.873H455.505ZM455.505 232.975L455.713 237.97L460.511 237.77L460.505 232.968L455.505 232.975ZM455.499 232.975L450.499 232.968L450.492 238.188L455.708 237.97L455.499 232.975ZM455.5 232.873H460.5V232.873H455.5ZM355.04 144.682L350.343 146.396L351.541 149.678L355.035 149.682L355.04 144.682ZM355.039 144.677L355.034 139.677L347.894 139.683L350.342 146.391L355.039 144.677ZM455.5 56.4863L460.5 56.4863V56.4863H455.5ZM455.44 53.502L455.443 48.502L450.247 48.4991L450.444 53.6914L455.44 53.502ZM455.505 53.5029V58.5029V58.5029V53.5029ZM455.563 53.502L450.567 53.3125C450.527 54.3591 450.505 55.4176 450.505 56.4863H455.505H460.505C460.505 55.5576 460.524 54.6262 460.56 53.6914L455.563 53.502ZM455.505 56.4863L450.505 56.4863C450.505 108.55 498.405 149.674 556.07 149.677L556.07 144.677L556.071 139.677C502.654 139.675 460.505 101.833 460.505 56.4863L455.505 56.4863ZM556.07 144.677H551.07V144.682H556.07H561.07V144.677H556.07ZM556.07 144.682L556.07 139.682C498.405 139.684 450.505 180.81 450.505 232.873H455.505H460.505C460.505 187.526 502.654 149.684 556.071 149.682L556.07 144.682ZM455.505 232.873H450.505C450.505 232.898 450.505 232.943 450.505 232.981L455.505 232.975L460.505 232.968C460.505 232.938 460.505 232.916 460.505 232.873H455.505ZM455.505 232.975L455.296 227.979C455.348 227.977 455.394 227.976 455.433 227.975C455.471 227.975 455.504 227.975 455.53 227.975C455.555 227.975 455.575 227.975 455.587 227.975C455.594 227.975 455.599 227.976 455.602 227.976C455.604 227.976 455.607 227.976 455.606 227.976C455.606 227.976 455.606 227.976 455.606 227.976C455.605 227.976 455.605 227.976 455.605 227.976C455.604 227.976 455.603 227.976 455.601 227.976C455.598 227.976 455.592 227.975 455.586 227.975C455.573 227.975 455.552 227.975 455.526 227.975C455.501 227.975 455.467 227.975 455.428 227.975C455.389 227.976 455.342 227.977 455.29 227.979L455.499 232.975L455.708 237.97C455.656 237.972 455.61 237.974 455.572 237.974C455.533 237.975 455.5 237.975 455.474 237.975C455.449 237.974 455.429 237.974 455.417 237.974C455.41 237.974 455.405 237.974 455.402 237.974C455.4 237.974 455.397 237.974 455.398 237.974C455.398 237.974 455.398 237.974 455.398 237.974C455.398 237.974 455.399 237.974 455.399 237.974C455.4 237.974 455.401 237.974 455.403 237.974C455.406 237.974 455.412 237.974 455.418 237.974C455.431 237.974 455.452 237.974 455.477 237.975C455.503 237.975 455.537 237.975 455.576 237.974C455.615 237.974 455.661 237.972 455.713 237.97L455.505 232.975ZM455.499 232.975L460.499 232.981C460.499 232.994 460.499 233.003 460.499 233.005C460.499 233.005 460.499 233.005 460.499 232.994C460.499 232.987 460.499 232.969 460.5 232.951C460.5 232.931 460.5 232.904 460.5 232.873H455.5H450.5C450.5 232.859 450.5 232.849 450.5 232.846C450.5 232.844 450.5 232.844 450.5 232.853C450.5 232.86 450.5 232.876 450.5 232.894C450.499 232.913 450.499 232.938 450.499 232.968L455.499 232.975ZM455.5 232.873H460.5C460.5 180.843 412.66 139.736 355.045 139.682L355.04 144.682L355.035 149.682C408.405 149.732 450.5 187.554 450.5 232.873H455.5ZM355.04 144.682L359.737 142.968C359.803 143.147 359.85 143.31 359.885 143.447C359.903 143.516 359.917 143.58 359.93 143.637C359.942 143.694 359.952 143.746 359.96 143.792C359.968 143.837 359.975 143.878 359.98 143.912C359.986 143.946 359.99 143.975 359.993 143.997C359.996 144.019 359.998 144.037 360 144.048C360 144.053 360.001 144.058 360.001 144.06C360.001 144.063 360.002 144.065 360.002 144.064C360.002 144.064 360.002 144.064 360.002 144.064C360.002 144.064 360.002 144.064 360.002 144.064C360.002 144.064 360.002 144.064 360.001 144.063C360.001 144.062 360.001 144.061 360.001 144.06C360.001 144.057 360 144.053 359.999 144.047C359.998 144.036 359.996 144.018 359.993 143.996C359.989 143.973 359.985 143.944 359.98 143.91C359.975 143.876 359.968 143.835 359.96 143.789C359.951 143.743 359.941 143.691 359.929 143.634C359.917 143.576 359.902 143.512 359.885 143.443C359.849 143.305 359.802 143.143 359.736 142.962L355.039 144.677L350.342 146.391C350.277 146.211 350.229 146.049 350.194 145.912C350.176 145.843 350.162 145.779 350.15 145.722C350.137 145.664 350.127 145.612 350.119 145.567C350.111 145.521 350.104 145.481 350.099 145.447C350.094 145.413 350.089 145.384 350.086 145.362C350.083 145.339 350.081 145.322 350.08 145.311C350.079 145.305 350.078 145.301 350.078 145.298C350.078 145.296 350.077 145.294 350.078 145.294C350.078 145.294 350.078 145.294 350.078 145.294C350.078 145.294 350.078 145.294 350.078 145.294C350.078 145.295 350.078 145.295 350.078 145.295C350.078 145.296 350.078 145.297 350.078 145.298C350.078 145.301 350.079 145.306 350.08 145.311C350.081 145.322 350.083 145.34 350.086 145.363C350.09 145.385 350.094 145.414 350.099 145.448C350.104 145.483 350.111 145.523 350.119 145.569C350.128 145.615 350.138 145.667 350.15 145.725C350.162 145.782 350.177 145.846 350.195 145.915C350.23 146.053 350.277 146.216 350.343 146.396L355.04 144.682ZM355.039 144.677L355.044 149.677C412.66 149.623 460.5 108.517 460.5 56.4863L455.5 56.4863L450.5 56.4863C450.5 101.805 408.404 139.627 355.034 139.677L355.039 144.677ZM455.5 56.4863H460.5C460.5 55.4145 460.476 54.3556 460.437 53.3125L455.44 53.502L450.444 53.6914C450.48 54.6297 450.5 55.5607 450.5 56.4863H455.5ZM455.44 53.502L455.438 58.502C455.407 58.5019 455.383 58.5016 455.371 58.5014C455.36 58.5012 455.352 58.501 455.36 58.5012C455.363 58.5012 455.382 58.5017 455.404 58.5021C455.428 58.5025 455.463 58.5029 455.505 58.5029V53.5029V48.5029C455.536 48.5029 455.56 48.5033 455.573 48.5035C455.584 48.5037 455.593 48.5039 455.586 48.5037C455.583 48.5037 455.564 48.5032 455.542 48.5028C455.519 48.5025 455.485 48.502 455.443 48.502L455.44 53.502ZM455.505 53.5029V58.5029C455.55 58.5029 455.588 58.5024 455.612 58.5019C455.625 58.5017 455.636 58.5014 455.643 58.5013C455.65 58.5011 455.657 58.5009 455.658 58.5009C455.662 58.5008 455.66 58.5009 455.658 58.5009C455.656 58.501 455.651 58.5011 455.643 58.5012C455.629 58.5015 455.601 58.5019 455.566 58.502L455.563 53.502L455.561 48.502C455.516 48.502 455.479 48.5025 455.455 48.503C455.442 48.5032 455.432 48.5035 455.425 48.5036C455.418 48.5038 455.412 48.5039 455.41 48.504C455.407 48.5041 455.408 48.504 455.411 48.504C455.413 48.5039 455.419 48.5038 455.427 48.5036C455.442 48.5034 455.469 48.5029 455.505 48.5029V53.5029Z" fill="#5FCE4E" mask="url(#path-9-inside-3_531_21007)"/>
<path d="M708.363 0C708.556 78.8167 779.021 142.674 865.993 142.852V142.854C779.019 143.032 708.552 206.895 708.363 285.715H708.352C708.166 208.192 639.995 145.139 555 142.916V142.792C639.993 140.569 708.162 77.5201 708.352 0H708.363Z" fill="white"/>
<mask id="path-12-inside-4_531_21007" fill="white">
<path d="M708.739 28.5781C708.693 29.8363 708.669 31.0998 708.669 32.3682C708.669 94.2212 763.8 144.363 831.808 144.363L831.81 144.362C831.81 144.364 831.81 144.366 831.81 144.367H831.808C763.8 144.367 708.669 194.508 708.669 256.361C708.669 256.405 708.669 256.449 708.669 256.493C708.667 256.493 708.665 256.493 708.663 256.493C708.663 256.449 708.664 256.405 708.664 256.361C708.664 194.548 653.604 144.432 585.657 144.367C585.657 144.366 585.657 144.364 585.656 144.362C653.604 144.298 708.664 94.1817 708.664 32.3682C708.664 31.0998 708.639 29.8364 708.593 28.5781C708.619 28.5781 708.646 28.5791 708.672 28.5791C708.694 28.5791 708.717 28.5781 708.739 28.5781Z"/>
</mask>
<path d="M708.739 28.5781L713.736 28.7608L713.926 23.5756L708.737 23.5781L708.739 28.5781ZM708.669 32.3682L703.669 32.3681V32.3682H708.669ZM831.808 144.363V149.363H832.988L834.044 148.835L831.808 144.363ZM831.81 144.362L836.81 144.363L836.81 136.272L829.574 139.89L831.81 144.362ZM831.81 144.367V149.367H836.809L836.81 144.367L831.81 144.367ZM708.669 256.361L703.669 256.361V256.361H708.669ZM708.669 256.493L708.885 261.488L713.675 261.281L713.669 256.487L708.669 256.493ZM708.663 256.493L703.663 256.487L703.656 261.715L708.88 261.488L708.663 256.493ZM708.664 256.361H713.664V256.361L708.664 256.361ZM585.657 144.367L580.941 146.027L582.115 149.364L585.652 149.367L585.657 144.367ZM585.656 144.362L585.652 139.362L578.598 139.369L580.94 146.022L585.656 144.362ZM708.664 32.3682H713.664V32.3681L708.664 32.3682ZM708.593 28.5781L708.596 23.5781L703.406 23.5752L703.596 28.7608L708.593 28.5781ZM708.672 28.5791V33.5791H708.672L708.672 28.5791ZM708.739 28.5781L703.743 28.3954C703.694 29.7115 703.669 31.0359 703.669 32.3681L708.669 32.3682L713.669 32.3682C713.669 31.1636 713.692 29.9612 713.736 28.7608L708.739 28.5781ZM708.669 32.3682H703.669C703.669 97.4184 761.496 149.363 831.808 149.363V144.363V139.363C766.105 139.363 713.669 91.0241 713.669 32.3682H708.669ZM831.808 144.363L834.044 148.835L834.046 148.834L831.81 144.362L829.574 139.89L829.572 139.891L831.808 144.363ZM831.81 144.362L826.81 144.362C826.81 144.363 826.81 144.367 826.81 144.367L831.81 144.367L836.81 144.367C836.81 144.364 836.81 144.365 836.81 144.363L831.81 144.362ZM831.81 144.367V139.367H831.808V144.367V149.367H831.81V144.367ZM831.808 144.367V139.367C761.496 139.367 703.669 191.311 703.669 256.361L708.669 256.361L713.669 256.361C713.669 197.706 766.105 149.367 831.808 149.367V144.367ZM708.669 256.361H703.669C703.669 256.396 703.669 256.452 703.669 256.499L708.669 256.493L713.669 256.487C713.669 256.447 713.669 256.414 713.669 256.361H708.669ZM708.669 256.493L708.453 251.498C708.506 251.496 708.554 251.494 708.594 251.494C708.634 251.493 708.668 251.493 708.695 251.493C708.721 251.493 708.742 251.494 708.755 251.494C708.761 251.494 708.766 251.494 708.769 251.494C708.772 251.494 708.775 251.494 708.774 251.494C708.774 251.494 708.774 251.494 708.774 251.494C708.773 251.494 708.773 251.494 708.773 251.494C708.772 251.494 708.77 251.494 708.769 251.494C708.765 251.494 708.76 251.494 708.753 251.494C708.74 251.494 708.718 251.493 708.692 251.493C708.665 251.493 708.63 251.493 708.589 251.494C708.549 251.494 708.501 251.496 708.447 251.498L708.663 256.493L708.88 261.488C708.826 261.491 708.778 261.492 708.738 261.493C708.698 261.493 708.664 261.493 708.638 261.493C708.611 261.493 708.59 261.493 708.578 261.492C708.571 261.492 708.566 261.492 708.563 261.492C708.56 261.492 708.557 261.492 708.558 261.492C708.558 261.492 708.558 261.492 708.558 261.492C708.559 261.492 708.559 261.492 708.559 261.492C708.56 261.492 708.562 261.492 708.563 261.492C708.567 261.492 708.572 261.492 708.579 261.492C708.592 261.493 708.614 261.493 708.64 261.493C708.667 261.493 708.702 261.493 708.743 261.493C708.783 261.492 708.831 261.491 708.885 261.488L708.669 256.493ZM708.663 256.493L713.663 256.499C713.663 256.506 713.663 256.509 713.663 256.481C713.664 256.462 713.664 256.414 713.664 256.361H708.664H703.664C703.664 256.352 703.664 256.348 703.664 256.373C703.664 256.39 703.663 256.437 703.663 256.487L708.663 256.493ZM708.664 256.361L713.664 256.361C713.664 191.353 655.912 139.434 585.662 139.367L585.657 144.367L585.652 149.367C651.296 149.43 703.664 197.743 703.664 256.361L708.664 256.361ZM585.657 144.367L590.374 142.708C590.432 142.874 590.475 143.024 590.507 143.151C590.523 143.215 590.537 143.274 590.548 143.327C590.559 143.38 590.568 143.428 590.576 143.471C590.584 143.513 590.59 143.55 590.595 143.582C590.6 143.613 590.604 143.64 590.607 143.661C590.61 143.681 590.612 143.698 590.613 143.708C590.614 143.713 590.615 143.717 590.615 143.72C590.615 143.722 590.615 143.724 590.615 143.723C590.615 143.723 590.615 143.723 590.615 143.723C590.615 143.723 590.615 143.723 590.615 143.723C590.615 143.723 590.615 143.723 590.615 143.722C590.615 143.722 590.615 143.721 590.615 143.719C590.615 143.717 590.614 143.712 590.613 143.707C590.612 143.697 590.61 143.68 590.607 143.66C590.604 143.639 590.6 143.611 590.595 143.58C590.59 143.548 590.583 143.51 590.576 143.468C590.568 143.426 590.559 143.377 590.547 143.324C590.536 143.271 590.523 143.212 590.506 143.148C590.475 143.02 590.431 142.869 590.373 142.703L585.656 144.362L580.94 146.022C580.881 145.856 580.838 145.705 580.806 145.578C580.79 145.514 580.777 145.456 580.766 145.402C580.754 145.349 580.745 145.301 580.737 145.259C580.73 145.217 580.723 145.179 580.718 145.148C580.713 145.116 580.71 145.089 580.707 145.069C580.704 145.048 580.701 145.032 580.7 145.022C580.699 145.016 580.699 145.012 580.699 145.01C580.698 145.008 580.698 145.006 580.698 145.006C580.698 145.006 580.698 145.006 580.698 145.006C580.698 145.006 580.698 145.006 580.698 145.006C580.698 145.007 580.698 145.007 580.698 145.007C580.698 145.008 580.698 145.009 580.699 145.01C580.699 145.013 580.699 145.017 580.7 145.022C580.701 145.032 580.704 145.049 580.707 145.07C580.71 145.091 580.714 145.118 580.719 145.15C580.724 145.181 580.73 145.219 580.738 145.261C580.745 145.304 580.755 145.352 580.766 145.405C580.777 145.459 580.791 145.518 580.807 145.582C580.839 145.709 580.882 145.86 580.941 146.027L585.657 144.367ZM585.656 144.362L585.661 149.362C655.912 149.296 713.664 97.3767 713.664 32.3682H708.664H703.664C703.664 90.9867 651.296 139.3 585.652 139.362L585.656 144.362ZM708.664 32.3682L713.664 32.3681C713.664 31.0334 713.637 29.7089 713.589 28.3954L708.593 28.5781L703.596 28.7608C703.64 29.9638 703.664 31.1661 703.664 32.3682L708.664 32.3682ZM708.593 28.5781L708.59 33.5781C708.567 33.5781 708.55 33.5779 708.543 33.5778C708.536 33.5777 708.532 33.5776 708.541 33.5778C708.546 33.5779 708.564 33.5782 708.584 33.5785C708.605 33.5788 708.635 33.5791 708.672 33.5791V28.5791V23.5791C708.695 23.5791 708.713 23.5793 708.721 23.5794C708.727 23.5795 708.732 23.5796 708.724 23.5795C708.72 23.5794 708.702 23.579 708.682 23.5788C708.662 23.5785 708.632 23.5781 708.596 23.5781L708.593 28.5781ZM708.672 28.5791L708.672 33.5791C708.713 33.5791 708.747 33.5787 708.769 33.5783C708.791 33.578 708.81 33.5775 708.814 33.5774C708.822 33.5773 708.814 33.5775 708.804 33.5776C708.793 33.5778 708.771 33.5781 708.742 33.5781L708.739 28.5781L708.737 23.5781C708.697 23.5781 708.663 23.5786 708.64 23.579C708.62 23.5793 708.601 23.5797 708.598 23.5798C708.59 23.5799 708.598 23.5798 708.608 23.5796C708.62 23.5794 708.642 23.5791 708.672 23.5791L708.672 28.5791Z" fill="#B50D0D" mask="url(#path-12-inside-4_531_21007)"/>
<path d="M242.165 78C242.244 113.895 271.727 142.977 308.115 143.058V143.059C271.727 143.139 242.246 172.222 242.165 208.116H242.159C242.08 172.813 213.56 144.099 178 143.087V143.03C213.56 142.018 242.081 113.305 242.159 78H242.165Z" fill="#EECB1D"/>
<mask id="path-15-inside-5_531_21007" fill="white">
<path d="M242.33 91.0137C242.311 91.5877 242.301 92.1645 242.301 92.7432C242.301 120.887 265.326 143.705 293.745 143.745C265.326 143.785 242.301 166.605 242.301 194.749C242.301 194.769 242.301 194.789 242.301 194.81C242.299 194.81 242.298 194.81 242.296 194.811C242.296 194.79 242.297 194.77 242.297 194.749C242.297 166.605 219.271 143.784 190.852 143.745C219.271 143.706 242.297 120.887 242.297 92.7432C242.297 92.1645 242.286 91.5877 242.267 91.0137C242.277 91.0137 242.288 91.0146 242.299 91.0146C242.309 91.0146 242.32 91.0137 242.33 91.0137Z"/>
</mask>
<path d="M242.33 91.0137L247.327 91.1818L247.501 86.0106L242.327 86.0137L242.33 91.0137ZM242.301 92.7432H237.301V92.7432L242.301 92.7432ZM293.745 143.745L293.752 148.745V138.745L293.745 143.745ZM242.301 194.749L237.301 194.749V194.749H242.301ZM242.301 194.81L242.536 199.804L247.306 199.579L247.301 194.804L242.301 194.81ZM242.296 194.811L237.296 194.805L237.29 200.052L242.532 199.805L242.296 194.811ZM242.297 194.749H247.297V194.749L242.297 194.749ZM190.852 143.745L190.845 138.745L190.845 148.745L190.852 143.745ZM242.297 92.7432L247.297 92.7432V92.7432H242.297ZM242.267 91.0137L242.27 86.0137L237.095 86.0105L237.269 91.1818L242.267 91.0137ZM242.299 91.0146V96.0146H242.299L242.299 91.0146ZM242.33 91.0137L237.333 90.8455C237.312 91.4742 237.301 92.107 237.301 92.7432H242.301H247.301C247.301 92.222 247.31 91.7012 247.327 91.1818L242.33 91.0137ZM242.301 92.7432L237.301 92.7432C237.301 123.693 262.609 148.702 293.738 148.745L293.745 143.745L293.752 138.745C268.044 138.709 247.301 118.081 247.301 92.7431L242.301 92.7432ZM293.745 143.745L293.738 138.745C262.608 138.789 237.301 163.799 237.301 194.749L242.301 194.749L247.301 194.749C247.301 169.411 268.044 148.781 293.752 148.745L293.745 143.745ZM242.301 194.749H237.301C237.301 194.761 237.301 194.792 237.301 194.815L242.301 194.81L247.301 194.804C247.301 194.787 247.301 194.777 247.301 194.749H242.301ZM242.301 194.81L242.066 189.815C241.877 189.824 241.711 189.843 241.572 189.863C241.503 189.873 241.439 189.884 241.382 189.895C241.325 189.905 241.274 189.916 241.229 189.926C241.184 189.936 241.144 189.945 241.111 189.953C241.078 189.961 241.05 189.968 241.028 189.974C241.007 189.98 240.99 189.984 240.979 189.987C240.974 189.989 240.969 189.99 240.967 189.991C240.965 189.991 240.964 189.991 240.964 189.992C240.963 189.992 240.963 189.992 240.963 189.992C240.963 189.992 240.963 189.992 240.963 189.992C240.962 189.992 240.962 189.992 240.962 189.992C240.962 189.992 240.964 189.991 240.966 189.991C240.969 189.99 240.973 189.989 240.978 189.987C240.989 189.985 241.006 189.98 241.027 189.974C241.049 189.969 241.077 189.962 241.109 189.953C241.142 189.945 241.182 189.936 241.226 189.926C241.271 189.917 241.322 189.906 241.379 189.895C241.435 189.885 241.499 189.874 241.568 189.864C241.706 189.843 241.872 189.825 242.06 189.816L242.296 194.811L242.532 199.805C242.72 199.796 242.886 199.778 243.025 199.757C243.094 199.747 243.158 199.736 243.215 199.725C243.272 199.715 243.323 199.704 243.368 199.694C243.413 199.685 243.452 199.675 243.485 199.667C243.518 199.659 243.547 199.652 243.568 199.646C243.59 199.64 243.607 199.636 243.618 199.633C243.623 199.631 243.627 199.63 243.63 199.629C243.631 199.629 243.632 199.629 243.633 199.629C243.634 199.628 243.634 199.628 243.634 199.628C243.634 199.628 243.634 199.628 243.634 199.628C243.634 199.628 243.634 199.628 243.634 199.628C243.635 199.628 243.633 199.629 243.63 199.629C243.628 199.63 243.624 199.631 243.618 199.633C243.608 199.636 243.591 199.64 243.569 199.646C243.548 199.651 243.52 199.659 243.487 199.667C243.454 199.675 243.415 199.684 243.37 199.694C243.326 199.704 243.275 199.714 243.218 199.725C243.161 199.735 243.097 199.746 243.028 199.756C242.89 199.777 242.724 199.795 242.536 199.804L242.301 194.81ZM242.296 194.811L247.296 194.817C247.296 194.848 247.295 194.873 247.295 194.886C247.295 194.896 247.295 194.905 247.295 194.897C247.295 194.894 247.296 194.874 247.296 194.852C247.296 194.828 247.297 194.792 247.297 194.749H242.297H237.297C237.297 194.716 237.297 194.691 237.297 194.677C237.298 194.67 237.298 194.665 237.298 194.663C237.298 194.661 237.298 194.659 237.298 194.662C237.298 194.664 237.298 194.67 237.297 194.676C237.297 194.683 237.297 194.693 237.297 194.705C237.296 194.728 237.296 194.763 237.296 194.805L242.296 194.811ZM242.297 194.749L247.297 194.749C247.297 163.799 221.989 138.788 190.858 138.745L190.852 143.745L190.845 148.745C216.553 148.781 237.297 169.411 237.297 194.749L242.297 194.749ZM190.852 143.745L190.858 148.745C221.988 148.702 247.297 123.694 247.297 92.7432L242.297 92.7432L237.297 92.7431C237.297 118.081 216.553 138.71 190.845 138.745L190.852 143.745ZM242.297 92.7432H247.297C247.297 92.1016 247.285 91.4683 247.264 90.8455L242.267 91.0137L237.269 91.1818C237.287 91.7071 237.297 92.2274 237.297 92.7432H242.297ZM242.267 91.0137L242.264 96.0137C242.228 96.0136 242.196 96.0132 242.169 96.0127C242.143 96.0122 242.121 96.0115 242.104 96.0109C242.087 96.0103 242.074 96.0098 242.066 96.0095C242.06 96.0092 242.054 96.0089 242.057 96.0091C242.057 96.0091 242.065 96.0094 242.075 96.0099C242.085 96.0103 242.102 96.011 242.121 96.0116C242.141 96.0123 242.167 96.013 242.196 96.0136C242.225 96.0142 242.26 96.0146 242.299 96.0146V91.0146V86.0146C242.335 86.0146 242.367 86.0151 242.394 86.0156C242.42 86.0161 242.443 86.0168 242.46 86.0174C242.477 86.0179 242.491 86.0185 242.498 86.0188C242.505 86.0191 242.511 86.0194 242.509 86.0193C242.508 86.0193 242.506 86.0192 242.503 86.019C242.501 86.0189 242.496 86.0187 242.491 86.0185C242.481 86.0181 242.465 86.0174 242.446 86.0167C242.426 86.0161 242.401 86.0153 242.372 86.0147C242.343 86.0142 242.308 86.0137 242.27 86.0137L242.267 91.0137ZM242.299 91.0146L242.299 96.0146C242.339 96.0146 242.374 96.0142 242.405 96.0136C242.435 96.013 242.461 96.0122 242.481 96.0114C242.502 96.0107 242.518 96.01 242.529 96.0096C242.539 96.0091 242.548 96.0087 242.548 96.0087C242.551 96.0086 242.545 96.0089 242.538 96.0092C242.53 96.0095 242.516 96.0101 242.498 96.0107C242.481 96.0113 242.458 96.0121 242.43 96.0126C242.403 96.0132 242.37 96.0136 242.333 96.0137L242.33 91.0137L242.327 86.0137C242.287 86.0137 242.252 86.0142 242.222 86.0148C242.192 86.0154 242.166 86.0162 242.146 86.0169C242.126 86.0176 242.109 86.0183 242.099 86.0188C242.094 86.019 242.089 86.0192 242.086 86.0194C242.084 86.0195 242.081 86.0196 242.081 86.0196C242.08 86.0197 242.081 86.0196 242.083 86.0195C242.085 86.0194 242.088 86.0193 242.092 86.0191C242.1 86.0188 242.114 86.0182 242.132 86.0176C242.15 86.0169 242.173 86.0162 242.201 86.0156C242.228 86.0151 242.261 86.0146 242.299 86.0146L242.299 91.0146Z" fill="#EECB1D" mask="url(#path-15-inside-5_531_21007)"/>
<path d="M242.165 78C242.244 113.895 271.727 142.977 308.115 143.058V143.059C271.727 143.139 242.246 172.222 242.165 208.116H242.159C242.08 172.813 213.56 144.099 178 143.087V143.03C213.56 142.018 242.081 113.305 242.159 78H242.165Z" fill="#EECB1D"/>
<mask id="path-18-inside-6_531_21007" fill="white">
<path d="M242.33 91.0137C242.311 91.5877 242.301 92.1645 242.301 92.7432C242.301 120.887 265.326 143.705 293.745 143.745C265.326 143.785 242.301 166.605 242.301 194.749C242.301 194.769 242.301 194.789 242.301 194.81C242.299 194.81 242.298 194.81 242.296 194.811C242.296 194.79 242.297 194.77 242.297 194.749C242.297 166.605 219.271 143.784 190.852 143.745C219.271 143.706 242.297 120.887 242.297 92.7432C242.297 92.1645 242.286 91.5877 242.267 91.0137C242.277 91.0137 242.288 91.0146 242.299 91.0146C242.309 91.0146 242.32 91.0137 242.33 91.0137Z"/>
</mask>
<path d="M242.33 91.0137L247.327 91.1818L247.501 86.0106L242.327 86.0137L242.33 91.0137ZM242.301 92.7432H237.301V92.7432L242.301 92.7432ZM293.745 143.745L293.752 148.745V138.745L293.745 143.745ZM242.301 194.749L237.301 194.749V194.749H242.301ZM242.301 194.81L242.536 199.804L247.306 199.579L247.301 194.804L242.301 194.81ZM242.296 194.811L237.296 194.805L237.29 200.052L242.532 199.805L242.296 194.811ZM242.297 194.749H247.297V194.749L242.297 194.749ZM190.852 143.745L190.845 138.745L190.845 148.745L190.852 143.745ZM242.297 92.7432L247.297 92.7432V92.7432H242.297ZM242.267 91.0137L242.27 86.0137L237.095 86.0105L237.269 91.1818L242.267 91.0137ZM242.299 91.0146V96.0146H242.299L242.299 91.0146ZM242.33 91.0137L237.333 90.8455C237.312 91.4742 237.301 92.107 237.301 92.7432H242.301H247.301C247.301 92.222 247.31 91.7012 247.327 91.1818L242.33 91.0137ZM242.301 92.7432L237.301 92.7432C237.301 123.693 262.609 148.702 293.738 148.745L293.745 143.745L293.752 138.745C268.044 138.709 247.301 118.081 247.301 92.7431L242.301 92.7432ZM293.745 143.745L293.738 138.745C262.608 138.789 237.301 163.799 237.301 194.749L242.301 194.749L247.301 194.749C247.301 169.411 268.044 148.781 293.752 148.745L293.745 143.745ZM242.301 194.749H237.301C237.301 194.761 237.301 194.792 237.301 194.815L242.301 194.81L247.301 194.804C247.301 194.787 247.301 194.777 247.301 194.749H242.301ZM242.301 194.81L242.066 189.815C241.877 189.824 241.711 189.843 241.572 189.863C241.503 189.873 241.439 189.884 241.382 189.895C241.325 189.905 241.274 189.916 241.229 189.926C241.184 189.936 241.144 189.945 241.111 189.953C241.078 189.961 241.05 189.968 241.028 189.974C241.007 189.98 240.99 189.984 240.979 189.987C240.974 189.989 240.969 189.99 240.967 189.991C240.965 189.991 240.964 189.991 240.964 189.992C240.963 189.992 240.963 189.992 240.963 189.992C240.963 189.992 240.963 189.992 240.963 189.992C240.962 189.992 240.962 189.992 240.962 189.992C240.962 189.992 240.964 189.991 240.966 189.991C240.969 189.99 240.973 189.989 240.978 189.987C240.989 189.985 241.006 189.98 241.027 189.974C241.049 189.969 241.077 189.962 241.109 189.953C241.142 189.945 241.182 189.936 241.226 189.926C241.271 189.917 241.322 189.906 241.379 189.895C241.435 189.885 241.499 189.874 241.568 189.864C241.706 189.843 241.872 189.825 242.06 189.816L242.296 194.811L242.532 199.805C242.72 199.796 242.886 199.778 243.025 199.757C243.094 199.747 243.158 199.736 243.215 199.725C243.272 199.715 243.323 199.704 243.368 199.694C243.413 199.685 243.452 199.675 243.485 199.667C243.518 199.659 243.547 199.652 243.568 199.646C243.59 199.64 243.607 199.636 243.618 199.633C243.623 199.631 243.627 199.63 243.63 199.629C243.631 199.629 243.632 199.629 243.633 199.629C243.634 199.628 243.634 199.628 243.634 199.628C243.634 199.628 243.634 199.628 243.634 199.628C243.634 199.628 243.634 199.628 243.634 199.628C243.635 199.628 243.633 199.629 243.63 199.629C243.628 199.63 243.624 199.631 243.618 199.633C243.608 199.636 243.591 199.64 243.569 199.646C243.548 199.651 243.52 199.659 243.487 199.667C243.454 199.675 243.415 199.684 243.37 199.694C243.326 199.704 243.275 199.714 243.218 199.725C243.161 199.735 243.097 199.746 243.028 199.756C242.89 199.777 242.724 199.795 242.536 199.804L242.301 194.81ZM242.296 194.811L247.296 194.817C247.296 194.848 247.295 194.873 247.295 194.886C247.295 194.896 247.295 194.905 247.295 194.897C247.295 194.894 247.296 194.874 247.296 194.852C247.296 194.828 247.297 194.792 247.297 194.749H242.297H237.297C237.297 194.716 237.297 194.691 237.297 194.677C237.298 194.67 237.298 194.665 237.298 194.663C237.298 194.661 237.298 194.659 237.298 194.662C237.298 194.664 237.298 194.67 237.297 194.676C237.297 194.683 237.297 194.693 237.297 194.705C237.296 194.728 237.296 194.763 237.296 194.805L242.296 194.811ZM242.297 194.749L247.297 194.749C247.297 163.799 221.989 138.788 190.858 138.745L190.852 143.745L190.845 148.745C216.553 148.781 237.297 169.411 237.297 194.749L242.297 194.749ZM190.852 143.745L190.858 148.745C221.988 148.702 247.297 123.694 247.297 92.7432L242.297 92.7432L237.297 92.7431C237.297 118.081 216.553 138.71 190.845 138.745L190.852 143.745ZM242.297 92.7432H247.297C247.297 92.1016 247.285 91.4683 247.264 90.8455L242.267 91.0137L237.269 91.1818C237.287 91.7071 237.297 92.2274 237.297 92.7432H242.297ZM242.267 91.0137L242.264 96.0137C242.228 96.0136 242.196 96.0132 242.169 96.0127C242.143 96.0122 242.121 96.0115 242.104 96.0109C242.087 96.0103 242.074 96.0098 242.066 96.0095C242.06 96.0092 242.054 96.0089 242.057 96.0091C242.057 96.0091 242.065 96.0094 242.075 96.0099C242.085 96.0103 242.102 96.011 242.121 96.0116C242.141 96.0123 242.167 96.013 242.196 96.0136C242.225 96.0142 242.26 96.0146 242.299 96.0146V91.0146V86.0146C242.335 86.0146 242.367 86.0151 242.394 86.0156C242.42 86.0161 242.443 86.0168 242.46 86.0174C242.477 86.0179 242.491 86.0185 242.498 86.0188C242.505 86.0191 242.511 86.0194 242.509 86.0193C242.508 86.0193 242.506 86.0192 242.503 86.019C242.501 86.0189 242.496 86.0187 242.491 86.0185C242.481 86.0181 242.465 86.0174 242.446 86.0167C242.426 86.0161 242.401 86.0153 242.372 86.0147C242.343 86.0142 242.308 86.0137 242.27 86.0137L242.267 91.0137ZM242.299 91.0146L242.299 96.0146C242.339 96.0146 242.374 96.0142 242.405 96.0136C242.435 96.013 242.461 96.0122 242.481 96.0114C242.502 96.0107 242.518 96.01 242.529 96.0096C242.539 96.0091 242.548 96.0087 242.548 96.0087C242.551 96.0086 242.545 96.0089 242.538 96.0092C242.53 96.0095 242.516 96.0101 242.498 96.0107C242.481 96.0113 242.458 96.0121 242.43 96.0126C242.403 96.0132 242.37 96.0136 242.333 96.0137L242.33 91.0137L242.327 86.0137C242.287 86.0137 242.252 86.0142 242.222 86.0148C242.192 86.0154 242.166 86.0162 242.146 86.0169C242.126 86.0176 242.109 86.0183 242.099 86.0188C242.094 86.019 242.089 86.0192 242.086 86.0194C242.084 86.0195 242.081 86.0196 242.081 86.0196C242.08 86.0197 242.081 86.0196 242.083 86.0195C242.085 86.0194 242.088 86.0193 242.092 86.0191C242.1 86.0188 242.114 86.0182 242.132 86.0176C242.15 86.0169 242.173 86.0162 242.201 86.0156C242.228 86.0151 242.261 86.0146 242.299 86.0146L242.299 91.0146Z" fill="#EECB1D" mask="url(#path-18-inside-6_531_21007)"/>
<path d="M888.812 144.766C889.788 143.79 889.788 142.207 888.812 141.23L872.902 125.32C871.926 124.344 870.343 124.344 869.367 125.32C868.39 126.297 868.39 127.88 869.367 128.856L883.509 142.998L869.367 157.14C868.39 158.116 868.39 159.699 869.367 160.676C870.343 161.652 871.926 161.652 872.902 160.676L888.812 144.766ZM47.9961 142.998V145.498H887.044V142.998V140.498H47.9961V142.998Z" fill="white"/>
<path d="M66.1826 73.998C66.2655 112.022 96.6735 142.83 134.206 142.917C96.673 143.004 66.2647 173.814 66.1826 211.839H66.1787C66.098 174.439 36.6794 144.021 0 142.947V142.888C36.679 141.814 66.0972 111.397 66.1787 73.998H66.1826Z" fill="white"/>
<mask id="path-22-inside-7_531_21007" fill="white">
<path d="M66.3486 87.7832C66.3287 88.391 66.3184 89.0015 66.3184 89.6143C66.3184 119.455 90.1102 143.644 119.459 143.645V143.647C90.1102 143.648 66.3184 167.839 66.3184 197.68C66.3184 197.701 66.3183 197.721 66.3184 197.742H66.3154C66.3155 197.721 66.3164 197.701 66.3164 197.68C66.3164 167.858 42.5547 143.679 13.2314 143.647C13.2311 143.646 13.2308 143.646 13.2305 143.645C42.5541 143.614 66.3163 119.436 66.3164 89.6143C66.3164 89.0015 66.3051 88.391 66.2852 87.7832H66.3486Z"/>
</mask>
<path d="M66.3486 87.7832L71.346 87.9469L71.5151 82.7832H66.3486V87.7832ZM66.3184 89.6143H61.3184V89.6143L66.3184 89.6143ZM119.459 143.645H124.459V138.645L119.459 138.645L119.459 143.645ZM119.459 143.647L119.459 148.647L124.459 148.647V143.647H119.459ZM66.3184 197.68H61.3184V197.68L66.3184 197.68ZM66.3184 197.742V202.742H71.324L71.3184 197.737L66.3184 197.742ZM66.3154 197.742L61.3154 197.737L61.3098 202.742H66.3154V197.742ZM66.3164 197.68L71.3164 197.68V197.68H66.3164ZM13.2314 143.647L8.46208 145.149L9.56206 148.644L13.2261 148.647L13.2314 143.647ZM13.2305 143.645L13.2252 138.645L6.41689 138.652L8.46119 145.146L13.2305 143.645ZM66.3164 89.6143L71.3164 89.6143V89.6143H66.3164ZM66.2852 87.7832V82.7832H61.1187L61.2878 87.9469L66.2852 87.7832ZM66.3486 87.7832L61.3513 87.6195C61.3297 88.2801 61.3184 88.9451 61.3184 89.6143H66.3184H71.3184C71.3184 89.0579 71.3278 88.502 71.346 87.9469L66.3486 87.7832ZM66.3184 89.6143L61.3184 89.6143C61.3184 122.138 87.2709 148.644 119.459 148.645L119.459 143.645L119.459 138.645C92.9495 138.644 71.3184 116.772 71.3184 89.6142L66.3184 89.6143ZM119.459 143.645H114.459V143.647H119.459H124.459V143.645H119.459ZM119.459 143.647L119.459 138.647C87.2707 138.648 61.3184 165.157 61.3184 197.68H66.3184H71.3184C71.3184 170.522 92.9497 148.648 119.459 148.647L119.459 143.647ZM66.3184 197.68L61.3184 197.68C61.3184 197.692 61.3183 197.724 61.3184 197.748L66.3184 197.742L71.3184 197.737C71.3183 197.719 71.3184 197.709 71.3184 197.68L66.3184 197.68ZM66.3184 197.742V192.742H66.3154V197.742V202.742H66.3184V197.742ZM66.3154 197.742L71.3154 197.748C71.3154 197.779 71.315 197.803 71.3148 197.815C71.3146 197.826 71.3144 197.835 71.3146 197.827C71.3147 197.823 71.3151 197.804 71.3155 197.781C71.3159 197.758 71.3164 197.722 71.3164 197.68L66.3164 197.68L61.3164 197.68C61.3164 197.648 61.3168 197.622 61.317 197.609C61.3171 197.602 61.3172 197.597 61.3173 197.595C61.3173 197.593 61.3173 197.592 61.3173 197.595C61.3172 197.597 61.3171 197.603 61.3169 197.609C61.3168 197.616 61.3166 197.626 61.3164 197.638C61.316 197.66 61.3155 197.695 61.3154 197.737L66.3154 197.742ZM66.3164 197.68H71.3164C71.3164 165.177 45.3969 138.682 13.2368 138.647L13.2314 143.647L13.2261 148.647C39.7124 148.676 61.3164 170.539 61.3164 197.68H66.3164ZM13.2314 143.647L18.0008 142.146C17.9945 142.126 17.9887 142.109 17.9838 142.093C17.9789 142.079 17.9747 142.066 17.9713 142.056C17.968 142.046 17.9653 142.038 17.9636 142.033C17.9628 142.03 17.9621 142.028 17.9616 142.027C17.9614 142.026 17.9612 142.026 17.9611 142.026C17.9611 142.025 17.961 142.025 17.961 142.025C17.9609 142.025 17.9609 142.025 17.9609 142.025C17.9607 142.024 17.9619 142.028 17.9633 142.032C17.9649 142.037 17.9675 142.044 17.9708 142.054C17.974 142.064 17.9782 142.076 17.983 142.091C17.9879 142.106 17.9935 142.123 17.9997 142.143L13.2305 143.645L8.46119 145.146C8.4675 145.166 8.47324 145.184 8.47815 145.199C8.48304 145.214 8.48731 145.226 8.49065 145.236C8.49396 145.246 8.49667 145.254 8.49833 145.259C8.49918 145.262 8.49987 145.264 8.5003 145.265C8.50052 145.266 8.5007 145.266 8.50081 145.266C8.50086 145.267 8.50091 145.267 8.50094 145.267C8.50097 145.267 8.50099 145.267 8.50099 145.267C8.50124 145.268 8.50001 145.264 8.49856 145.26C8.49697 145.255 8.49434 145.247 8.4911 145.238C8.48784 145.228 8.48364 145.215 8.47882 145.201C8.47399 145.186 8.46832 145.168 8.46208 145.149L13.2314 143.647ZM13.2305 143.645L13.2357 148.645C45.3961 148.611 71.3163 122.117 71.3164 89.6143L66.3164 89.6143L61.3164 89.6142C61.3163 116.755 39.7121 138.617 13.2252 138.645L13.2305 143.645ZM66.3164 89.6143H71.3164C71.3164 88.94 71.3039 88.2745 71.2825 87.6195L66.2852 87.7832L61.2878 87.9469C61.3062 88.5076 61.3164 89.063 61.3164 89.6143H66.3164ZM66.2852 87.7832V92.7832H66.3486V87.7832V82.7832H66.2852V87.7832Z" fill="#BF46D7" mask="url(#path-22-inside-7_531_21007)"/>
<path d="M251.986 275.147H233.023V275.146H251.986V275.147ZM242.506 51.002C242.624 101.763 285.595 142.889 338.63 142.999V143C285.594 143.11 242.623 184.239 242.506 235.001H242.504C242.389 185.076 200.822 144.47 148.996 143.039V142.96C200.821 141.529 242.388 100.926 242.504 51.002H242.506Z" fill="white"/>
<mask id="path-25-inside-8_531_21007" fill="white">
<path d="M242.743 69.4023C242.715 70.2135 242.699 71.028 242.699 71.8457C242.699 111.679 276.314 143.969 317.78 143.971V143.972C276.314 143.974 242.699 176.265 242.699 216.098C242.699 216.126 242.699 216.154 242.699 216.183C242.698 216.183 242.697 216.184 242.695 216.184C242.695 216.155 242.696 216.126 242.696 216.098C242.696 176.288 209.121 144.011 167.688 143.972L167.688 143.971C209.121 143.931 242.696 111.656 242.696 71.8457C242.696 71.028 242.68 70.2135 242.652 69.4023H242.743Z"/>
</mask>
<path d="M242.743 69.4023L247.74 69.5755L247.919 64.4023H242.743V69.4023ZM242.699 71.8457L237.699 71.8457V71.8457H242.699ZM317.78 143.971H322.78V138.971L317.781 138.971L317.78 143.971ZM317.78 143.972L317.781 148.972L322.78 148.971V143.972H317.78ZM242.699 216.098L237.699 216.098V216.098H242.699ZM242.699 216.183L242.928 221.177L247.705 220.959L247.699 216.177L242.699 216.183ZM242.695 216.184L237.695 216.178L237.689 221.418L242.924 221.178L242.695 216.184ZM242.696 216.098H247.696V216.098L242.696 216.098ZM167.688 143.972L164.153 147.507L165.615 148.97L167.684 148.972L167.688 143.972ZM167.688 143.971L167.683 138.971L155.628 138.982L164.152 147.506L167.688 143.971ZM242.696 71.8457H247.696V71.8457L242.696 71.8457ZM242.652 69.4023V64.4023H237.476L237.655 69.5755L242.652 69.4023ZM242.743 69.4023L237.746 69.2292C237.716 70.091 237.699 70.9636 237.699 71.8457L242.699 71.8457L247.699 71.8457C247.699 71.0924 247.714 70.336 247.74 69.5755L242.743 69.4023ZM242.699 71.8457H237.699C237.699 114.628 273.744 148.969 317.78 148.971L317.78 143.971L317.781 138.971C278.884 138.969 247.699 108.73 247.699 71.8457H242.699ZM317.78 143.971H312.78V143.972H317.78H322.78V143.971H317.78ZM317.78 143.972L317.78 138.972C273.744 138.974 237.699 173.316 237.699 216.098L242.699 216.098L247.699 216.098C247.699 179.214 278.884 148.973 317.781 148.972L317.78 143.972ZM242.699 216.098H237.699C237.699 216.117 237.699 216.157 237.699 216.189L242.699 216.183L247.699 216.177C247.699 216.152 247.699 216.134 247.699 216.098H242.699ZM242.699 216.183L242.471 211.188C242.345 211.194 242.226 211.204 242.117 211.217C242.008 211.229 241.908 211.245 241.816 211.261C241.725 211.278 241.641 211.295 241.567 211.312C241.493 211.33 241.427 211.347 241.369 211.363C241.311 211.379 241.261 211.394 241.219 211.407C241.177 211.42 241.141 211.431 241.114 211.441C241.086 211.45 241.065 211.457 241.051 211.462C241.045 211.464 241.039 211.466 241.036 211.467C241.034 211.468 241.033 211.468 241.032 211.469C241.032 211.469 241.031 211.469 241.031 211.469C241.031 211.469 241.031 211.469 241.031 211.469C241.031 211.469 241.031 211.469 241.031 211.469C241.031 211.469 241.031 211.469 241.031 211.469C241.03 211.469 241.033 211.468 241.036 211.467C241.039 211.466 241.044 211.464 241.051 211.462C241.064 211.457 241.086 211.45 241.113 211.441C241.14 211.432 241.175 211.42 241.217 211.407C241.259 211.394 241.309 211.379 241.367 211.363C241.424 211.348 241.491 211.33 241.565 211.313C241.639 211.296 241.722 211.278 241.813 211.262C241.904 211.246 242.005 211.23 242.114 211.218C242.223 211.205 242.341 211.195 242.466 211.189L242.695 216.184L242.924 221.178C243.05 221.173 243.168 221.162 243.277 221.15C243.386 221.137 243.487 221.121 243.579 221.105C243.67 221.089 243.753 221.071 243.827 221.054C243.902 221.037 243.968 221.019 244.026 221.003C244.083 220.988 244.134 220.973 244.176 220.959C244.218 220.946 244.254 220.935 244.281 220.926C244.308 220.917 244.33 220.909 244.343 220.904C244.35 220.902 244.355 220.9 244.359 220.899C244.36 220.898 244.362 220.898 244.363 220.898C244.363 220.897 244.363 220.897 244.364 220.897C244.364 220.897 244.364 220.897 244.364 220.897C244.364 220.897 244.364 220.897 244.364 220.897C244.364 220.897 244.364 220.897 244.364 220.897C244.364 220.897 244.362 220.898 244.359 220.899C244.356 220.9 244.35 220.902 244.344 220.904C244.331 220.909 244.309 220.916 244.282 220.925C244.255 220.934 244.219 220.946 244.177 220.959C244.135 220.972 244.085 220.987 244.028 221.003C243.97 221.019 243.904 221.036 243.83 221.053C243.756 221.07 243.673 221.088 243.581 221.104C243.49 221.121 243.39 221.136 243.281 221.149C243.172 221.161 243.054 221.172 242.928 221.177L242.699 216.183ZM242.695 216.184L247.695 216.19C247.695 216.208 247.695 216.222 247.695 216.227C247.695 216.231 247.695 216.234 247.695 216.224C247.695 216.218 247.696 216.201 247.696 216.181C247.696 216.161 247.696 216.132 247.696 216.098H242.696H237.696C237.696 216.078 237.696 216.063 237.697 216.057C237.697 216.052 237.697 216.049 237.697 216.057C237.696 216.062 237.696 216.079 237.696 216.097C237.696 216.117 237.695 216.145 237.695 216.178L242.695 216.184ZM242.696 216.098L247.696 216.098C247.696 173.341 211.694 139.014 167.693 138.972L167.688 143.972L167.684 148.972C206.548 149.009 237.696 179.235 237.696 216.098L242.696 216.098ZM167.688 143.972L171.224 140.436L171.223 140.435L167.688 143.971L164.152 147.506L164.153 147.507L167.688 143.972ZM167.688 143.971L167.692 148.971C211.694 148.929 247.696 114.603 247.696 71.8457H242.696H237.696C237.696 108.708 206.548 138.934 167.683 138.971L167.688 143.971ZM242.696 71.8457L247.696 71.8457C247.696 70.9636 247.679 70.091 247.649 69.2292L242.652 69.4023L237.655 69.5755C237.682 70.336 237.696 71.0924 237.696 71.8457L242.696 71.8457ZM242.652 69.4023V74.4023H242.743V69.4023V64.4023H242.652V69.4023Z" fill="#EECB1D" mask="url(#path-25-inside-8_531_21007)"/>
<path d="M455.257 30.9941C455.413 93.0611 512.966 143.348 584.001 143.485V143.488C512.966 143.626 455.412 193.916 455.257 255.983H455.249C455.096 194.936 399.417 145.283 329.996 143.536V143.438C399.416 141.692 455.095 92.0412 455.249 30.9941H455.257Z" fill="white"/>
<mask id="path-28-inside-9_531_21007" fill="white">
<path d="M455.563 53.502C455.526 54.4926 455.505 55.4876 455.505 56.4863C455.505 105.192 500.529 144.675 556.07 144.677V144.682C500.529 144.684 455.505 184.168 455.505 232.873C455.505 232.907 455.505 232.941 455.505 232.975C455.503 232.975 455.501 232.975 455.499 232.975C455.499 232.941 455.5 232.907 455.5 232.873C455.5 184.199 410.533 144.734 355.04 144.682C355.039 144.68 355.04 144.678 355.039 144.677C410.532 144.625 455.5 105.161 455.5 56.4863C455.5 55.4876 455.478 54.4927 455.44 53.502C455.462 53.502 455.483 53.5029 455.505 53.5029C455.524 53.5029 455.544 53.502 455.563 53.502Z"/>
</mask>
<path d="M455.563 53.502L460.56 53.6914L460.757 48.4994L455.561 48.502L455.563 53.502ZM455.505 56.4863H450.505V56.4863L455.505 56.4863ZM556.07 144.677H561.07V139.677L556.071 139.677L556.07 144.677ZM556.07 144.682L556.071 149.682L561.07 149.681V144.682H556.07ZM455.505 232.873H450.505V232.873H455.505ZM455.505 232.975L455.713 237.97L460.511 237.77L460.505 232.968L455.505 232.975ZM455.499 232.975L450.499 232.968L450.492 238.188L455.708 237.97L455.499 232.975ZM455.5 232.873H460.5V232.873H455.5ZM355.04 144.682L350.343 146.396L351.541 149.678L355.035 149.682L355.04 144.682ZM355.039 144.677L355.034 139.677L347.894 139.683L350.342 146.391L355.039 144.677ZM455.5 56.4863L460.5 56.4863V56.4863H455.5ZM455.44 53.502L455.443 48.502L450.247 48.4991L450.444 53.6914L455.44 53.502ZM455.505 53.5029V58.5029V58.5029V53.5029ZM455.563 53.502L450.567 53.3125C450.527 54.3591 450.505 55.4176 450.505 56.4863H455.505H460.505C460.505 55.5576 460.524 54.6262 460.56 53.6914L455.563 53.502ZM455.505 56.4863L450.505 56.4863C450.505 108.55 498.405 149.674 556.07 149.677L556.07 144.677L556.071 139.677C502.654 139.675 460.505 101.833 460.505 56.4863L455.505 56.4863ZM556.07 144.677H551.07V144.682H556.07H561.07V144.677H556.07ZM556.07 144.682L556.07 139.682C498.405 139.684 450.505 180.81 450.505 232.873H455.505H460.505C460.505 187.526 502.654 149.684 556.071 149.682L556.07 144.682ZM455.505 232.873H450.505C450.505 232.898 450.505 232.943 450.505 232.981L455.505 232.975L460.505 232.968C460.505 232.938 460.505 232.916 460.505 232.873H455.505ZM455.505 232.975L455.296 227.979C455.348 227.977 455.394 227.976 455.433 227.975C455.471 227.975 455.504 227.975 455.53 227.975C455.555 227.975 455.575 227.975 455.587 227.975C455.594 227.975 455.599 227.976 455.602 227.976C455.604 227.976 455.607 227.976 455.606 227.976C455.606 227.976 455.606 227.976 455.606 227.976C455.605 227.976 455.605 227.976 455.605 227.976C455.604 227.976 455.603 227.976 455.601 227.976C455.598 227.976 455.592 227.975 455.586 227.975C455.573 227.975 455.552 227.975 455.526 227.975C455.501 227.975 455.467 227.975 455.428 227.975C455.389 227.976 455.342 227.977 455.29 227.979L455.499 232.975L455.708 237.97C455.656 237.972 455.61 237.974 455.572 237.974C455.533 237.975 455.5 237.975 455.474 237.975C455.449 237.974 455.429 237.974 455.417 237.974C455.41 237.974 455.405 237.974 455.402 237.974C455.4 237.974 455.397 237.974 455.398 237.974C455.398 237.974 455.398 237.974 455.398 237.974C455.398 237.974 455.399 237.974 455.399 237.974C455.4 237.974 455.401 237.974 455.403 237.974C455.406 237.974 455.412 237.974 455.418 237.974C455.431 237.974 455.452 237.974 455.477 237.975C455.503 237.975 455.537 237.975 455.576 237.974C455.615 237.974 455.661 237.972 455.713 237.97L455.505 232.975ZM455.499 232.975L460.499 232.981C460.499 232.994 460.499 233.003 460.499 233.005C460.499 233.005 460.499 233.005 460.499 232.994C460.499 232.987 460.499 232.969 460.5 232.951C460.5 232.931 460.5 232.904 460.5 232.873H455.5H450.5C450.5 232.859 450.5 232.849 450.5 232.846C450.5 232.844 450.5 232.844 450.5 232.853C450.5 232.86 450.5 232.876 450.5 232.894C450.499 232.913 450.499 232.938 450.499 232.968L455.499 232.975ZM455.5 232.873H460.5C460.5 180.843 412.66 139.736 355.045 139.682L355.04 144.682L355.035 149.682C408.405 149.732 450.5 187.554 450.5 232.873H455.5ZM355.04 144.682L359.737 142.968C359.803 143.147 359.85 143.31 359.885 143.447C359.903 143.516 359.917 143.58 359.93 143.637C359.942 143.694 359.952 143.746 359.96 143.792C359.968 143.837 359.975 143.878 359.98 143.912C359.986 143.946 359.99 143.975 359.993 143.997C359.996 144.019 359.998 144.037 360 144.048C360 144.053 360.001 144.058 360.001 144.06C360.001 144.063 360.002 144.065 360.002 144.064C360.002 144.064 360.002 144.064 360.002 144.064C360.002 144.064 360.002 144.064 360.002 144.064C360.002 144.064 360.002 144.064 360.001 144.063C360.001 144.062 360.001 144.061 360.001 144.06C360.001 144.057 360 144.053 359.999 144.047C359.998 144.036 359.996 144.018 359.993 143.996C359.989 143.973 359.985 143.944 359.98 143.91C359.975 143.876 359.968 143.835 359.96 143.789C359.951 143.743 359.941 143.691 359.929 143.634C359.917 143.576 359.902 143.512 359.885 143.443C359.849 143.305 359.802 143.143 359.736 142.962L355.039 144.677L350.342 146.391C350.277 146.211 350.229 146.049 350.194 145.912C350.176 145.843 350.162 145.779 350.15 145.722C350.137 145.664 350.127 145.612 350.119 145.567C350.111 145.521 350.104 145.481 350.099 145.447C350.094 145.413 350.089 145.384 350.086 145.362C350.083 145.339 350.081 145.322 350.08 145.311C350.079 145.305 350.078 145.301 350.078 145.298C350.078 145.296 350.077 145.294 350.078 145.294C350.078 145.294 350.078 145.294 350.078 145.294C350.078 145.294 350.078 145.294 350.078 145.294C350.078 145.295 350.078 145.295 350.078 145.295C350.078 145.296 350.078 145.297 350.078 145.298C350.078 145.301 350.079 145.306 350.08 145.311C350.081 145.322 350.083 145.34 350.086 145.363C350.09 145.385 350.094 145.414 350.099 145.448C350.104 145.483 350.111 145.523 350.119 145.569C350.128 145.615 350.138 145.667 350.15 145.725C350.162 145.782 350.177 145.846 350.195 145.915C350.23 146.053 350.277 146.216 350.343 146.396L355.04 144.682ZM355.039 144.677L355.044 149.677C412.66 149.623 460.5 108.517 460.5 56.4863L455.5 56.4863L450.5 56.4863C450.5 101.805 408.404 139.627 355.034 139.677L355.039 144.677ZM455.5 56.4863H460.5C460.5 55.4145 460.476 54.3556 460.437 53.3125L455.44 53.502L450.444 53.6914C450.48 54.6297 450.5 55.5607 450.5 56.4863H455.5ZM455.44 53.502L455.438 58.502C455.407 58.5019 455.383 58.5016 455.371 58.5014C455.36 58.5012 455.352 58.501 455.36 58.5012C455.363 58.5012 455.382 58.5017 455.404 58.5021C455.428 58.5025 455.463 58.5029 455.505 58.5029V53.5029V48.5029C455.536 48.5029 455.56 48.5033 455.573 48.5035C455.584 48.5037 455.593 48.5039 455.586 48.5037C455.583 48.5037 455.564 48.5032 455.542 48.5028C455.519 48.5025 455.485 48.502 455.443 48.502L455.44 53.502ZM455.505 53.5029V58.5029C455.55 58.5029 455.588 58.5024 455.612 58.5019C455.625 58.5017 455.636 58.5014 455.643 58.5013C455.65 58.5011 455.657 58.5009 455.658 58.5009C455.662 58.5008 455.66 58.5009 455.658 58.5009C455.656 58.501 455.651 58.5011 455.643 58.5012C455.629 58.5015 455.601 58.5019 455.566 58.502L455.563 53.502L455.561 48.502C455.516 48.502 455.479 48.5025 455.455 48.503C455.442 48.5032 455.432 48.5035 455.425 48.5036C455.418 48.5038 455.412 48.5039 455.41 48.504C455.407 48.5041 455.408 48.504 455.411 48.504C455.413 48.5039 455.419 48.5038 455.427 48.5036C455.442 48.5034 455.469 48.5029 455.505 48.5029V53.5029Z" fill="#5FCE4E" mask="url(#path-28-inside-9_531_21007)"/>
<path d="M708.363 0C708.556 78.8167 779.021 142.674 865.993 142.852V142.854C779.019 143.032 708.552 206.895 708.363 285.715H708.352C708.166 208.192 639.995 145.139 555 142.916V142.792C639.993 140.569 708.162 77.5201 708.352 0H708.363Z" fill="white"/>
<mask id="path-31-inside-10_531_21007" fill="white">
<path d="M708.739 28.5781C708.693 29.8363 708.669 31.0998 708.669 32.3682C708.669 94.2212 763.8 144.363 831.808 144.363L831.81 144.362C831.81 144.364 831.81 144.366 831.81 144.367H831.808C763.8 144.367 708.669 194.508 708.669 256.361C708.669 256.405 708.669 256.449 708.669 256.493C708.667 256.493 708.665 256.493 708.663 256.493C708.663 256.449 708.664 256.405 708.664 256.361C708.664 194.548 653.604 144.432 585.657 144.367C585.657 144.366 585.657 144.364 585.656 144.362C653.604 144.298 708.664 94.1817 708.664 32.3682C708.664 31.0998 708.639 29.8364 708.593 28.5781C708.619 28.5781 708.646 28.5791 708.672 28.5791C708.694 28.5791 708.717 28.5781 708.739 28.5781Z"/>
</mask>
<path d="M708.739 28.5781L713.736 28.7608L713.926 23.5756L708.737 23.5781L708.739 28.5781ZM708.669 32.3682L703.669 32.3681V32.3682H708.669ZM831.808 144.363V149.363H832.988L834.044 148.835L831.808 144.363ZM831.81 144.362L836.81 144.363L836.81 136.272L829.574 139.89L831.81 144.362ZM831.81 144.367V149.367H836.809L836.81 144.367L831.81 144.367ZM708.669 256.361L703.669 256.361V256.361H708.669ZM708.669 256.493L708.885 261.488L713.675 261.281L713.669 256.487L708.669 256.493ZM708.663 256.493L703.663 256.487L703.656 261.715L708.88 261.488L708.663 256.493ZM708.664 256.361H713.664V256.361L708.664 256.361ZM585.657 144.367L580.941 146.027L582.115 149.364L585.652 149.367L585.657 144.367ZM585.656 144.362L585.652 139.362L578.598 139.369L580.94 146.022L585.656 144.362ZM708.664 32.3682H713.664V32.3681L708.664 32.3682ZM708.593 28.5781L708.596 23.5781L703.406 23.5752L703.596 28.7608L708.593 28.5781ZM708.672 28.5791V33.5791H708.672L708.672 28.5791ZM708.739 28.5781L703.743 28.3954C703.694 29.7115 703.669 31.0359 703.669 32.3681L708.669 32.3682L713.669 32.3682C713.669 31.1636 713.692 29.9612 713.736 28.7608L708.739 28.5781ZM708.669 32.3682H703.669C703.669 97.4184 761.496 149.363 831.808 149.363V144.363V139.363C766.105 139.363 713.669 91.0241 713.669 32.3682H708.669ZM831.808 144.363L834.044 148.835L834.046 148.834L831.81 144.362L829.574 139.89L829.572 139.891L831.808 144.363ZM831.81 144.362L826.81 144.362C826.81 144.363 826.81 144.367 826.81 144.367L831.81 144.367L836.81 144.367C836.81 144.364 836.81 144.365 836.81 144.363L831.81 144.362ZM831.81 144.367V139.367H831.808V144.367V149.367H831.81V144.367ZM831.808 144.367V139.367C761.496 139.367 703.669 191.311 703.669 256.361L708.669 256.361L713.669 256.361C713.669 197.706 766.105 149.367 831.808 149.367V144.367ZM708.669 256.361H703.669C703.669 256.396 703.669 256.452 703.669 256.499L708.669 256.493L713.669 256.487C713.669 256.447 713.669 256.414 713.669 256.361H708.669ZM708.669 256.493L708.453 251.498C708.506 251.496 708.554 251.494 708.594 251.494C708.634 251.493 708.668 251.493 708.695 251.493C708.721 251.493 708.742 251.494 708.755 251.494C708.761 251.494 708.766 251.494 708.769 251.494C708.772 251.494 708.775 251.494 708.774 251.494C708.774 251.494 708.774 251.494 708.774 251.494C708.773 251.494 708.773 251.494 708.773 251.494C708.772 251.494 708.77 251.494 708.769 251.494C708.765 251.494 708.76 251.494 708.753 251.494C708.74 251.494 708.718 251.493 708.692 251.493C708.665 251.493 708.63 251.493 708.589 251.494C708.549 251.494 708.501 251.496 708.447 251.498L708.663 256.493L708.88 261.488C708.826 261.491 708.778 261.492 708.738 261.493C708.698 261.493 708.664 261.493 708.638 261.493C708.611 261.493 708.59 261.493 708.578 261.492C708.571 261.492 708.566 261.492 708.563 261.492C708.56 261.492 708.557 261.492 708.558 261.492C708.558 261.492 708.558 261.492 708.558 261.492C708.559 261.492 708.559 261.492 708.559 261.492C708.56 261.492 708.562 261.492 708.563 261.492C708.567 261.492 708.572 261.492 708.579 261.492C708.592 261.493 708.614 261.493 708.64 261.493C708.667 261.493 708.702 261.493 708.743 261.493C708.783 261.492 708.831 261.491 708.885 261.488L708.669 256.493ZM708.663 256.493L713.663 256.499C713.663 256.506 713.663 256.509 713.663 256.481C713.664 256.462 713.664 256.414 713.664 256.361H708.664H703.664C703.664 256.352 703.664 256.348 703.664 256.373C703.664 256.39 703.663 256.437 703.663 256.487L708.663 256.493ZM708.664 256.361L713.664 256.361C713.664 191.353 655.912 139.434 585.662 139.367L585.657 144.367L585.652 149.367C651.296 149.43 703.664 197.743 703.664 256.361L708.664 256.361ZM585.657 144.367L590.374 142.708C590.432 142.874 590.475 143.024 590.507 143.151C590.523 143.215 590.537 143.274 590.548 143.327C590.559 143.38 590.568 143.428 590.576 143.471C590.584 143.513 590.59 143.55 590.595 143.582C590.6 143.613 590.604 143.64 590.607 143.661C590.61 143.681 590.612 143.698 590.613 143.708C590.614 143.713 590.615 143.717 590.615 143.72C590.615 143.722 590.615 143.724 590.615 143.723C590.615 143.723 590.615 143.723 590.615 143.723C590.615 143.723 590.615 143.723 590.615 143.723C590.615 143.723 590.615 143.723 590.615 143.722C590.615 143.722 590.615 143.721 590.615 143.719C590.615 143.717 590.614 143.712 590.613 143.707C590.612 143.697 590.61 143.68 590.607 143.66C590.604 143.639 590.6 143.611 590.595 143.58C590.59 143.548 590.583 143.51 590.576 143.468C590.568 143.426 590.559 143.377 590.547 143.324C590.536 143.271 590.523 143.212 590.506 143.148C590.475 143.02 590.431 142.869 590.373 142.703L585.656 144.362L580.94 146.022C580.881 145.856 580.838 145.705 580.806 145.578C580.79 145.514 580.777 145.456 580.766 145.402C580.754 145.349 580.745 145.301 580.737 145.259C580.73 145.217 580.723 145.179 580.718 145.148C580.713 145.116 580.71 145.089 580.707 145.069C580.704 145.048 580.701 145.032 580.7 145.022C580.699 145.016 580.699 145.012 580.699 145.01C580.698 145.008 580.698 145.006 580.698 145.006C580.698 145.006 580.698 145.006 580.698 145.006C580.698 145.006 580.698 145.006 580.698 145.006C580.698 145.007 580.698 145.007 580.698 145.007C580.698 145.008 580.698 145.009 580.699 145.01C580.699 145.013 580.699 145.017 580.7 145.022C580.701 145.032 580.704 145.049 580.707 145.07C580.71 145.091 580.714 145.118 580.719 145.15C580.724 145.181 580.73 145.219 580.738 145.261C580.745 145.304 580.755 145.352 580.766 145.405C580.777 145.459 580.791 145.518 580.807 145.582C580.839 145.709 580.882 145.86 580.941 146.027L585.657 144.367ZM585.656 144.362L585.661 149.362C655.912 149.296 713.664 97.3767 713.664 32.3682H708.664H703.664C703.664 90.9867 651.296 139.3 585.652 139.362L585.656 144.362ZM708.664 32.3682L713.664 32.3681C713.664 31.0334 713.637 29.7089 713.589 28.3954L708.593 28.5781L703.596 28.7608C703.64 29.9638 703.664 31.1661 703.664 32.3682L708.664 32.3682ZM708.593 28.5781L708.59 33.5781C708.567 33.5781 708.55 33.5779 708.543 33.5778C708.536 33.5777 708.532 33.5776 708.541 33.5778C708.546 33.5779 708.564 33.5782 708.584 33.5785C708.605 33.5788 708.635 33.5791 708.672 33.5791V28.5791V23.5791C708.695 23.5791 708.713 23.5793 708.721 23.5794C708.727 23.5795 708.732 23.5796 708.724 23.5795C708.72 23.5794 708.702 23.579 708.682 23.5788C708.662 23.5785 708.632 23.5781 708.596 23.5781L708.593 28.5781ZM708.672 28.5791L708.672 33.5791C708.713 33.5791 708.747 33.5787 708.769 33.5783C708.791 33.578 708.81 33.5775 708.814 33.5774C708.822 33.5773 708.814 33.5775 708.804 33.5776C708.793 33.5778 708.771 33.5781 708.742 33.5781L708.739 28.5781L708.737 23.5781C708.697 23.5781 708.663 23.5786 708.64 23.579C708.62 23.5793 708.601 23.5797 708.598 23.5798C708.59 23.5799 708.598 23.5798 708.608 23.5796C708.62 23.5794 708.642 23.5791 708.672 23.5791L708.672 28.5791Z" fill="#B50D0D" mask="url(#path-31-inside-10_531_21007)"/>
<path d="M242.165 78C242.244 113.895 271.727 142.977 308.115 143.058V143.059C271.727 143.139 242.246 172.222 242.165 208.116H242.159C242.08 172.813 213.56 144.099 178 143.087V143.03C213.56 142.018 242.081 113.305 242.159 78H242.165Z" fill="#EECB1D"/>
<mask id="path-34-inside-11_531_21007" fill="white">
<path d="M242.33 91.0137C242.311 91.5877 242.301 92.1645 242.301 92.7432C242.301 120.887 265.326 143.705 293.745 143.745C265.326 143.785 242.301 166.605 242.301 194.749C242.301 194.769 242.301 194.789 242.301 194.81C242.299 194.81 242.298 194.81 242.296 194.811C242.296 194.79 242.297 194.77 242.297 194.749C242.297 166.605 219.271 143.784 190.852 143.745C219.271 143.706 242.297 120.887 242.297 92.7432C242.297 92.1645 242.286 91.5877 242.267 91.0137C242.277 91.0137 242.288 91.0146 242.299 91.0146C242.309 91.0146 242.32 91.0137 242.33 91.0137Z"/>
</mask>
<path d="M242.33 91.0137L247.327 91.1818L247.501 86.0106L242.327 86.0137L242.33 91.0137ZM242.301 92.7432H237.301V92.7432L242.301 92.7432ZM293.745 143.745L293.752 148.745V138.745L293.745 143.745ZM242.301 194.749L237.301 194.749V194.749H242.301ZM242.301 194.81L242.536 199.804L247.306 199.579L247.301 194.804L242.301 194.81ZM242.296 194.811L237.296 194.805L237.29 200.052L242.532 199.805L242.296 194.811ZM242.297 194.749H247.297V194.749L242.297 194.749ZM190.852 143.745L190.845 138.745L190.845 148.745L190.852 143.745ZM242.297 92.7432L247.297 92.7432V92.7432H242.297ZM242.267 91.0137L242.27 86.0137L237.095 86.0105L237.269 91.1818L242.267 91.0137ZM242.299 91.0146V96.0146H242.299L242.299 91.0146ZM242.33 91.0137L237.333 90.8455C237.312 91.4742 237.301 92.107 237.301 92.7432H242.301H247.301C247.301 92.222 247.31 91.7012 247.327 91.1818L242.33 91.0137ZM242.301 92.7432L237.301 92.7432C237.301 123.693 262.609 148.702 293.738 148.745L293.745 143.745L293.752 138.745C268.044 138.709 247.301 118.081 247.301 92.7431L242.301 92.7432ZM293.745 143.745L293.738 138.745C262.608 138.789 237.301 163.799 237.301 194.749L242.301 194.749L247.301 194.749C247.301 169.411 268.044 148.781 293.752 148.745L293.745 143.745ZM242.301 194.749H237.301C237.301 194.761 237.301 194.792 237.301 194.815L242.301 194.81L247.301 194.804C247.301 194.787 247.301 194.777 247.301 194.749H242.301ZM242.301 194.81L242.066 189.815C241.877 189.824 241.711 189.843 241.572 189.863C241.503 189.873 241.439 189.884 241.382 189.895C241.325 189.905 241.274 189.916 241.229 189.926C241.184 189.936 241.144 189.945 241.111 189.953C241.078 189.961 241.05 189.968 241.028 189.974C241.007 189.98 240.99 189.984 240.979 189.987C240.974 189.989 240.969 189.99 240.967 189.991C240.965 189.991 240.964 189.991 240.964 189.992C240.963 189.992 240.963 189.992 240.963 189.992C240.963 189.992 240.963 189.992 240.963 189.992C240.962 189.992 240.962 189.992 240.962 189.992C240.962 189.992 240.964 189.991 240.966 189.991C240.969 189.99 240.973 189.989 240.978 189.987C240.989 189.985 241.006 189.98 241.027 189.974C241.049 189.969 241.077 189.962 241.109 189.953C241.142 189.945 241.182 189.936 241.226 189.926C241.271 189.917 241.322 189.906 241.379 189.895C241.435 189.885 241.499 189.874 241.568 189.864C241.706 189.843 241.872 189.825 242.06 189.816L242.296 194.811L242.532 199.805C242.72 199.796 242.886 199.778 243.025 199.757C243.094 199.747 243.158 199.736 243.215 199.725C243.272 199.715 243.323 199.704 243.368 199.694C243.413 199.685 243.452 199.675 243.485 199.667C243.518 199.659 243.547 199.652 243.568 199.646C243.59 199.64 243.607 199.636 243.618 199.633C243.623 199.631 243.627 199.63 243.63 199.629C243.631 199.629 243.632 199.629 243.633 199.629C243.634 199.628 243.634 199.628 243.634 199.628C243.634 199.628 243.634 199.628 243.634 199.628C243.634 199.628 243.634 199.628 243.634 199.628C243.635 199.628 243.633 199.629 243.63 199.629C243.628 199.63 243.624 199.631 243.618 199.633C243.608 199.636 243.591 199.64 243.569 199.646C243.548 199.651 243.52 199.659 243.487 199.667C243.454 199.675 243.415 199.684 243.37 199.694C243.326 199.704 243.275 199.714 243.218 199.725C243.161 199.735 243.097 199.746 243.028 199.756C242.89 199.777 242.724 199.795 242.536 199.804L242.301 194.81ZM242.296 194.811L247.296 194.817C247.296 194.848 247.295 194.873 247.295 194.886C247.295 194.896 247.295 194.905 247.295 194.897C247.295 194.894 247.296 194.874 247.296 194.852C247.296 194.828 247.297 194.792 247.297 194.749H242.297H237.297C237.297 194.716 237.297 194.691 237.297 194.677C237.298 194.67 237.298 194.665 237.298 194.663C237.298 194.661 237.298 194.659 237.298 194.662C237.298 194.664 237.298 194.67 237.297 194.676C237.297 194.683 237.297 194.693 237.297 194.705C237.296 194.728 237.296 194.763 237.296 194.805L242.296 194.811ZM242.297 194.749L247.297 194.749C247.297 163.799 221.989 138.788 190.858 138.745L190.852 143.745L190.845 148.745C216.553 148.781 237.297 169.411 237.297 194.749L242.297 194.749ZM190.852 143.745L190.858 148.745C221.988 148.702 247.297 123.694 247.297 92.7432L242.297 92.7432L237.297 92.7431C237.297 118.081 216.553 138.71 190.845 138.745L190.852 143.745ZM242.297 92.7432H247.297C247.297 92.1016 247.285 91.4683 247.264 90.8455L242.267 91.0137L237.269 91.1818C237.287 91.7071 237.297 92.2274 237.297 92.7432H242.297ZM242.267 91.0137L242.264 96.0137C242.228 96.0136 242.196 96.0132 242.169 96.0127C242.143 96.0122 242.121 96.0115 242.104 96.0109C242.087 96.0103 242.074 96.0098 242.066 96.0095C242.06 96.0092 242.054 96.0089 242.057 96.0091C242.057 96.0091 242.065 96.0094 242.075 96.0099C242.085 96.0103 242.102 96.011 242.121 96.0116C242.141 96.0123 242.167 96.013 242.196 96.0136C242.225 96.0142 242.26 96.0146 242.299 96.0146V91.0146V86.0146C242.335 86.0146 242.367 86.0151 242.394 86.0156C242.42 86.0161 242.443 86.0168 242.46 86.0174C242.477 86.0179 242.491 86.0185 242.498 86.0188C242.505 86.0191 242.511 86.0194 242.509 86.0193C242.508 86.0193 242.506 86.0192 242.503 86.019C242.501 86.0189 242.496 86.0187 242.491 86.0185C242.481 86.0181 242.465 86.0174 242.446 86.0167C242.426 86.0161 242.401 86.0153 242.372 86.0147C242.343 86.0142 242.308 86.0137 242.27 86.0137L242.267 91.0137ZM242.299 91.0146L242.299 96.0146C242.339 96.0146 242.374 96.0142 242.405 96.0136C242.435 96.013 242.461 96.0122 242.481 96.0114C242.502 96.0107 242.518 96.01 242.529 96.0096C242.539 96.0091 242.548 96.0087 242.548 96.0087C242.551 96.0086 242.545 96.0089 242.538 96.0092C242.53 96.0095 242.516 96.0101 242.498 96.0107C242.481 96.0113 242.458 96.0121 242.43 96.0126C242.403 96.0132 242.37 96.0136 242.333 96.0137L242.33 91.0137L242.327 86.0137C242.287 86.0137 242.252 86.0142 242.222 86.0148C242.192 86.0154 242.166 86.0162 242.146 86.0169C242.126 86.0176 242.109 86.0183 242.099 86.0188C242.094 86.019 242.089 86.0192 242.086 86.0194C242.084 86.0195 242.081 86.0196 242.081 86.0196C242.08 86.0197 242.081 86.0196 242.083 86.0195C242.085 86.0194 242.088 86.0193 242.092 86.0191C242.1 86.0188 242.114 86.0182 242.132 86.0176C242.15 86.0169 242.173 86.0162 242.201 86.0156C242.228 86.0151 242.261 86.0146 242.299 86.0146L242.299 91.0146Z" fill="#EECB1D" mask="url(#path-34-inside-11_531_21007)"/>
<path d="M242.165 78C242.244 113.895 271.727 142.977 308.115 143.058V143.059C271.727 143.139 242.246 172.222 242.165 208.116H242.159C242.08 172.813 213.56 144.099 178 143.087V143.03C213.56 142.018 242.081 113.305 242.159 78H242.165Z" fill="#EECB1D"/>
<mask id="path-37-inside-12_531_21007" fill="white">
<path d="M242.33 91.0137C242.311 91.5877 242.301 92.1645 242.301 92.7432C242.301 120.887 265.326 143.705 293.745 143.745C265.326 143.785 242.301 166.605 242.301 194.749C242.301 194.769 242.301 194.789 242.301 194.81C242.299 194.81 242.298 194.81 242.296 194.811C242.296 194.79 242.297 194.77 242.297 194.749C242.297 166.605 219.271 143.784 190.852 143.745C219.271 143.706 242.297 120.887 242.297 92.7432C242.297 92.1645 242.286 91.5877 242.267 91.0137C242.277 91.0137 242.288 91.0146 242.299 91.0146C242.309 91.0146 242.32 91.0137 242.33 91.0137Z"/>
</mask>
<path d="M242.33 91.0137L247.327 91.1818L247.501 86.0106L242.327 86.0137L242.33 91.0137ZM242.301 92.7432H237.301V92.7432L242.301 92.7432ZM293.745 143.745L293.752 148.745V138.745L293.745 143.745ZM242.301 194.749L237.301 194.749V194.749H242.301ZM242.301 194.81L242.536 199.804L247.306 199.579L247.301 194.804L242.301 194.81ZM242.296 194.811L237.296 194.805L237.29 200.052L242.532 199.805L242.296 194.811ZM242.297 194.749H247.297V194.749L242.297 194.749ZM190.852 143.745L190.845 138.745L190.845 148.745L190.852 143.745ZM242.297 92.7432L247.297 92.7432V92.7432H242.297ZM242.267 91.0137L242.27 86.0137L237.095 86.0105L237.269 91.1818L242.267 91.0137ZM242.299 91.0146V96.0146H242.299L242.299 91.0146ZM242.33 91.0137L237.333 90.8455C237.312 91.4742 237.301 92.107 237.301 92.7432H242.301H247.301C247.301 92.222 247.31 91.7012 247.327 91.1818L242.33 91.0137ZM242.301 92.7432L237.301 92.7432C237.301 123.693 262.609 148.702 293.738 148.745L293.745 143.745L293.752 138.745C268.044 138.709 247.301 118.081 247.301 92.7431L242.301 92.7432ZM293.745 143.745L293.738 138.745C262.608 138.789 237.301 163.799 237.301 194.749L242.301 194.749L247.301 194.749C247.301 169.411 268.044 148.781 293.752 148.745L293.745 143.745ZM242.301 194.749H237.301C237.301 194.761 237.301 194.792 237.301 194.815L242.301 194.81L247.301 194.804C247.301 194.787 247.301 194.777 247.301 194.749H242.301ZM242.301 194.81L242.066 189.815C241.877 189.824 241.711 189.843 241.572 189.863C241.503 189.873 241.439 189.884 241.382 189.895C241.325 189.905 241.274 189.916 241.229 189.926C241.184 189.936 241.144 189.945 241.111 189.953C241.078 189.961 241.05 189.968 241.028 189.974C241.007 189.98 240.99 189.984 240.979 189.987C240.974 189.989 240.969 189.99 240.967 189.991C240.965 189.991 240.964 189.991 240.964 189.992C240.963 189.992 240.963 189.992 240.963 189.992C240.963 189.992 240.963 189.992 240.963 189.992C240.962 189.992 240.962 189.992 240.962 189.992C240.962 189.992 240.964 189.991 240.966 189.991C240.969 189.99 240.973 189.989 240.978 189.987C240.989 189.985 241.006 189.98 241.027 189.974C241.049 189.969 241.077 189.962 241.109 189.953C241.142 189.945 241.182 189.936 241.226 189.926C241.271 189.917 241.322 189.906 241.379 189.895C241.435 189.885 241.499 189.874 241.568 189.864C241.706 189.843 241.872 189.825 242.06 189.816L242.296 194.811L242.532 199.805C242.72 199.796 242.886 199.778 243.025 199.757C243.094 199.747 243.158 199.736 243.215 199.725C243.272 199.715 243.323 199.704 243.368 199.694C243.413 199.685 243.452 199.675 243.485 199.667C243.518 199.659 243.547 199.652 243.568 199.646C243.59 199.64 243.607 199.636 243.618 199.633C243.623 199.631 243.627 199.63 243.63 199.629C243.631 199.629 243.632 199.629 243.633 199.629C243.634 199.628 243.634 199.628 243.634 199.628C243.634 199.628 243.634 199.628 243.634 199.628C243.634 199.628 243.634 199.628 243.634 199.628C243.635 199.628 243.633 199.629 243.63 199.629C243.628 199.63 243.624 199.631 243.618 199.633C243.608 199.636 243.591 199.64 243.569 199.646C243.548 199.651 243.52 199.659 243.487 199.667C243.454 199.675 243.415 199.684 243.37 199.694C243.326 199.704 243.275 199.714 243.218 199.725C243.161 199.735 243.097 199.746 243.028 199.756C242.89 199.777 242.724 199.795 242.536 199.804L242.301 194.81ZM242.296 194.811L247.296 194.817C247.296 194.848 247.295 194.873 247.295 194.886C247.295 194.896 247.295 194.905 247.295 194.897C247.295 194.894 247.296 194.874 247.296 194.852C247.296 194.828 247.297 194.792 247.297 194.749H242.297H237.297C237.297 194.716 237.297 194.691 237.297 194.677C237.298 194.67 237.298 194.665 237.298 194.663C237.298 194.661 237.298 194.659 237.298 194.662C237.298 194.664 237.298 194.67 237.297 194.676C237.297 194.683 237.297 194.693 237.297 194.705C237.296 194.728 237.296 194.763 237.296 194.805L242.296 194.811ZM242.297 194.749L247.297 194.749C247.297 163.799 221.989 138.788 190.858 138.745L190.852 143.745L190.845 148.745C216.553 148.781 237.297 169.411 237.297 194.749L242.297 194.749ZM190.852 143.745L190.858 148.745C221.988 148.702 247.297 123.694 247.297 92.7432L242.297 92.7432L237.297 92.7431C237.297 118.081 216.553 138.71 190.845 138.745L190.852 143.745ZM242.297 92.7432H247.297C247.297 92.1016 247.285 91.4683 247.264 90.8455L242.267 91.0137L237.269 91.1818C237.287 91.7071 237.297 92.2274 237.297 92.7432H242.297ZM242.267 91.0137L242.264 96.0137C242.228 96.0136 242.196 96.0132 242.169 96.0127C242.143 96.0122 242.121 96.0115 242.104 96.0109C242.087 96.0103 242.074 96.0098 242.066 96.0095C242.06 96.0092 242.054 96.0089 242.057 96.0091C242.057 96.0091 242.065 96.0094 242.075 96.0099C242.085 96.0103 242.102 96.011 242.121 96.0116C242.141 96.0123 242.167 96.013 242.196 96.0136C242.225 96.0142 242.26 96.0146 242.299 96.0146V91.0146V86.0146C242.335 86.0146 242.367 86.0151 242.394 86.0156C242.42 86.0161 242.443 86.0168 242.46 86.0174C242.477 86.0179 242.491 86.0185 242.498 86.0188C242.505 86.0191 242.511 86.0194 242.509 86.0193C242.508 86.0193 242.506 86.0192 242.503 86.019C242.501 86.0189 242.496 86.0187 242.491 86.0185C242.481 86.0181 242.465 86.0174 242.446 86.0167C242.426 86.0161 242.401 86.0153 242.372 86.0147C242.343 86.0142 242.308 86.0137 242.27 86.0137L242.267 91.0137ZM242.299 91.0146L242.299 96.0146C242.339 96.0146 242.374 96.0142 242.405 96.0136C242.435 96.013 242.461 96.0122 242.481 96.0114C242.502 96.0107 242.518 96.01 242.529 96.0096C242.539 96.0091 242.548 96.0087 242.548 96.0087C242.551 96.0086 242.545 96.0089 242.538 96.0092C242.53 96.0095 242.516 96.0101 242.498 96.0107C242.481 96.0113 242.458 96.0121 242.43 96.0126C242.403 96.0132 242.37 96.0136 242.333 96.0137L242.33 91.0137L242.327 86.0137C242.287 86.0137 242.252 86.0142 242.222 86.0148C242.192 86.0154 242.166 86.0162 242.146 86.0169C242.126 86.0176 242.109 86.0183 242.099 86.0188C242.094 86.019 242.089 86.0192 242.086 86.0194C242.084 86.0195 242.081 86.0196 242.081 86.0196C242.08 86.0197 242.081 86.0196 242.083 86.0195C242.085 86.0194 242.088 86.0193 242.092 86.0191C242.1 86.0188 242.114 86.0182 242.132 86.0176C242.15 86.0169 242.173 86.0162 242.201 86.0156C242.228 86.0151 242.261 86.0146 242.299 86.0146L242.299 91.0146Z" fill="#EECB1D" mask="url(#path-37-inside-12_531_21007)"/>
<path d="M65.8916 99C65.946 123.553 86.1124 143.445 111.003 143.5V143.501C86.1127 143.556 65.9465 163.449 65.8916 188.002H65.8857C65.8317 163.854 46.3234 144.214 22 143.521V143.48C46.3237 142.788 65.8322 123.149 65.8857 99H65.8916Z" fill="#BF46D7"/>
<mask id="path-40-inside-13_531_21007" fill="white">
<path d="M66.0049 107.9C65.9917 108.293 65.9834 108.687 65.9834 109.083C65.9836 128.338 81.7399 143.948 101.185 143.969C81.7399 143.989 65.9835 159.6 65.9834 178.855C65.9834 178.869 65.9834 178.883 65.9834 178.896H65.9824C65.9824 178.883 65.9834 178.869 65.9834 178.855C65.9833 159.6 50.2261 143.989 30.7812 143.969C50.2261 143.949 65.9832 128.338 65.9834 109.083C65.9834 108.687 65.9732 108.293 65.96 107.9C65.9677 107.9 65.9757 107.901 65.9834 107.901C65.9906 107.901 65.9977 107.9 66.0049 107.9Z"/>
</mask>
<path d="M66.0049 107.9L71.0021 108.068L71.176 102.897L66.0019 102.9L66.0049 107.9ZM101.185 143.969L101.19 148.969V138.969L101.185 143.969ZM65.9834 178.896V183.896H70.9892L70.9834 178.891L65.9834 178.896ZM65.9824 178.896L60.9824 178.891L60.9766 183.896H65.9824V178.896ZM30.7812 143.969L30.7761 138.969L30.7761 148.969L30.7812 143.969ZM65.96 107.9L65.9631 102.9L60.7888 102.897L60.9628 108.068L65.96 107.9ZM65.9834 107.901V112.901H65.9834L65.9834 107.901ZM66.0049 107.9L61.0077 107.732C60.9931 108.166 60.9834 108.618 60.9834 109.083H65.9834H70.9834C70.9834 108.756 70.9902 108.42 71.0021 108.068L66.0049 107.9ZM65.9834 109.083L60.9834 109.083C60.9836 131.145 79.0232 148.946 101.179 148.969L101.185 143.969L101.19 138.969C84.4567 138.951 70.9836 125.531 70.9834 109.083L65.9834 109.083ZM101.185 143.969L101.179 138.969C79.0229 138.992 60.9835 156.794 60.9834 178.855L65.9834 178.855L70.9834 178.855C70.9835 162.407 84.4568 148.986 101.19 148.969L101.185 143.969ZM65.9834 178.855H60.9834C60.9834 178.861 60.9834 178.885 60.9834 178.902L65.9834 178.896L70.9834 178.891C70.9834 178.88 70.9834 178.877 70.9834 178.855H65.9834ZM65.9834 178.896V173.896H65.9824V178.896V183.896H65.9834V178.896ZM65.9824 178.896L70.9824 178.902C70.9824 178.955 70.9814 178.997 70.9808 179.021C70.9804 179.033 70.9801 179.043 70.98 179.048C70.9798 179.052 70.9797 179.056 70.9798 179.053C70.9798 179.052 70.9801 179.044 70.9804 179.036C70.9807 179.027 70.9811 179.014 70.9815 178.998C70.9823 178.966 70.9834 178.916 70.9834 178.855H65.9834H60.9834C60.9834 178.801 60.9843 178.758 60.985 178.734C60.9853 178.721 60.9856 178.711 60.9858 178.706C60.986 178.701 60.9861 178.697 60.986 178.699C60.986 178.7 60.9858 178.707 60.9855 178.714C60.9852 178.723 60.9848 178.736 60.9844 178.751C60.9836 178.782 60.9825 178.831 60.9824 178.891L65.9824 178.896ZM65.9834 178.855L70.9834 178.855C70.9833 156.793 52.9429 138.992 30.7864 138.969L30.7812 143.969L30.7761 148.969C47.5094 148.986 60.9833 162.407 60.9834 178.855L65.9834 178.855ZM30.7812 143.969L30.7864 148.969C52.9427 148.946 70.9832 131.145 70.9834 109.083L65.9834 109.083L60.9834 109.083C60.9832 125.531 47.5095 138.952 30.7761 138.969L30.7812 143.969ZM65.9834 109.083H70.9834C70.9834 108.605 70.9711 108.147 70.9571 107.732L65.96 107.9L60.9628 108.068C60.9753 108.439 60.9834 108.77 60.9834 109.083H65.9834ZM65.96 107.9L65.9568 112.9C65.9059 112.9 65.861 112.9 65.8239 112.899C65.7868 112.897 65.7553 112.896 65.7314 112.895C65.7078 112.894 65.6888 112.893 65.678 112.892C65.6724 112.892 65.6679 112.892 65.6655 112.891C65.6633 112.891 65.6615 112.891 65.6625 112.891C65.6626 112.891 65.6655 112.891 65.6688 112.892C65.6724 112.892 65.6779 112.892 65.6846 112.893C65.6978 112.893 65.7189 112.895 65.7448 112.896C65.7709 112.897 65.8046 112.898 65.8439 112.899C65.8833 112.901 65.9303 112.901 65.9834 112.901V107.901V102.901C66.0346 102.901 66.0797 102.902 66.1171 102.903C66.1544 102.904 66.1862 102.906 66.2103 102.907C66.2343 102.908 66.2535 102.909 66.2646 102.909C66.2703 102.91 66.2749 102.91 66.2775 102.91C66.2798 102.91 66.2817 102.911 66.2809 102.91C66.2809 102.91 66.2781 102.91 66.2749 102.91C66.2715 102.91 66.2661 102.91 66.2595 102.909C66.2467 102.908 66.2258 102.907 66.2001 102.906C66.1743 102.905 66.1409 102.903 66.1018 102.902C66.0627 102.901 66.016 102.9 65.9631 102.9L65.96 107.9ZM65.9834 107.901L65.9834 112.901C66.0406 112.901 66.0915 112.9 66.1346 112.899C66.1775 112.898 66.2144 112.896 66.2432 112.895C66.2717 112.893 66.295 112.892 66.3094 112.891C66.3168 112.89 66.3229 112.89 66.3267 112.89C66.3303 112.89 66.3334 112.889 66.3335 112.889C66.3345 112.889 66.3323 112.889 66.3298 112.89C66.3269 112.89 66.3219 112.89 66.3155 112.891C66.3031 112.891 66.2819 112.893 66.2554 112.894C66.2287 112.895 66.1938 112.897 66.1529 112.898C66.1119 112.899 66.0631 112.9 66.0079 112.9L66.0049 107.9L66.0019 102.9C65.9449 102.9 65.8943 102.901 65.8515 102.903C65.8088 102.904 65.7721 102.906 65.7436 102.907C65.7153 102.909 65.6923 102.91 65.6781 102.911C65.6709 102.911 65.6649 102.912 65.6612 102.912C65.6593 102.912 65.6577 102.912 65.6567 102.912C65.6557 102.912 65.6548 102.912 65.6548 102.912C65.654 102.912 65.6562 102.912 65.6589 102.912C65.6618 102.912 65.667 102.912 65.6735 102.911C65.6862 102.91 65.7076 102.909 65.7344 102.908C65.7613 102.906 65.7965 102.905 65.8376 102.904C65.8788 102.902 65.9279 102.901 65.9834 102.901L65.9834 107.901Z" fill="#BF46D7" mask="url(#path-40-inside-13_531_21007)"/>
</svg>
