<svg width="1278" height="1016" viewBox="0 0 1278 1016" fill="none" xmlns="http://www.w3.org/2000/svg">
<g clip-path="url(#clip0_447_18430)">
<ellipse cx="254.147" cy="177.663" rx="254.147" ry="177.663" transform="matrix(-1 0 0 1 1070.65 402.123)" fill="#C92525"/>
<ellipse cx="254.147" cy="177.663" rx="254.147" ry="177.663" transform="matrix(-1 0 0 1 737.016 504.504)" fill="#C92525"/>
<ellipse cx="254.147" cy="177.663" rx="254.147" ry="177.663" transform="matrix(-1 0 0 1 482.863 46.7969)" fill="#C92525"/>
<ellipse cx="254.147" cy="177.663" rx="254.147" ry="177.663" transform="matrix(-1 0 0 1 360.828 607.748)" fill="#C92525"/>
<ellipse cx="254.147" cy="177.663" rx="254.147" ry="177.663" transform="matrix(-1 0 0 1 913.902 47.6582)" fill="#C92525"/>
<ellipse cx="254.147" cy="177.663" rx="254.147" ry="177.663" transform="matrix(-1 0 0 1 1245.3 198.219)" fill="#C92525"/>
<ellipse cx="215.521" cy="154.003" rx="215.521" ry="154.003" transform="matrix(-1 0 0 1 382.094 552.686)" fill="#C92525"/>
<ellipse cx="215.521" cy="154.003" rx="215.521" ry="154.003" transform="matrix(-1 0 0 1 752.676 458.906)" fill="#C92525"/>
<ellipse cx="215.521" cy="154.003" rx="215.521" ry="154.003" transform="matrix(-1 0 0 1 613.852 458.906)" fill="#C92525"/>
<ellipse cx="215.521" cy="154.003" rx="215.521" ry="154.003" transform="matrix(-1 0 0 1 276.855 505.365)" fill="#C92525"/>
<ellipse cx="215.521" cy="154.003" rx="215.521" ry="154.003" transform="matrix(-1 0 0 1 1038.18 325.551)" fill="#C92525"/>
<ellipse cx="215.521" cy="154.003" rx="215.521" ry="154.003" transform="matrix(-1 0 0 1 913.898 196.498)" fill="#C92525"/>
<ellipse cx="215.521" cy="154.003" rx="215.521" ry="154.003" transform="matrix(-1 0 0 1 638.48 220.588)" fill="#C92525"/>
<ellipse cx="215.521" cy="154.003" rx="215.521" ry="154.003" transform="matrix(-1 0 0 1 443.672 227.475)" fill="#C92525"/>
<ellipse cx="215.521" cy="154.003" rx="215.521" ry="154.003" transform="matrix(-1 0 0 1 328.359 206.82)" fill="#C92525"/>
<ellipse cx="215.521" cy="154.003" rx="215.521" ry="154.003" transform="matrix(-1 0 0 1 382.094 374.592)" fill="#C92525"/>
<path d="M127.552 399.902C253.409 441.052 400.625 402.321 456.872 314.536C513.12 226.751 457.939 121.845 332.082 80.6957C206.224 39.5461 59.0083 78.2773 2.76075 166.062C-53.4867 253.847 1.69445 358.753 127.552 399.902Z" stroke="white" stroke-width="4.26746"/>
<path d="M561.992 393.862C684.785 434.01 828.229 396.452 882.896 311.134C937.563 225.816 883.603 123.717 760.81 83.5692C638.017 43.4214 494.573 80.9781 439.905 166.296C385.238 251.614 439.198 353.714 561.992 393.862Z" stroke="white" stroke-width="4.26746"/>
<path d="M716.992 724.971C839.785 765.119 983.229 727.561 1037.9 642.243C1092.56 556.925 1038.6 454.827 915.81 414.679C793.017 374.531 649.573 412.087 594.905 497.405C540.238 582.723 594.198 684.823 716.992 724.971Z" stroke="white" stroke-width="4.26746"/>
<path d="M383.992 818.971C506.785 859.119 650.229 821.561 704.896 736.243C759.563 650.925 705.603 548.827 582.81 508.679C460.017 468.531 316.573 506.087 261.905 591.405C207.238 676.723 261.198 778.823 383.992 818.971Z" stroke="white" stroke-width="4.26746"/>
<path d="M6.99153 930.971C129.785 971.119 273.229 933.561 327.896 848.243C382.563 762.925 328.603 660.827 205.81 620.679C83.0167 580.531 -60.4275 618.087 -115.095 703.405C-169.762 788.723 -115.802 890.823 6.99153 930.971Z" stroke="white" stroke-width="4.26746"/>
<path d="M898.006 517.53C1016.44 556.251 1153.72 521.47 1205.21 441.107C1256.71 360.744 1203.83 263.788 1085.4 225.067C966.971 186.346 829.685 221.128 778.193 301.49C726.701 381.853 779.577 478.809 898.006 517.53Z" stroke="white" stroke-width="4.26746"/>
<ellipse cx="241.017" cy="191.69" rx="241.017" ry="191.69" transform="matrix(0.950486 0.310766 0.539499 -0.841986 -145.684 439.6)" fill="#C92525"/>
<ellipse cx="241.017" cy="191.69" rx="241.017" ry="191.69" transform="matrix(0.950486 0.310766 0.539499 -0.841986 156.316 419.6)" fill="#C92525"/>
<ellipse cx="241.017" cy="191.69" rx="241.017" ry="191.69" transform="matrix(0.950486 0.310766 0.539499 -0.841986 428.316 452.6)" fill="#C92525"/>
<ellipse cx="241.017" cy="191.69" rx="241.017" ry="191.69" transform="matrix(0.950486 0.310766 0.539499 -0.841986 491.316 538.6)" fill="#C92525"/>
<ellipse cx="241.017" cy="191.69" rx="241.017" ry="191.69" transform="matrix(0.950486 0.310766 0.539499 -0.841986 303.316 639.6)" fill="#C92525"/>
<ellipse cx="241.017" cy="210.667" rx="241.017" ry="210.667" transform="matrix(0.950486 0.310766 0.539499 -0.841986 -110.684 740.557)" fill="#C92525"/>
</g>
<defs>
<clipPath id="clip0_447_18430">
<rect width="1278" height="1016" fill="white"/>
</clipPath>
</defs>
</svg>
