<svg width="300" height="300" viewBox="0 0 300 300" fill="none" xmlns="http://www.w3.org/2000/svg">
<path d="M147.939 0C148.125 82.7608 216.101 149.814 300 149.998V150.001C216.101 150.185 148.125 217.239 147.939 300.001H147.936C147.753 218.6 81.9912 152.394 0 150.064V149.934C81.9907 147.604 147.753 81.4001 147.936 0H147.939Z" fill="#C92525"/>
<mask id="path-2-inside-1_449_21251" fill="white">
<path d="M148.322 30.002C148.278 31.3244 148.254 32.6522 148.254 33.9854C148.254 98.9301 201.432 151.578 267.031 151.581V151.582C201.432 151.585 148.254 204.234 148.254 269.179C148.254 269.225 148.254 269.272 148.254 269.318C148.253 269.318 148.251 269.318 148.25 269.318C148.25 269.272 148.251 269.225 148.251 269.179C148.251 204.271 95.1343 151.646 29.5869 151.582L29.5859 151.581C95.1339 151.518 148.251 98.8931 148.251 33.9854C148.251 32.6522 148.226 31.3244 148.182 30.002H148.322Z"/>
</mask>
<path d="M148.322 30.002L153.319 30.17L153.493 25.002H148.322V30.002ZM148.254 33.9854L143.254 33.9853V33.9854H148.254ZM267.031 151.581H272.031V146.581L267.032 146.581L267.031 151.581ZM267.031 151.582L267.032 156.582L272.031 156.582V151.582H267.031ZM148.254 269.179L143.254 269.179V269.179H148.254ZM148.254 269.318L148.489 274.313L153.259 274.088L153.254 269.312L148.254 269.318ZM148.25 269.318L143.25 269.312L143.244 274.56L148.486 274.313L148.25 269.318ZM148.251 269.179H153.251V269.179L148.251 269.179ZM29.5869 151.582L26.0514 155.118L27.5138 156.58L29.582 156.582L29.5869 151.582ZM29.5859 151.581L29.5811 146.581L17.5265 146.593L26.0504 155.117L29.5859 151.581ZM148.251 33.9854H153.251V33.9853L148.251 33.9854ZM148.182 30.002V25.002H143.011L143.184 30.17L148.182 30.002ZM148.322 30.002L143.325 29.8339C143.279 31.2085 143.254 32.5925 143.254 33.9853L148.254 33.9854L153.254 33.9854C153.254 32.7119 153.277 31.4402 153.319 30.17L148.322 30.002ZM148.254 33.9854H143.254C143.254 101.739 198.718 156.577 267.031 156.581L267.031 151.581L267.032 146.581C204.146 146.578 153.254 96.1215 153.254 33.9854H148.254ZM267.031 151.581H262.031V151.582H267.031H272.031V151.581H267.031ZM267.031 151.582L267.031 146.582C198.718 146.586 143.254 201.426 143.254 269.179L148.254 269.179L153.254 269.179C153.254 207.043 204.146 156.585 267.032 156.582L267.031 151.582ZM148.254 269.179H143.254C143.254 269.217 143.254 269.274 143.254 269.324L148.254 269.318L153.254 269.312C153.254 269.27 153.254 269.233 153.254 269.179H148.254ZM148.254 269.318L148.018 264.324C148.077 264.321 148.129 264.32 148.173 264.319C148.216 264.318 148.254 264.318 148.282 264.318C148.311 264.319 148.334 264.319 148.348 264.319C148.355 264.319 148.361 264.32 148.364 264.32C148.367 264.32 148.37 264.32 148.369 264.32C148.369 264.32 148.369 264.32 148.369 264.32C148.369 264.32 148.369 264.32 148.369 264.32C148.369 264.32 148.368 264.32 148.368 264.32C148.367 264.32 148.366 264.32 148.364 264.32C148.36 264.32 148.354 264.319 148.347 264.319C148.333 264.319 148.309 264.319 148.28 264.318C148.251 264.318 148.213 264.318 148.169 264.319C148.125 264.32 148.073 264.321 148.014 264.324L148.25 269.318L148.486 274.313C148.427 274.316 148.375 274.317 148.331 274.318C148.288 274.318 148.25 274.318 148.222 274.318C148.193 274.318 148.17 274.318 148.156 274.317C148.149 274.317 148.143 274.317 148.14 274.317C148.137 274.317 148.134 274.317 148.134 274.317C148.134 274.317 148.135 274.317 148.135 274.317C148.135 274.317 148.135 274.317 148.135 274.317C148.135 274.317 148.135 274.317 148.136 274.317C148.137 274.317 148.138 274.317 148.14 274.317C148.144 274.317 148.15 274.317 148.157 274.317C148.171 274.318 148.195 274.318 148.223 274.318C148.253 274.318 148.29 274.318 148.334 274.318C148.378 274.317 148.431 274.316 148.489 274.313L148.254 269.318ZM148.25 269.318L153.25 269.324C153.25 269.328 153.25 269.328 153.25 269.299C153.25 269.279 153.251 269.231 153.251 269.179H148.251H143.251C143.251 269.173 143.251 269.171 143.251 269.198C143.251 269.216 143.25 269.263 143.25 269.312L148.25 269.318ZM148.251 269.179L153.251 269.179C153.251 201.465 97.8511 146.649 29.5918 146.582L29.5869 151.582L29.582 156.582C92.4175 156.643 143.251 207.078 143.251 269.179L148.251 269.179ZM29.5869 151.582L33.1224 148.047L33.1215 148.046L29.5859 151.581L26.0504 155.117L26.0514 155.118L29.5869 151.582ZM29.5859 151.581L29.5908 156.581C97.8506 156.515 153.251 101.7 153.251 33.9854H148.251H143.251C143.251 96.0861 92.4173 146.52 29.5811 146.581L29.5859 151.581ZM148.251 33.9854L153.251 33.9853C153.251 32.5902 153.225 31.206 153.179 29.8339L148.182 30.002L143.184 30.17C143.227 31.4428 143.251 32.7143 143.251 33.9854L148.251 33.9854ZM148.182 30.002V35.002H148.322V30.002V25.002H148.182V30.002Z" fill="white" mask="url(#path-2-inside-1_449_21251)"/>
</svg>
