<svg width="1311" height="878" viewBox="0 0 1311 878" fill="none" xmlns="http://www.w3.org/2000/svg">
<g clip-path="url(#clip0_508_15365)">
<ellipse cx="429.402" cy="660.193" rx="211.349" ry="152.412" transform="rotate(-18.7065 429.402 660.193)" fill="#552FEB"/>
<ellipse cx="720.371" cy="654.406" rx="211.349" ry="152.412" transform="rotate(-18.7065 720.371 654.406)" fill="#552FEB"/>
<ellipse cx="794.621" cy="214.703" rx="211.349" ry="152.412" transform="rotate(-18.7065 794.621 214.703)" fill="#552FEB"/>
<ellipse cx="932.633" cy="422" rx="211.349" ry="152.412" transform="rotate(-18.7065 932.633 422)" fill="#552FEB"/>
<ellipse cx="1045.07" cy="637.963" rx="211.349" ry="152.412" transform="rotate(-18.7065 1045.07 637.963)" fill="#552FEB"/>
<ellipse cx="455.332" cy="330.371" rx="211.349" ry="152.412" transform="rotate(-18.7065 455.332 330.371)" fill="#552FEB"/>
<ellipse cx="235.73" cy="541.09" rx="211.349" ry="152.412" transform="rotate(-18.7065 235.73 541.09)" fill="#552FEB"/>
<path d="M703.194 448.89C796.904 417.158 891.872 447.547 915.309 516.764C938.747 585.981 881.779 667.816 788.068 699.547C694.358 731.279 599.39 700.89 575.953 631.672C552.516 562.455 609.483 480.621 703.194 448.89Z" fill="#552FEB"/>
<path d="M703.194 448.89C796.904 417.158 891.872 447.547 915.309 516.764C938.747 585.981 881.779 667.816 788.068 699.547C694.358 731.279 599.39 700.89 575.953 631.672C552.516 562.455 609.483 480.621 703.194 448.89Z" stroke="#552FEB"/>
<ellipse cx="396.993" cy="580.382" rx="179.142" ry="131.692" transform="rotate(-18.7065 396.993 580.382)" fill="#552FEB"/>
<ellipse cx="820.438" cy="374.595" rx="179.142" ry="131.692" transform="rotate(-18.7065 820.438 374.595)" fill="#552FEB"/>
<ellipse cx="459.159" cy="442.134" rx="179.142" ry="132.319" transform="rotate(-18.7065 459.159 442.134)" fill="#552FEB"/>
<path d="M756.523 86.1303C807.788 68.7716 859.128 67.863 900.659 80.3341C942.195 92.8066 973.76 118.592 985.932 154.541C998.105 190.49 988.7 230.148 963.286 265.29C937.876 300.428 896.546 330.898 845.281 348.257C794.016 365.616 742.677 366.524 701.146 354.053C659.61 341.58 628.044 315.795 615.872 279.846C603.699 243.897 613.105 204.239 638.518 169.097C663.929 133.959 705.258 103.489 756.523 86.1303Z" stroke="white" stroke-width="3.87692"/>
<path d="M407.623 204.265C455.832 187.941 504.117 187.12 543.181 198.895C582.25 210.672 611.936 234.979 623.399 268.834C634.863 302.689 626.052 340.031 602.176 373.121C578.302 406.208 539.451 434.891 491.242 451.215C443.034 467.539 394.748 468.36 355.685 456.585C316.616 444.808 286.93 420.501 275.466 386.646C264.003 352.791 272.814 315.449 296.69 282.359C320.564 249.272 359.415 220.589 407.623 204.265Z" stroke="white" stroke-width="3.87692"/>
<path d="M179.081 420.83C227.289 404.506 275.575 403.684 314.638 415.46C353.707 427.236 383.393 451.543 394.856 485.398C406.32 519.253 397.509 556.596 373.633 589.686C349.759 622.772 310.908 651.456 262.699 667.779C214.491 684.103 166.205 684.925 127.142 673.149C88.0731 661.373 58.3871 637.066 46.9235 603.211C35.4599 569.356 44.271 532.013 68.1473 498.923C92.0208 465.837 130.872 437.153 179.081 420.83Z" stroke="white" stroke-width="3.87692"/>
<path d="M377.682 544.935C425.891 528.611 474.176 527.79 513.24 539.565C552.308 551.342 581.994 575.649 593.458 609.504C604.922 643.359 596.11 680.701 572.234 713.791C548.361 746.877 509.51 775.561 461.301 791.885C413.092 808.209 364.807 809.03 325.743 797.255C286.675 785.478 256.989 761.171 245.525 727.316C234.061 693.461 242.873 656.119 266.749 623.029C290.622 589.942 329.473 561.259 377.682 544.935Z" stroke="white" stroke-width="3.87692"/>
<path d="M680.752 536.457C728.961 520.133 777.246 519.311 816.31 531.086C855.379 542.863 885.065 567.17 896.528 601.025C907.992 634.88 899.181 672.223 875.304 705.313C851.431 738.399 812.58 767.082 764.371 783.406C716.162 799.73 667.877 800.552 628.813 788.776C589.745 777 560.059 752.693 548.595 718.838C537.132 684.983 545.943 647.64 569.819 614.55C593.693 581.464 632.544 552.78 680.752 536.457Z" stroke="white" stroke-width="3.87692"/>
<path d="M997.608 520.24C1045.82 503.916 1094.1 503.095 1133.17 514.87C1172.23 526.646 1201.92 550.953 1213.38 584.808C1224.85 618.663 1216.04 656.006 1192.16 689.096C1168.29 722.182 1129.44 750.866 1081.23 767.19C1033.02 783.513 984.733 784.335 945.669 772.56C906.6 760.783 876.914 736.476 865.451 702.621C853.987 668.766 862.798 631.423 886.675 598.333C910.548 565.247 949.399 536.564 997.608 520.24Z" stroke="white" stroke-width="3.87692"/>
<ellipse cx="923.839" cy="574.387" rx="185.607" ry="132.3" transform="rotate(-18.7065 923.839 574.387)" fill="#552FEB"/>
<ellipse cx="660.73" cy="607.195" rx="185.607" ry="132.3" transform="rotate(-18.7065 660.73 607.195)" fill="#552FEB"/>
<ellipse cx="406.242" cy="590.015" rx="185.607" ry="132.3" transform="rotate(-18.7065 406.242 590.015)" fill="#552FEB"/>
<ellipse cx="436.574" cy="459.004" rx="185.607" ry="132.3" transform="rotate(-18.7065 436.574 459.004)" fill="#552FEB"/>
<ellipse cx="634.456" cy="369.474" rx="185.607" ry="132.3" transform="rotate(-18.7065 634.456 369.474)" fill="#552FEB"/>
<ellipse cx="787.964" cy="388.877" rx="185.607" ry="132.3" transform="rotate(-18.7065 787.964 388.877)" fill="#552FEB"/>
<path d="M1003.02 281.001C1070.59 281.001 1125.25 334.045 1125.25 399.35C1125.25 464.654 1070.59 517.698 1003.02 517.698C935.461 517.698 880.796 464.654 880.796 399.35C880.796 334.045 935.461 281.001 1003.02 281.001Z" stroke="white" stroke-width="3.88028"/>
<ellipse cx="902.77" cy="421.33" rx="73.0786" ry="152.624" fill="#552FEB"/>
<ellipse cx="1038.99" cy="569.693" rx="73.0786" ry="152.624" transform="rotate(-54.3323 1038.99 569.693)" fill="#552FEB"/>
<line x1="1064.17" y1="500.907" x2="1099.09" y2="507.374" stroke="white" stroke-width="3.88028"/>
</g>
<defs>
<clipPath id="clip0_508_15365">
<rect width="1311" height="878" fill="white"/>
</clipPath>
</defs>
</svg>
