<svg width="380" height="379" viewBox="0 0 380 379" fill="none" xmlns="http://www.w3.org/2000/svg">
<path d="M187.386 0C187.622 104.319 273.726 188.841 379.998 189.072V189.074C273.725 189.306 187.62 273.829 187.386 378.149H187.381C187.15 275.546 103.853 192.093 0 189.153V188.992C103.852 186.052 187.149 102.602 187.381 0H187.386Z" fill="#EECB1D"/>
<mask id="path-2-inside-1_454_21434" fill="white">
<path d="M187.868 37.8193C187.812 39.4849 187.781 41.1578 187.781 42.8369C187.781 124.651 255.06 190.982 338.085 191.065C255.06 191.149 187.781 257.481 187.781 339.295C187.781 339.355 187.782 339.415 187.782 339.475C187.78 339.475 187.778 339.475 187.775 339.475C187.775 339.415 187.777 339.355 187.777 339.295C187.777 257.481 120.498 191.148 37.4727 191.065C120.498 190.983 187.777 124.651 187.777 42.8369C187.777 41.1578 187.746 39.4849 187.689 37.8193H187.868Z"/>
</mask>
<path d="M187.868 37.8193L192.865 37.988L193.04 32.8193H187.868V37.8193ZM187.781 42.8369H182.781V42.8369L187.781 42.8369ZM338.085 191.065L338.09 196.065V186.065L338.085 191.065ZM187.781 339.295H182.781V339.295H187.781ZM187.782 339.475L188.016 344.469L192.788 344.245L192.782 339.469L187.782 339.475ZM187.775 339.475L182.775 339.469L182.769 344.715L188.01 344.469L187.775 339.475ZM187.777 339.295H192.777V339.295H187.777ZM37.4727 191.065L37.4677 186.065L37.4677 196.065L37.4727 191.065ZM187.777 42.8369L192.777 42.8369V42.8369H187.777ZM187.689 37.8193V32.8193H182.518L182.692 37.988L187.689 37.8193ZM187.868 37.8193L182.871 37.6506C182.813 39.3677 182.781 41.097 182.781 42.8369H187.781H192.781C192.781 41.2187 192.811 39.6022 192.865 37.988L187.868 37.8193ZM187.781 42.8369L182.781 42.8369C182.781 127.48 252.367 195.98 338.08 196.065L338.085 191.065L338.09 186.065C257.754 185.985 192.781 121.821 192.781 42.8369L187.781 42.8369ZM338.085 191.065L338.08 186.065C252.367 186.151 182.781 254.651 182.781 339.295H187.781H192.781C192.781 260.311 257.754 196.146 338.09 196.065L338.085 191.065ZM187.781 339.295H182.781C182.781 339.347 182.782 339.396 182.782 339.424C182.782 339.458 182.782 339.471 182.782 339.481L187.782 339.475L192.782 339.469C192.782 339.072 192.781 339.595 192.781 339.295H187.781ZM187.782 339.475L187.548 334.48C187.606 334.477 187.658 334.476 187.701 334.475C187.744 334.475 187.781 334.475 187.81 334.475C187.838 334.475 187.861 334.475 187.875 334.476C187.882 334.476 187.887 334.476 187.891 334.476C187.894 334.476 187.896 334.476 187.896 334.476C187.896 334.476 187.896 334.476 187.895 334.476C187.895 334.476 187.895 334.476 187.894 334.476C187.893 334.476 187.892 334.476 187.89 334.476C187.886 334.476 187.88 334.476 187.873 334.475C187.859 334.475 187.835 334.475 187.806 334.475C187.777 334.474 187.74 334.475 187.696 334.475C187.652 334.476 187.6 334.477 187.541 334.48L187.775 339.475L188.01 344.469C187.952 344.472 187.9 344.473 187.857 344.474C187.814 344.475 187.776 344.475 187.748 344.474C187.72 344.474 187.697 344.474 187.683 344.474C187.676 344.474 187.67 344.473 187.667 344.473C187.664 344.473 187.661 344.473 187.662 344.473C187.662 344.473 187.662 344.473 187.662 344.473C187.663 344.473 187.663 344.473 187.663 344.473C187.664 344.473 187.666 344.473 187.668 344.473C187.671 344.473 187.677 344.474 187.685 344.474C187.699 344.474 187.722 344.474 187.751 344.475C187.78 344.475 187.818 344.475 187.862 344.474C187.906 344.473 187.958 344.472 188.016 344.469L187.782 339.475ZM187.775 339.475L192.775 339.481C192.775 339.494 192.775 339.502 192.776 339.465C192.776 339.44 192.777 339.371 192.777 339.295H187.777H182.777C182.777 339.279 182.778 339.27 182.777 339.305C182.777 339.327 182.775 339.395 182.775 339.469L187.775 339.475ZM187.777 339.295H192.777C192.777 254.651 123.192 186.151 37.4776 186.065L37.4727 191.065L37.4677 196.065C117.804 196.145 182.777 260.31 182.777 339.295H187.777ZM37.4727 191.065L37.4776 196.065C123.191 195.98 192.777 127.481 192.777 42.8369L187.777 42.8369L182.777 42.8369C182.777 121.821 117.804 185.986 37.4677 186.065L37.4727 191.065ZM187.777 42.8369H192.777C192.777 41.0951 192.745 39.3656 192.687 37.6506L187.689 37.8193L182.692 37.988C182.747 39.6043 182.777 41.2205 182.777 42.8369H187.777ZM187.689 37.8193V42.8193H187.868V37.8193V32.8193H187.689V37.8193Z" fill="white" mask="url(#path-2-inside-1_454_21434)"/>
</svg>
