<svg width="1440" height="849" viewBox="0 0 1440 849" fill="none" xmlns="http://www.w3.org/2000/svg">
<g clip-path="url(#clip0_447_18177)">
<ellipse cx="676.576" cy="137.064" rx="209.287" ry="132.064" fill="#EECB1D"/>
<ellipse cx="1018.33" cy="202.607" rx="209.287" ry="132.064" fill="#EECB1D"/>
<ellipse cx="1278.34" cy="323.911" rx="209.287" ry="132.064" fill="#EECB1D"/>
<ellipse cx="361.416" cy="202.607" rx="209.287" ry="132.064" fill="#EECB1D"/>
<ellipse cx="109.287" cy="334.672" rx="209.287" ry="132.064" fill="#EECB1D"/>
<ellipse cx="1212.84" cy="685.865" rx="237.356" ry="152.608" fill="#EECB1D"/>
<ellipse cx="871.09" cy="685.865" rx="237.356" ry="152.608" fill="#EECB1D"/>
<ellipse cx="529.336" cy="685.865" rx="237.356" ry="152.608" fill="#EECB1D"/>
<ellipse cx="529.336" cy="685.865" rx="237.356" ry="152.608" fill="#EECB1D"/>
<ellipse cx="187.586" cy="685.865" rx="237.356" ry="152.608" fill="#EECB1D"/>
<rect x="-19.2383" y="280.868" width="1439.89" height="404.997" fill="#EECB1D"/>
<ellipse cx="681.995" cy="260.324" rx="180.233" ry="57.717" fill="#EECB1D"/>
<path d="M181.182 687.865C232.547 687.865 278.962 695.508 312.463 707.8C329.222 713.949 342.644 721.223 351.839 729.199C361.039 737.18 365.816 745.683 365.816 754.343C365.816 763.003 361.039 771.506 351.839 779.487C342.644 787.464 329.221 794.738 312.463 800.887C278.962 813.179 232.547 820.821 181.182 820.821C129.816 820.821 83.4008 813.179 49.8994 800.887C33.1411 794.738 19.7195 787.464 10.5244 779.487C1.32402 771.506 -3.45312 763.003 -3.45312 754.343C-3.45303 745.683 1.32411 737.18 10.5244 729.199C19.7195 721.223 33.141 713.949 49.8994 707.8C83.4008 695.508 129.816 687.865 181.182 687.865Z" stroke="white" stroke-width="4"/>
<path d="M527.861 687.865C579.227 687.865 625.641 695.508 659.143 707.8C675.901 713.949 689.323 721.223 698.519 729.199C707.719 737.18 712.496 745.683 712.496 754.343C712.496 763.003 707.719 771.506 698.519 779.487C689.323 787.464 675.901 794.738 659.143 800.887C625.641 813.179 579.227 820.821 527.861 820.821C476.496 820.821 430.08 813.179 396.579 800.887C379.821 794.738 366.399 787.464 357.204 779.487C348.004 771.506 343.227 763.003 343.227 754.343C343.227 745.683 348.004 737.18 357.204 729.199C366.399 721.223 379.821 713.949 396.579 707.8C430.08 695.508 476.496 687.865 527.861 687.865Z" stroke="white" stroke-width="4"/>
<path d="M874.537 687.865C925.903 687.865 972.317 695.508 1005.82 707.8C1022.58 713.949 1036 721.223 1045.19 729.199C1054.39 737.18 1059.17 745.683 1059.17 754.343C1059.17 763.003 1054.39 771.506 1045.19 779.487C1036 787.464 1022.58 794.738 1005.82 800.887C972.317 813.179 925.902 820.821 874.537 820.821C823.172 820.821 776.756 813.179 743.255 800.887C726.497 794.738 713.075 787.464 703.88 779.487C694.679 771.506 689.902 763.003 689.902 754.343C689.902 745.683 694.68 737.18 703.88 729.199C713.075 721.223 726.497 713.949 743.255 707.8C776.756 695.508 823.172 687.865 874.537 687.865Z" stroke="white" stroke-width="4"/>
<path d="M1228.11 656.561C1283.54 656.561 1333.64 665.403 1369.8 679.63C1387.88 686.745 1402.38 695.169 1412.33 704.42C1422.27 713.668 1427.52 723.598 1427.52 733.799C1427.52 744 1422.27 753.929 1412.33 763.178C1402.38 772.429 1387.88 780.852 1369.8 787.968C1333.64 802.194 1283.54 811.038 1228.11 811.038C1172.68 811.038 1122.59 802.194 1086.43 787.968C1068.34 780.852 1053.84 772.429 1043.89 763.178C1033.95 753.929 1028.7 744 1028.7 733.799C1028.7 723.598 1033.95 713.668 1043.89 704.42C1053.84 695.169 1068.34 686.746 1086.43 679.63C1122.59 665.403 1172.68 656.561 1228.11 656.561Z" stroke="white" stroke-width="4"/>
<ellipse cx="225.997" cy="675.593" rx="275.766" ry="114.945" fill="#EECB1D"/>
<ellipse cx="676.086" cy="663.854" rx="275.766" ry="114.945" fill="#EECB1D"/>
<ellipse cx="1108.45" cy="657.985" rx="275.766" ry="114.945" fill="#EECB1D"/>
<ellipse cx="1578.23" cy="654.072" rx="275.766" ry="114.945" fill="#EECB1D"/>
<path d="M95.9922 213.412C125.42 213.412 151.966 218.796 171.079 227.418C190.379 236.123 201.345 247.739 201.345 259.836C201.345 271.933 190.378 283.547 171.079 292.253C151.966 300.875 125.42 306.26 95.9922 306.26C66.5643 306.26 40.0187 300.874 20.9053 292.253C1.60615 283.548 -9.35923 271.933 -9.35938 259.836C-9.35938 247.739 1.60591 236.123 20.9053 227.418C40.0187 218.796 66.5643 213.412 95.9922 213.412Z" stroke="white" stroke-width="4"/>
<path d="M356.985 86.2383C409.749 86.2383 457.418 97.9535 491.825 116.794C526.306 135.675 547.036 161.432 547.036 189.4C547.036 217.369 526.306 243.127 491.825 262.008C457.418 280.848 409.749 292.562 356.985 292.562C304.222 292.562 256.552 280.848 222.145 262.008C187.663 243.127 166.934 217.369 166.934 189.4C166.934 161.432 187.664 135.675 222.145 116.794C256.552 97.9535 304.222 86.2383 356.985 86.2383Z" stroke="white" stroke-width="4"/>
<path d="M676.087 20.6953C728.85 20.6954 776.52 32.4106 810.927 51.251C845.408 70.1319 866.138 95.8887 866.138 123.857C866.138 151.826 845.408 177.584 810.927 196.465C776.52 215.305 728.85 227.019 676.087 227.02C623.323 227.02 575.653 215.305 541.246 196.465C506.765 177.584 486.035 151.826 486.035 123.857C486.035 95.8888 506.765 70.1319 541.246 51.251C575.653 32.4105 623.323 20.6953 676.087 20.6953Z" stroke="white" stroke-width="4"/>
<path d="M1023.75 92.1084C1076.51 92.1085 1124.18 103.824 1158.59 122.664C1193.07 141.545 1213.8 167.302 1213.8 195.271C1213.8 223.239 1193.07 248.997 1158.59 267.878C1124.18 286.718 1076.51 298.433 1023.75 298.433C970.983 298.433 923.313 286.718 888.906 267.878C854.425 248.997 833.695 223.239 833.695 195.271C833.695 167.302 854.425 141.545 888.906 122.664C923.313 103.824 970.983 92.1084 1023.75 92.1084Z" stroke="white" stroke-width="4"/>
<path d="M1283.75 209.499C1336.52 209.499 1384.19 221.214 1418.59 240.055C1453.08 258.936 1473.81 284.692 1473.81 312.661C1473.81 340.63 1453.08 366.388 1418.59 385.269C1384.19 404.109 1336.52 415.823 1283.75 415.823C1230.99 415.823 1183.32 404.109 1148.91 385.269C1114.43 366.388 1093.7 340.63 1093.7 312.661C1093.7 284.692 1114.43 258.936 1148.91 240.055C1183.32 221.214 1230.99 209.499 1283.75 209.499Z" stroke="white" stroke-width="4"/>
<ellipse cx="267.805" cy="118.405" rx="267.805" ry="118.405" transform="matrix(0.977215 -0.212251 0.215003 0.976613 -100 288.9)" fill="#EECB1D"/>
<ellipse cx="267.805" cy="118.405" rx="267.805" ry="118.405" transform="matrix(0.977215 -0.212251 0.215003 0.976613 196.449 177.379)" fill="#EECB1D"/>
<ellipse cx="267.61" cy="118.493" rx="267.61" ry="118.493" transform="matrix(0.920655 0.390377 -0.39486 0.918742 687.914 59.7822)" fill="#EECB1D"/>
<ellipse cx="266.576" cy="118.953" rx="266.576" ry="118.953" transform="matrix(0.524032 0.851699 -0.854831 0.518907 1131.58 72.5)" fill="#EECB1D"/>
<ellipse cx="169.054" cy="96.4165" rx="169.054" ry="96.4165" transform="matrix(-0.0705993 0.997505 -0.997571 -0.0696573 1475.37 298.445)" fill="#EECB1D"/>
<ellipse cx="15.2325" cy="281.357" rx="34.4708" ry="21.0325" fill="#EECB1D"/>
</g>
<defs>
<clipPath id="clip0_447_18177">
<rect width="1440" height="849" fill="white"/>
</clipPath>
</defs>
</svg>
